<svg width="722" height="90" viewBox="0 0 722 90" fill="none" xmlns="http://www.w3.org/2000/svg">
<g filter="url(#filter0_d_352_277)">
<path d="M358.5 7.5H330.5C330.5 7.5 338.309 12.1535 338.5 17C338.717 22.5255 329 27.5 329 27.5H361C361 27.5 352.462 22.2756 352.5 17C352.531 12.6121 358.5 7.5 358.5 7.5Z" fill="white"/>
<path d="M200.5 33H172.5C172.5 33 180.309 37.6535 180.5 42.5C180.717 48.0255 171 53 171 53H203C203 53 194.462 47.7756 194.5 42.5C194.531 38.1121 200.5 33 200.5 33Z" fill="white"/>
<path d="M387.5 33H359.5C359.5 33 367.309 37.6535 367.5 42.5C367.717 48.0255 358 53 358 53H390C390 53 381.462 47.7756 381.5 42.5C381.531 38.1121 387.5 33 387.5 33Z" fill="white"/>
<path d="M548.5 8H520.5C520.5 8 528.309 12.6535 528.5 17.5C528.717 23.0255 519 28 519 28H551C551 28 542.462 22.7756 542.5 17.5C542.531 13.1121 548.5 8 548.5 8Z" fill="white"/>
<path d="M176.5 53H148.5C148.5 53 156.309 57.6535 156.5 62.5C156.717 68.0255 147 73 147 73H179C179 73 170.462 67.7756 170.5 62.5C170.531 58.1121 176.5 53 176.5 53Z" fill="white"/>
<path d="M274 5L422 5" stroke="white" stroke-width="10" stroke-linecap="round"/>
<path d="M137 29H558" stroke="white" stroke-width="10" stroke-linecap="round"/>
<path d="M513 5H713" stroke="white" stroke-width="10" stroke-linecap="round"/>
<path d="M9 53H209" stroke="white" stroke-width="10" stroke-linecap="round"/>
<path d="M51 77L262 76" stroke="white" stroke-width="10" stroke-linecap="round"/>
<path d="M316 53H431" stroke="white" stroke-width="10" stroke-linecap="round"/>
</g>
<defs>
<filter id="filter0_d_352_277" x="0" y="0" width="722" height="90" filterUnits="userSpaceOnUse" color-interpolation-filters="sRGB">
<feFlood flood-opacity="0" result="BackgroundImageFix"/>
<feColorMatrix in="SourceAlpha" type="matrix" values="0 0 0 0 0 0 0 0 0 0 0 0 0 0 0 0 0 0 127 0" result="hardAlpha"/>
<feOffset dy="4"/>
<feGaussianBlur stdDeviation="2"/>
<feComposite in2="hardAlpha" operator="out"/>
<feColorMatrix type="matrix" values="0 0 0 0 0 0 0 0 0 0 0 0 0 0 0 0 0 0 0.45 0"/>
<feBlend mode="normal" in2="BackgroundImageFix" result="effect1_dropShadow_352_277"/>
<feBlend mode="normal" in="SourceGraphic" in2="effect1_dropShadow_352_277" result="shape"/>
</filter>
</defs>
</svg>
