<svg width="522" height="319" viewBox="0 0 522 319" fill="none" xmlns="http://www.w3.org/2000/svg">
<ellipse cx="168.827" cy="260.533" rx="3.50668" ry="2.60206" fill="#E13A4B"/>
<ellipse cx="165.822" cy="269.206" rx="3.50668" ry="2.60206" fill="#E13A4B"/>
<ellipse cx="3.98229" cy="2.85013" rx="3.98229" ry="2.85013" transform="matrix(0.68802 -0.725692 0.815177 0.579212 227.439 314.883)" fill="#E13A4B"/>
<ellipse cx="5.08959" cy="4.45318" rx="5.08959" ry="4.45318" transform="matrix(0.68802 -0.725692 0.815177 0.579212 333.032 220.22)" fill="#E13A4B"/>
<ellipse cx="6.32856" cy="4.69291" rx="6.32856" ry="4.69291" transform="matrix(0.0874231 0.996171 -0.997844 0.0656284 353.758 200.207)" fill="#E13A4B"/>
<ellipse cx="4.78281" cy="4.69291" rx="4.78281" ry="4.69291" transform="matrix(0.0874231 0.996171 -0.997844 0.0656284 355.03 214.562)" fill="#E13A4B"/>
<ellipse cx="5.06354" cy="4.47463" rx="5.06354" ry="4.47463" transform="matrix(0.661123 0.750278 -0.834462 0.551066 340.131 202.96)" fill="#E13A4B"/>
<ellipse cx="6.32856" cy="4.69291" rx="6.32856" ry="4.69291" transform="matrix(0.0874231 0.996171 -0.997844 0.0656284 268.572 119.695)" fill="#E13A4B"/>
<ellipse cx="4.78281" cy="4.69291" rx="4.78281" ry="4.69291" transform="matrix(0.0874231 0.996171 -0.997844 0.0656284 269.844 134.05)" fill="#E13A4B"/>
<ellipse cx="5.06354" cy="4.47463" rx="5.06354" ry="4.47463" transform="matrix(0.661123 0.750278 -0.834462 0.551066 254.945 122.449)" fill="#E13A4B"/>
<path d="M21.0458 174.338L-3 202.961V165.231L35.0725 135.307C35.0725 135.307 36.2668 122.69 40.583 115.791C44.9332 108.838 48.1562 104.034 56.6136 101.046C66.0761 97.704 82.6632 103.215 82.6632 103.215L101.699 75.8931V43.3674L104.204 70.2553L113.221 65.9186L138.269 31.2244L119.233 65.9186L147.787 56.3777C147.787 56.3777 107.21 73.2911 104.204 75.8931C101.853 77.929 104.204 83.2657 104.204 83.2657L93.6842 95.4086C93.6842 95.4086 101.198 88.3738 107.21 88.9035C113.68 89.4735 119.233 98.878 119.233 98.878L147.787 86.7351C147.787 86.7351 149.793 76.2289 153.298 70.2553C156.895 64.1235 165.822 56.3777 165.822 56.3777L179.848 31.2244L241.967 6.93848C241.967 6.93848 187.138 28.7142 179.848 35.5612C174.77 40.3316 170.831 59.8471 170.831 59.8471C170.831 59.8471 160.859 67.0453 157.305 73.2911C153.609 79.7869 153.298 91.5055 153.298 91.5055L127.749 107.552L157.305 127.501C157.305 127.501 169.142 129.103 176.342 127.501C183.721 125.859 193.374 119.261 193.374 119.261L226.938 111.455L198.384 123.598C198.384 123.598 190.409 130.725 183.856 133.139C176.42 135.877 163.317 135.307 163.317 135.307C163.317 135.307 173.149 150.308 183.856 154.822C203.771 163.218 237.959 140.077 237.959 140.077L265.01 123.598C265.01 123.598 266.132 118.56 268.016 115.791C270.903 111.55 279.037 107.552 279.037 107.552L292.062 93.6739V83.2657L304.586 70.2553L307.592 73.2911L294.567 83.2657V93.6739L288.555 103.215L340.655 75.8931L316.609 91.5055H325.626L344.161 86.7351L325.626 95.4086H312.1C312.1 95.4086 279.037 107.552 275.03 115.791C273.663 118.601 275.03 123.598 275.03 123.598C275.03 123.598 266.721 124.094 265.01 127.501C263.996 129.52 265.01 133.139 265.01 133.139L251.485 140.077L283.546 156.557L337.148 142.679L292.062 160.46L312.1 169.134L349.171 166.098L377.725 147.45L395.967 144.736C403.312 143.155 409.786 142.679 409.786 142.679L395.967 144.736C390.413 145.931 384.36 147.757 380.23 150.486C373.478 154.947 366.704 165.231 366.704 165.231L386.742 158.725L421.809 165.231L487.434 182.144H503.966L522 188.216L519.996 192.119L501.461 185.613L487.434 187.348L419.805 169.134L430.325 179.976L445.855 197.756L443.851 198.624L424.815 179.976L414.796 169.134C414.796 169.134 396.936 160.688 385.24 162.629C378.449 163.755 369.209 169.134 369.209 169.134C369.209 169.134 331.403 177.964 307.592 174.338C281.395 170.348 246.976 147.45 246.976 147.45C246.976 147.45 202.333 169.936 176.342 160.46C158.875 154.092 142.277 130.536 142.277 130.536L123.741 113.623C123.741 113.623 107.21 111.455 93.6842 107.552C83.3307 104.564 66.6326 113.623 66.6326 113.623C66.6326 113.623 55.4998 116.046 52.6059 120.996C50.1322 125.227 52.6059 133.139 52.6059 133.139L31.5658 162.629H70.6403L56.6136 166.098L52.6059 169.134L21.0458 174.338Z" fill="#310709"/>
<path d="M21.0458 174.338L-3 202.961V165.231L35.0725 135.307C35.0725 135.307 36.2668 122.69 40.583 115.791C44.9332 108.838 48.1562 104.034 56.6136 101.046C66.0761 97.704 82.6632 103.215 82.6632 103.215L101.699 75.8931V43.3674L104.204 70.2553L113.221 65.9186L138.269 31.2244L119.233 65.9186L147.787 56.3777C147.787 56.3777 107.21 73.2911 104.204 75.8931C101.853 77.929 104.204 83.2657 104.204 83.2657L93.6842 95.4086C93.6842 95.4086 101.198 88.3738 107.21 88.9035C113.68 89.4735 119.233 98.878 119.233 98.878L147.787 86.7351C147.787 86.7351 149.793 76.2289 153.298 70.2553C156.895 64.1235 165.822 56.3777 165.822 56.3777L179.848 31.2244L241.967 6.93848C241.967 6.93848 187.138 28.7142 179.848 35.5612C174.77 40.3316 170.831 59.8471 170.831 59.8471C170.831 59.8471 160.859 67.0453 157.305 73.2911C153.609 79.7869 153.298 91.5055 153.298 91.5055L127.749 107.552L157.305 127.501C157.305 127.501 169.142 129.103 176.342 127.501C183.721 125.859 193.374 119.261 193.374 119.261L226.938 111.455L198.384 123.598C198.384 123.598 190.409 130.725 183.856 133.139C176.42 135.877 163.317 135.307 163.317 135.307C163.317 135.307 173.149 150.308 183.856 154.822C203.771 163.218 237.959 140.077 237.959 140.077L265.01 123.598C265.01 123.598 266.132 118.56 268.016 115.791C270.903 111.55 279.037 107.552 279.037 107.552L292.062 93.6739V83.2657L304.586 70.2553L307.592 73.2911L294.567 83.2657V93.6739L288.555 103.215L340.655 75.8931L316.609 91.5055H325.626L344.161 86.7351L325.626 95.4086H312.1C312.1 95.4086 279.037 107.552 275.03 115.791C273.663 118.601 275.03 123.598 275.03 123.598C275.03 123.598 266.721 124.094 265.01 127.501C263.996 129.52 265.01 133.139 265.01 133.139L251.485 140.077L283.546 156.557L337.148 142.679L292.062 160.46L312.1 169.134L349.171 166.098L377.725 147.45L395.967 144.736C403.312 143.155 409.786 142.679 409.786 142.679L395.967 144.736C390.413 145.931 384.36 147.757 380.23 150.486C373.478 154.947 366.704 165.231 366.704 165.231L386.742 158.725L421.809 165.231L487.434 182.144H503.966L522 188.216L519.996 192.119L501.461 185.613L487.434 187.348L419.805 169.134L430.325 179.976L445.855 197.756L443.851 198.624L424.815 179.976L414.796 169.134C414.796 169.134 396.936 160.688 385.24 162.629C378.449 163.755 369.209 169.134 369.209 169.134C369.209 169.134 331.403 177.964 307.592 174.338C281.395 170.348 246.976 147.45 246.976 147.45C246.976 147.45 202.333 169.936 176.342 160.46C158.875 154.092 142.277 130.536 142.277 130.536L123.741 113.623C123.741 113.623 107.21 111.455 93.6842 107.552C83.3307 104.564 66.6326 113.623 66.6326 113.623C66.6326 113.623 55.4998 116.046 52.6059 120.996C50.1322 125.227 52.6059 133.139 52.6059 133.139L31.5658 162.629H70.6403L56.6136 166.098L52.6059 169.134L21.0458 174.338Z" fill="black" fill-opacity="0.2"/>
<ellipse cx="235.955" cy="6.93883" rx="5.5105" ry="6.93883" fill="#E13A4B"/>
<ellipse cx="4.7707" cy="8.01494" rx="4.7707" ry="8.01494" transform="matrix(0.0207144 0.999785 -0.999879 0.0155257 254.488 6.93848)" fill="#E13A4B"/>
<ellipse cx="5.49539" cy="6.96413" rx="5.49539" ry="6.96413" transform="matrix(-0.991733 0.128318 -0.170128 -0.985422 244.716 25.8677)" fill="#E13A4B"/>
<ellipse cx="6.70579" cy="9.87823" rx="6.70579" ry="9.87823" transform="matrix(-0.502456 -0.864603 0.916819 -0.399303 220.282 25.0479)" fill="#E13A4B"/>
<ellipse cx="166.323" cy="52.9087" rx="4.00763" ry="7.80619" fill="#E13A4B"/>
<ellipse cx="3.54102" cy="8.87515" rx="3.54102" ry="8.87515" transform="matrix(0.39972 0.916637 -0.950527 0.310642 184.197 52.9082)" fill="#E13A4B"/>
<ellipse cx="4.66433" cy="9.67015" rx="4.66433" ry="9.67015" transform="matrix(0.837984 0.545694 -0.655899 0.754849 176.158 44.4741)" fill="#E13A4B"/>
<path d="M58.1157 174.339L62.8066 177.943" stroke="#E13A4B" stroke-width="15" stroke-linecap="round"/>
<path d="M43.3774 167.4L42.0855 170.004" stroke="#E13A4B" stroke-width="15" stroke-linecap="round"/>
<path d="M76.0564 156.991L68.1353 163.138" stroke="#E13A4B" stroke-width="15" stroke-linecap="round"/>
<path d="M57.114 152.654L56.3804 155.201" stroke="#E13A4B" stroke-width="15" stroke-linecap="round"/>
<path d="M106.208 86.7349L110.899 90.339" stroke="#E13A4B" stroke-width="12" stroke-linecap="round"/>
<path d="M91.4692 79.7959L90.1773 82.399" stroke="#E13A4B" stroke-width="12" stroke-linecap="round"/>
<path d="M124.148 69.3877L116.227 75.5346" stroke="#E13A4B" stroke-width="12" stroke-linecap="round"/>
<path d="M105.206 65.0503L104.472 67.5972" stroke="#E13A4B" stroke-width="12" stroke-linecap="round"/>
<path d="M382.734 163.93L387.425 167.534" stroke="#E13A4B" stroke-width="10" stroke-linecap="round"/>
<path d="M367.995 156.991L366.703 159.594" stroke="#E13A4B" stroke-width="10" stroke-linecap="round"/>
<path d="M400.674 146.582L397.763 150.918" stroke="#E13A4B" stroke-width="10" stroke-linecap="round"/>
<path d="M381.732 142.245L380.998 144.792" stroke="#E13A4B" stroke-width="10" stroke-linecap="round"/>
<ellipse cx="276.533" cy="121.431" rx="6.01145" ry="5.20413" fill="#E13A4B"/>
<ellipse cx="290.56" cy="106.685" rx="6.01145" ry="5.20413" fill="#E13A4B"/>
<path d="M291.061 99.7451C291.061 102.619 282.963 104.949 278.537 104.949C274.11 104.949 270.521 102.619 270.521 99.7451C270.521 96.871 274.11 94.541 278.537 94.541C282.963 94.541 291.061 96.871 291.061 99.7451Z" fill="#E13A4B"/>
<path d="M288.816 99.8918C288.119 97.0817 295.47 93.3321 299.798 92.5275C304.126 91.723 308.2 93.3488 308.897 96.1589C309.594 98.969 306.651 101.899 302.323 102.704C297.994 103.508 289.513 102.702 288.816 99.8918Z" fill="#E13A4B"/>
<path d="M289.53 98.8618C286.226 98.5861 284.323 91.3852 284.748 87.5707C285.172 83.7561 288.196 80.8873 291.5 81.163C294.805 81.4386 297.14 84.7544 296.715 88.569C296.291 92.3835 292.835 99.1374 289.53 98.8618Z" fill="#E13A4B"/>
<ellipse cx="34.071" cy="86.7364" rx="6.01145" ry="5.20413" fill="#E13A4B"/>
<ellipse cx="48.0981" cy="71.9907" rx="6.01145" ry="5.20413" fill="#E13A4B"/>
<path d="M48.5987 65.0518C48.5987 67.9259 40.5015 70.2559 36.0748 70.2559C31.6481 70.2559 28.0596 67.9259 28.0596 65.0518C28.0596 62.1776 31.6481 59.8477 36.0748 59.8477C40.5015 59.8477 48.5987 62.1776 48.5987 65.0518Z" fill="#E13A4B"/>
<path d="M46.3541 65.2014C45.6571 62.3913 53.0087 58.6416 57.3368 57.8371C61.6648 57.0326 65.7384 58.6584 66.4355 61.4685C67.1325 64.2786 64.1889 67.2088 59.8609 68.0134C55.5328 68.8179 47.0511 68.0115 46.3541 65.2014Z" fill="#E13A4B"/>
<path d="M47.0688 64.1674C43.764 63.8917 41.8616 56.6909 42.2862 52.8763C42.7108 49.0618 45.734 46.193 49.0387 46.4686C52.3435 46.7443 54.6783 50.0601 54.2537 53.8746C53.8291 57.6892 50.3735 64.4431 47.0688 64.1674Z" fill="#E13A4B"/>
<ellipse cx="3.47294" cy="9.01031" rx="3.47294" ry="9.01031" transform="matrix(0.0899388 0.995947 -0.997718 0.0675236 161.475 119.695)" fill="#E13A4B"/>
<ellipse cx="3.91589" cy="8.03846" rx="3.91589" ry="8.03846" transform="matrix(-0.926391 0.376563 -0.47677 -0.879028 154.191 139.189)" fill="#E13A4B"/>
<ellipse cx="4.43358" cy="10.1627" rx="4.43358" ry="10.1627" transform="matrix(-0.592427 0.805624 -0.875804 -0.482666 163.278 131.594)" fill="#E13A4B"/>
<ellipse cx="222.429" cy="251.1" rx="5.00954" ry="3.03574" fill="#E13A4B"/>
<ellipse cx="123.241" cy="233.752" rx="5.00954" ry="3.03574" fill="#E13A4B"/>
<ellipse cx="107.21" cy="228.548" rx="5.00954" ry="3.03574" fill="#E13A4B"/>
<path d="M245.974 241.558C245.974 243.234 240.224 244.593 237.458 244.593C234.691 244.593 232.448 243.234 232.448 241.558C232.448 239.881 234.691 238.522 237.458 238.522C240.224 238.522 245.974 239.881 245.974 241.558Z" fill="#E13A4B"/>
<ellipse cx="183.355" cy="201.226" rx="8.01527" ry="4.33677" fill="#E13A4B"/>
<ellipse cx="209.405" cy="84.1327" rx="13.0248" ry="4.33677" fill="#E13A4B"/>
<ellipse cx="11.9118" cy="4.7868" rx="11.9118" ry="4.7868" transform="matrix(0.644133 -0.764913 0.845671 0.533706 304.585 158.734)" fill="#E13A4B"/>
<ellipse cx="11.9118" cy="4.7868" rx="11.9118" ry="4.7868" transform="matrix(0.644133 -0.764913 0.845671 0.533706 207.401 234.195)" fill="#E13A4B"/>
<ellipse cx="8.5884" cy="4.6938" rx="8.5884" ry="4.6938" transform="matrix(-0.747715 -0.66402 0.764234 -0.644939 317.429 151.901)" fill="#E13A4B"/>
<ellipse cx="8.5884" cy="4.6938" rx="8.5884" ry="4.6938" transform="matrix(-0.747715 -0.66402 0.764234 -0.644939 329.452 160.574)" fill="#E13A4B"/>
<ellipse cx="9.15288" cy="4.36602" rx="9.15288" ry="4.36602" transform="matrix(-0.984554 -0.175084 0.230874 -0.972984 338.639 151.345)" fill="#E13A4B"/>
<ellipse cx="11.9577" cy="4.76983" rx="11.9577" ry="4.76983" transform="matrix(0.665075 0.746777 -0.831751 0.555149 209.324 66.7861)" fill="#E13A4B"/>
<ellipse cx="2.31129" cy="2.04007" rx="2.31129" ry="2.04007" transform="matrix(-0.577023 -0.816728 0.853876 -0.520476 495.503 161.673)" fill="#E13A4B"/>
<ellipse cx="3.30184" cy="2.38008" rx="3.30184" ry="2.38008" transform="matrix(-0.577023 -0.816728 0.853876 -0.520476 495.193 198.13)" fill="#E13A4B"/>
<ellipse cx="3.30184" cy="2.38008" rx="3.30184" ry="2.38008" transform="matrix(-0.577023 -0.816728 0.853876 -0.520476 497.807 208.882)" fill="#E13A4B"/>
<ellipse cx="2.32888" cy="2.02532" rx="2.32888" ry="2.02532" transform="matrix(0.830622 -0.587107 0.622989 0.760425 480.338 149.348)" fill="#E13A4B"/>
<ellipse cx="3.65968" cy="4.05064" rx="3.65968" ry="4.05064" transform="matrix(0.830622 -0.587107 0.622989 0.760425 481.684 143.535)" fill="#E13A4B"/>
<ellipse cx="3.65968" cy="4.05064" rx="3.65968" ry="4.05064" transform="matrix(0.830622 -0.587107 0.622989 0.760425 488.233 146.201)" fill="#E13A4B"/>
<ellipse cx="5.30154" cy="3.98427" rx="5.30154" ry="3.98427" transform="matrix(0.682876 0.714046 -0.780754 0.644199 451.483 132.294)" fill="#E13A4B"/>
<ellipse cx="5.22834" cy="4.04023" rx="5.22834" ry="4.04023" transform="matrix(-0.31933 0.921915 -0.980355 -0.292969 464.447 134.5)" fill="#E13A4B"/>
<ellipse cx="3.71031" cy="3.12654" rx="3.71031" ry="3.12654" transform="matrix(0.426823 0.871936 -0.947854 0.400309 458.203 140.588)" fill="#E13A4B"/>
</svg>
