<svg width="444" height="362" viewBox="0 0 444 362" fill="none" xmlns="http://www.w3.org/2000/svg">
<ellipse cx="143.299" cy="238.785" rx="2.98569" ry="2.38487" fill="#E13A4B"/>
<ellipse cx="140.74" cy="246.734" rx="2.98569" ry="2.38487" fill="#E13A4B"/>
<ellipse cx="3.52954" cy="2.49047" rx="3.52954" ry="2.49047" transform="matrix(0.660943 -0.750436 0.794298 0.607529 193.202 288.6)" fill="#E13A4B"/>
<ellipse cx="4.51094" cy="3.89123" rx="4.51094" ry="3.89123" transform="matrix(0.660943 -0.750436 0.794298 0.607529 283.107 201.838)" fill="#E13A4B"/>
<ellipse cx="5.79728" cy="3.99704" rx="5.79728" ry="3.99704" transform="matrix(0.081256 0.996693 -0.997503 0.0706222 300.753 183.495)" fill="#E13A4B"/>
<ellipse cx="4.38129" cy="3.99704" rx="4.38129" ry="3.99704" transform="matrix(0.081256 0.996693 -0.997503 0.0706222 301.837 196.652)" fill="#E13A4B"/>
<ellipse cx="4.49977" cy="3.90059" rx="4.49977" ry="3.90059" transform="matrix(0.633423 0.773806 -0.815045 0.579398 289.151 186.02)" fill="#E13A4B"/>
<ellipse cx="5.79728" cy="3.99704" rx="5.79728" ry="3.99704" transform="matrix(0.081256 0.996693 -0.997503 0.0706222 228.224 109.704)" fill="#E13A4B"/>
<ellipse cx="4.38129" cy="3.99704" rx="4.38129" ry="3.99704" transform="matrix(0.081256 0.996693 -0.997503 0.0706222 229.307 122.861)" fill="#E13A4B"/>
<ellipse cx="4.49977" cy="3.90059" rx="4.49977" ry="3.90059" transform="matrix(0.633423 0.773806 -0.815045 0.579398 216.622 112.229)" fill="#E13A4B"/>
<path d="M17.4733 159.786L-3 186.019V151.439L29.416 124.013C29.416 124.013 30.4329 112.449 34.1078 106.126C37.8117 99.7535 40.5558 95.3501 47.7567 92.6121C55.8134 89.5486 69.9361 94.5994 69.9361 94.5994L86.1441 69.5583V39.7475L88.2767 64.3911L95.9542 60.4164L117.281 28.6181L101.073 60.4164L125.385 51.6718C125.385 51.6718 90.8359 67.1735 88.2767 69.5583C86.2744 71.4243 88.2767 76.3155 88.2767 76.3155L79.3197 87.4448C79.3197 87.4448 85.7175 80.9972 90.8359 81.4827C96.3444 82.0052 101.073 90.6247 101.073 90.6247L125.385 79.4953C125.385 79.4953 127.092 69.8661 130.076 64.3911C133.139 58.7712 140.74 51.6718 140.74 51.6718L152.682 28.6181L205.572 6.35938C205.572 6.35938 158.889 26.3174 152.682 32.5929C148.358 36.9652 145.005 54.8517 145.005 54.8517C145.005 54.8517 136.514 61.449 133.489 67.1735C130.342 73.1271 130.076 83.8675 130.076 83.8675L108.323 98.5742L133.489 116.858C133.489 116.858 143.566 118.327 149.697 116.858C155.98 115.353 164.198 109.306 164.198 109.306L192.776 102.152L168.464 113.281C168.464 113.281 161.674 119.814 156.094 122.025C149.764 124.535 138.607 124.013 138.607 124.013C138.607 124.013 146.978 137.762 156.094 141.899C173.05 149.594 202.159 128.385 202.159 128.385L225.192 113.281C225.192 113.281 226.147 108.664 227.751 106.126C230.209 102.239 237.135 98.5742 237.135 98.5742L248.224 85.8549V76.3155L258.887 64.3911L261.447 67.1735L250.357 76.3155V85.8549L245.239 94.5994L289.597 69.5583L269.124 83.8675H276.802L292.583 79.4953L276.802 87.4448H265.285C265.285 87.4448 237.135 98.5742 233.722 106.126C232.559 108.701 233.722 113.281 233.722 113.281C233.722 113.281 226.648 113.736 225.192 116.858C224.328 118.709 225.192 122.025 225.192 122.025L213.676 128.385L240.973 143.489L286.612 130.77L248.224 147.067L265.285 155.016L296.848 152.234L321.16 135.142L336.691 132.655C342.946 131.206 348.458 130.77 348.458 130.77L336.691 132.655C331.963 133.75 326.809 135.423 323.293 137.925C317.544 142.013 311.777 151.439 311.777 151.439L328.838 145.477L358.695 151.439L414.57 166.94H428.645L444 172.505L442.294 176.082L426.512 170.12L414.57 171.71L356.989 155.016L365.946 164.953L379.168 181.25L377.462 182.045L361.254 164.953L352.723 155.016C352.723 155.016 337.517 147.275 327.558 149.054C321.777 150.087 313.909 155.016 313.909 155.016C313.909 155.016 281.72 163.11 261.447 159.786C239.142 156.129 209.837 135.142 209.837 135.142C209.837 135.142 171.826 155.751 149.697 147.067C134.825 141.23 120.693 119.641 120.693 119.641L104.911 104.139C104.911 104.139 90.8359 102.152 79.3197 98.5742C70.5044 95.8359 56.2872 104.139 56.2872 104.139C56.2872 104.139 46.8084 106.359 44.3445 110.896C42.2383 114.774 44.3445 122.025 44.3445 122.025L26.4303 149.054H59.6994L47.7567 152.234L44.3445 155.016L17.4733 159.786Z" fill="#310709"/>
<path d="M17.4733 159.786L-3 186.019V151.439L29.416 124.013C29.416 124.013 30.4329 112.449 34.1078 106.126C37.8117 99.7535 40.5558 95.3501 47.7567 92.6121C55.8134 89.5486 69.9361 94.5994 69.9361 94.5994L86.1441 69.5583V39.7475L88.2767 64.3911L95.9542 60.4164L117.281 28.6181L101.073 60.4164L125.385 51.6718C125.385 51.6718 90.8359 67.1735 88.2767 69.5583C86.2744 71.4243 88.2767 76.3155 88.2767 76.3155L79.3197 87.4448C79.3197 87.4448 85.7175 80.9972 90.8359 81.4827C96.3444 82.0052 101.073 90.6247 101.073 90.6247L125.385 79.4953C125.385 79.4953 127.092 69.8661 130.076 64.3911C133.139 58.7712 140.74 51.6718 140.74 51.6718L152.682 28.6181L205.572 6.35938C205.572 6.35938 158.889 26.3174 152.682 32.5929C148.358 36.9652 145.005 54.8517 145.005 54.8517C145.005 54.8517 136.514 61.449 133.489 67.1735C130.342 73.1271 130.076 83.8675 130.076 83.8675L108.323 98.5742L133.489 116.858C133.489 116.858 143.566 118.327 149.697 116.858C155.98 115.353 164.198 109.306 164.198 109.306L192.776 102.152L168.464 113.281C168.464 113.281 161.674 119.814 156.094 122.025C149.764 124.535 138.607 124.013 138.607 124.013C138.607 124.013 146.978 137.762 156.094 141.899C173.05 149.594 202.159 128.385 202.159 128.385L225.192 113.281C225.192 113.281 226.147 108.664 227.751 106.126C230.209 102.239 237.135 98.5742 237.135 98.5742L248.224 85.8549V76.3155L258.887 64.3911L261.447 67.1735L250.357 76.3155V85.8549L245.239 94.5994L289.597 69.5583L269.124 83.8675H276.802L292.583 79.4953L276.802 87.4448H265.285C265.285 87.4448 237.135 98.5742 233.722 106.126C232.559 108.701 233.722 113.281 233.722 113.281C233.722 113.281 226.648 113.736 225.192 116.858C224.328 118.709 225.192 122.025 225.192 122.025L213.676 128.385L240.973 143.489L286.612 130.77L248.224 147.067L265.285 155.016L296.848 152.234L321.16 135.142L336.691 132.655C342.946 131.206 348.458 130.77 348.458 130.77L336.691 132.655C331.963 133.75 326.809 135.423 323.293 137.925C317.544 142.013 311.777 151.439 311.777 151.439L328.838 145.477L358.695 151.439L414.57 166.94H428.645L444 172.505L442.294 176.082L426.512 170.12L414.57 171.71L356.989 155.016L365.946 164.953L379.168 181.25L377.462 182.045L361.254 164.953L352.723 155.016C352.723 155.016 337.517 147.275 327.558 149.054C321.777 150.087 313.909 155.016 313.909 155.016C313.909 155.016 281.72 163.11 261.447 159.786C239.142 156.129 209.837 135.142 209.837 135.142C209.837 135.142 171.826 155.751 149.697 147.067C134.825 141.23 120.693 119.641 120.693 119.641L104.911 104.139C104.911 104.139 90.8359 102.152 79.3197 98.5742C70.5044 95.8359 56.2872 104.139 56.2872 104.139C56.2872 104.139 46.8084 106.359 44.3445 110.896C42.2383 114.774 44.3445 122.025 44.3445 122.025L26.4303 149.054H59.6994L47.7567 152.234L44.3445 155.016L17.4733 159.786Z" fill="black" fill-opacity="0.2"/>
<ellipse cx="200.453" cy="6.35964" rx="4.69179" ry="6.35964" fill="#E13A4B"/>
<ellipse cx="4.37236" cy="6.82428" rx="4.37236" ry="6.82428" transform="matrix(0.0192437 0.999815 -0.99986 0.0167125 216.233 6.35937)" fill="#E13A4B"/>
<ellipse cx="4.68504" cy="6.37016" rx="4.68504" ry="6.37016" transform="matrix(-0.990439 0.137949 -0.158358 -0.987382 207.913 23.709)" fill="#E13A4B"/>
<ellipse cx="6.03882" cy="8.5164" rx="6.03882" ry="8.5164" transform="matrix(-0.475055 -0.879956 0.905431 -0.424494 187.108 22.957)" fill="#E13A4B"/>
<ellipse cx="141.166" cy="48.4925" rx="3.41221" ry="7.1546" fill="#E13A4B"/>
<ellipse cx="3.20973" cy="7.61422" rx="3.20973" ry="7.61422" transform="matrix(0.37546 0.926839 -0.943328 0.331861 156.385 48.4922)" fill="#E13A4B"/>
<ellipse cx="4.06413" cy="8.5978" rx="4.06413" ry="8.5978" transform="matrix(0.818851 0.574006 -0.628103 0.77813 149.54 40.7617)" fill="#E13A4B"/>
<path d="M49.0364 159.786L53.0303 163.089" stroke="#E13A4B" stroke-width="15" stroke-linecap="round"/>
<path d="M36.4871 153.427L35.3875 155.812" stroke="#E13A4B" stroke-width="15" stroke-linecap="round"/>
<path d="M64.311 143.887L57.5668 149.521" stroke="#E13A4B" stroke-width="15" stroke-linecap="round"/>
<path d="M48.1833 139.912L47.5589 142.246" stroke="#E13A4B" stroke-width="15" stroke-linecap="round"/>
<path d="M89.9829 79.4951L93.9768 82.7984" stroke="#E13A4B" stroke-width="12" stroke-linecap="round"/>
<path d="M77.4336 73.1357L76.3341 75.5206" stroke="#E13A4B" stroke-width="12" stroke-linecap="round"/>
<path d="M105.258 63.5957L98.5133 69.2295" stroke="#E13A4B" stroke-width="12" stroke-linecap="round"/>
<path d="M89.1299 59.6211L88.5055 61.9546" stroke="#E13A4B" stroke-width="12" stroke-linecap="round"/>
<path d="M325.426 150.246L329.419 153.549" stroke="#E13A4B" stroke-width="10" stroke-linecap="round"/>
<path d="M312.876 143.887L311.777 146.272" stroke="#E13A4B" stroke-width="10" stroke-linecap="round"/>
<path d="M340.7 134.347L338.221 138.321" stroke="#E13A4B" stroke-width="10" stroke-linecap="round"/>
<path d="M324.573 130.372L323.948 132.706" stroke="#E13A4B" stroke-width="10" stroke-linecap="round"/>
<ellipse cx="235.002" cy="111.295" rx="5.11832" ry="4.76973" fill="#E13A4B"/>
<ellipse cx="246.944" cy="97.7805" rx="5.11832" ry="4.76973" fill="#E13A4B"/>
<path d="M247.371 91.4211C247.371 94.0554 240.477 96.1908 236.708 96.1908C232.939 96.1908 229.884 94.0554 229.884 91.4211C229.884 88.7868 232.939 86.6514 236.708 86.6514C240.477 86.6514 247.371 88.7868 247.371 91.4211Z" fill="#E13A4B"/>
<path d="M245.46 91.5557C244.866 88.9802 251.126 85.5435 254.811 84.8061C258.496 84.0687 261.964 85.5589 262.558 88.1344C263.151 90.71 260.645 93.3956 256.96 94.133C253.275 94.8704 246.053 94.1313 245.46 91.5557Z" fill="#E13A4B"/>
<path d="M246.068 90.6107C243.254 90.358 241.634 83.7582 241.996 80.262C242.357 76.7659 244.931 74.1365 247.745 74.3892C250.559 74.6419 252.547 77.6809 252.185 81.177C251.824 84.6731 248.882 90.8633 246.068 90.6107Z" fill="#E13A4B"/>
<ellipse cx="28.5629" cy="79.4963" rx="5.11832" ry="4.76973" fill="#E13A4B"/>
<ellipse cx="40.5058" cy="65.9816" rx="5.11832" ry="4.76973" fill="#E13A4B"/>
<path d="M40.9322 59.6223C40.9322 62.2565 34.038 64.392 30.269 64.392C26.5 64.392 23.4446 62.2565 23.4446 59.6223C23.4446 56.988 26.5 54.8525 30.269 54.8525C34.038 54.8525 40.9322 56.988 40.9322 59.6223Z" fill="#E13A4B"/>
<path d="M39.0209 59.7579C38.4275 57.1823 44.6869 53.7457 48.3719 53.0083C52.057 52.2709 55.5254 53.761 56.1188 56.3366C56.7123 58.9121 54.2061 61.5978 50.521 62.3351C46.836 63.0725 39.6144 62.3334 39.0209 59.7579Z" fill="#E13A4B"/>
<path d="M39.6291 58.8118C36.8154 58.5592 35.1956 51.9594 35.5571 48.4632C35.9186 44.9671 38.4927 42.3377 41.3064 42.5904C44.1201 42.843 46.1081 45.882 45.7466 49.3782C45.3851 52.8743 42.4428 59.0645 39.6291 58.8118Z" fill="#E13A4B"/>
<ellipse cx="3.18129" cy="7.67441" rx="3.18129" ry="7.67441" transform="matrix(0.0835968 0.9965 -0.997357 0.0726602 137.039 109.704)" fill="#E13A4B"/>
<ellipse cx="3.37142" cy="7.25185" rx="3.37142" ry="7.25185" transform="matrix(-0.916136 0.400868 -0.449968 -0.893045 130.837 127.571)" fill="#E13A4B"/>
<ellipse cx="3.9646" cy="8.81143" rx="3.9646" ry="8.81143" transform="matrix(-0.564077 0.825722 -0.860043 -0.510221 138.574 120.609)" fill="#E13A4B"/>
<ellipse cx="188.937" cy="230.14" rx="4.26527" ry="2.78234" fill="#E13A4B"/>
<ellipse cx="104.485" cy="214.24" rx="4.26527" ry="2.78234" fill="#E13A4B"/>
<ellipse cx="90.8358" cy="209.471" rx="4.26527" ry="2.78234" fill="#E13A4B"/>
<path d="M208.984 221.395C208.984 222.931 204.088 224.177 201.733 224.177C199.377 224.177 197.468 222.931 197.468 221.395C197.468 219.858 199.377 218.612 201.733 218.612C204.088 218.612 208.984 219.858 208.984 221.395Z" fill="#E13A4B"/>
<ellipse cx="155.668" cy="184.43" rx="6.82443" ry="3.97478" fill="#E13A4B"/>
<ellipse cx="177.847" cy="77.1105" rx="11.0897" ry="3.97478" fill="#E13A4B"/>
<ellipse cx="10.6026" cy="4.16676" rx="10.6026" ry="4.16676" transform="matrix(0.61615 -0.787628 0.827173 0.561947 258.887 145.484)" fill="#E13A4B"/>
<ellipse cx="10.6026" cy="4.16676" rx="10.6026" ry="4.16676" transform="matrix(0.61615 -0.787628 0.827173 0.561947 176.141 214.646)" fill="#E13A4B"/>
<ellipse cx="7.56403" cy="4.12628" rx="7.56403" ry="4.12628" transform="matrix(-0.722842 -0.691014 0.740185 -0.672404 269.823 139.222)" fill="#E13A4B"/>
<ellipse cx="7.56403" cy="4.12628" rx="7.56403" ry="4.12628" transform="matrix(-0.722842 -0.691014 0.740185 -0.672404 280.059 147.171)" fill="#E13A4B"/>
<ellipse cx="7.81197" cy="3.98695" rx="7.81197" ry="3.98695" transform="matrix(-0.982166 -0.188014 0.215262 -0.976556 287.882 138.712)" fill="#E13A4B"/>
<ellipse cx="10.6223" cy="4.15934" rx="10.6223" ry="4.15934" transform="matrix(0.637453 0.770489 -0.812119 0.583491 177.779 61.2119)" fill="#E13A4B"/>
<ellipse cx="2.06948" cy="1.77393" rx="2.06948" ry="1.77393" transform="matrix(-0.548699 -0.83602 0.836086 -0.548599 421.439 148.18)" fill="#E13A4B"/>
<ellipse cx="2.9564" cy="2.06959" rx="2.9564" ry="2.06959" transform="matrix(-0.548699 -0.83602 0.836086 -0.548599 421.176 181.592)" fill="#E13A4B"/>
<ellipse cx="2.9564" cy="2.06959" rx="2.9564" ry="2.06959" transform="matrix(-0.548699 -0.83602 0.836086 -0.548599 423.401 191.446)" fill="#E13A4B"/>
<ellipse cx="2.06951" cy="1.77391" rx="2.06951" ry="1.77391" transform="matrix(0.795852 -0.605542 0.605606 0.795727 408.528 136.882)" fill="#E13A4B"/>
<ellipse cx="3.25209" cy="3.54782" rx="3.25209" ry="3.54782" transform="matrix(0.795852 -0.605542 0.605606 0.795727 409.674 131.553)" fill="#E13A4B"/>
<ellipse cx="3.25209" cy="3.54782" rx="3.25209" ry="3.54782" transform="matrix(0.795852 -0.605542 0.605606 0.795727 415.249 133.997)" fill="#E13A4B"/>
<ellipse cx="4.64113" cy="3.54235" rx="4.64113" ry="3.54235" transform="matrix(0.664153 0.747568 -0.747687 0.664084 383.96 121.251)" fill="#E13A4B"/>
<ellipse cx="4.64102" cy="3.54244" rx="4.64102" ry="3.54244" transform="matrix(-0.306294 0.951893 -0.951997 -0.306247 394.998 123.272)" fill="#E13A4B"/>
<ellipse cx="3.25746" cy="2.77158" rx="3.25746" ry="2.77158" transform="matrix(0.41393 0.910252 -0.910387 0.413883 389.681 128.853)" fill="#E13A4B"/>
<ellipse cx="6.65745" cy="330.11" rx="1.11546" ry="1.4393" fill="#E13A4B"/>
<ellipse cx="5.7014" cy="334.908" rx="1.11546" ry="1.4393" fill="#E13A4B"/>
<ellipse cx="1.82068" cy="1.17474" rx="1.82068" ry="1.17474" transform="matrix(0.478694 -0.877982 0.629119 0.777309 25.3015 360.174)" fill="#E13A4B"/>
<ellipse cx="2.32693" cy="1.83547" rx="2.32693" ry="1.83547" transform="matrix(0.478694 -0.877982 0.629119 0.777309 58.8901 307.812)" fill="#E13A4B"/>
<ellipse cx="3.4916" cy="1.49928" rx="3.4916" ry="1.49928" transform="matrix(0.0504038 0.998729 -0.993523 0.113627 65.4829 296.742)" fill="#E13A4B"/>
<ellipse cx="2.63878" cy="1.49928" rx="2.63878" ry="1.49928" transform="matrix(0.0504038 0.998729 -0.993523 0.113627 65.8875 304.683)" fill="#E13A4B"/>
<ellipse cx="2.35581" cy="1.8086" rx="2.35581" ry="1.8086" transform="matrix(0.452016 0.89201 -0.656716 0.754138 61.1482 298.266)" fill="#E13A4B"/>
<ellipse cx="3.4916" cy="1.49928" rx="3.4916" ry="1.49928" transform="matrix(0.0504038 0.998729 -0.993523 0.113627 38.3857 252.208)" fill="#E13A4B"/>
<ellipse cx="2.63878" cy="1.49928" rx="2.63878" ry="1.49928" transform="matrix(0.0504038 0.998729 -0.993523 0.113627 38.7905 260.148)" fill="#E13A4B"/>
<ellipse cx="2.35581" cy="1.8086" rx="2.35581" ry="1.8086" transform="matrix(0.452016 0.89201 -0.656716 0.754138 34.051 253.731)" fill="#E13A4B"/>
<path d="M-40.3511 282.433L-48 298.265V277.395L-35.8893 260.843C-35.8893 260.843 -35.5094 253.865 -34.1365 250.049C-32.7527 246.202 -31.7275 243.545 -29.0372 241.893C-26.0272 240.044 -20.751 243.092 -20.751 243.092L-14.6956 227.979V209.988L-13.8989 224.861L-11.0305 222.462L-3.06298 203.271L-9.11832 222.462L-0.035305 217.185C-0.035305 217.185 -12.9427 226.54 -13.8989 227.979C-14.6469 229.105 -13.8989 232.057 -13.8989 232.057L-17.2452 238.774C-17.2452 238.774 -14.855 234.883 -12.9427 235.176C-10.8847 235.491 -9.11832 240.693 -9.11832 240.693L-0.035305 233.976C-0.035305 233.976 0.602699 228.165 1.71756 224.861C2.86194 221.469 5.70134 217.185 5.70134 217.185L10.1632 203.271L29.9227 189.838C29.9227 189.838 12.4819 201.883 10.1632 205.67C8.54768 208.309 7.29485 219.104 7.29485 219.104C7.29485 219.104 4.1228 223.085 2.99236 226.54C1.81668 230.133 1.71756 236.615 1.71756 236.615L-6.40935 245.491L2.99236 256.525C2.99236 256.525 6.75739 257.412 9.04771 256.525C11.3952 255.617 14.4656 251.968 14.4656 251.968L25.1422 247.65L16.0592 254.366C16.0592 254.366 13.5224 258.309 11.438 259.644C9.07275 261.159 4.90458 260.843 4.90458 260.843C4.90458 260.843 8.032 269.141 11.438 271.638C17.7728 276.282 28.6479 263.482 28.6479 263.482L37.2529 254.366C37.2529 254.366 37.6096 251.58 38.209 250.049C39.1272 247.702 41.7147 245.491 41.7147 245.491L45.8578 237.815V232.057L49.8416 224.861L50.7977 226.54L46.6546 232.057V237.815L44.7424 243.092L61.3149 227.979L53.666 236.615H56.5343L62.4303 233.976L56.5343 238.774H52.2319C52.2319 238.774 41.7147 245.491 40.4399 250.049C40.0052 251.603 40.4399 254.366 40.4399 254.366C40.4399 254.366 37.7971 254.641 37.2529 256.525C36.9303 257.642 37.2529 259.644 37.2529 259.644L32.9504 263.482L43.1488 272.598L60.1994 264.921L45.8578 274.757L52.2319 279.554L64.0238 277.875L73.1069 267.56L78.9093 266.059C81.246 265.185 83.3053 264.921 83.3053 264.921L78.9093 266.059C77.1427 266.72 75.2174 267.73 73.9036 269.239C71.7559 271.707 69.6011 277.395 69.6011 277.395L75.9752 273.797L87.1298 277.395L108.005 286.751H113.263L119 290.109L118.363 292.268L112.467 288.67L108.005 289.629L86.4924 279.554L89.8387 285.551L94.7786 295.386L94.1412 295.866L88.0859 285.551L84.8988 279.554C84.8988 279.554 79.2178 274.882 75.4971 275.956C73.3372 276.579 70.3979 279.554 70.3979 279.554C70.3979 279.554 58.3721 284.439 50.7977 282.433C42.4648 280.226 31.5162 267.56 31.5162 267.56C31.5162 267.56 17.3154 279.998 9.04771 274.757C3.49162 271.234 -1.78817 258.205 -1.78817 258.205L-7.68416 248.849C-7.68416 248.849 -12.9427 247.65 -17.2452 245.491C-20.5386 243.838 -25.8502 248.849 -25.8502 248.849C-25.8502 248.849 -29.3915 250.189 -30.312 252.927C-31.0989 255.268 -30.312 259.644 -30.312 259.644L-37.0048 275.956H-24.5754L-29.0372 277.875L-30.312 279.554L-40.3511 282.433Z" fill="#310709"/>
<path d="M-40.3511 282.433L-48 298.265V277.395L-35.8893 260.843C-35.8893 260.843 -35.5094 253.865 -34.1365 250.049C-32.7527 246.202 -31.7275 243.545 -29.0372 241.893C-26.0272 240.044 -20.751 243.092 -20.751 243.092L-14.6956 227.979V209.988L-13.8989 224.861L-11.0305 222.462L-3.06298 203.271L-9.11832 222.462L-0.035305 217.185C-0.035305 217.185 -12.9427 226.54 -13.8989 227.979C-14.6469 229.105 -13.8989 232.057 -13.8989 232.057L-17.2452 238.774C-17.2452 238.774 -14.855 234.883 -12.9427 235.176C-10.8847 235.491 -9.11832 240.693 -9.11832 240.693L-0.035305 233.976C-0.035305 233.976 0.602699 228.165 1.71756 224.861C2.86194 221.469 5.70134 217.185 5.70134 217.185L10.1632 203.271L29.9227 189.838C29.9227 189.838 12.4819 201.883 10.1632 205.67C8.54768 208.309 7.29485 219.104 7.29485 219.104C7.29485 219.104 4.1228 223.085 2.99236 226.54C1.81668 230.133 1.71756 236.615 1.71756 236.615L-6.40935 245.491L2.99236 256.525C2.99236 256.525 6.75739 257.412 9.04771 256.525C11.3952 255.617 14.4656 251.968 14.4656 251.968L25.1422 247.65L16.0592 254.366C16.0592 254.366 13.5224 258.309 11.438 259.644C9.07275 261.159 4.90458 260.843 4.90458 260.843C4.90458 260.843 8.032 269.141 11.438 271.638C17.7728 276.282 28.6479 263.482 28.6479 263.482L37.2529 254.366C37.2529 254.366 37.6096 251.58 38.209 250.049C39.1272 247.702 41.7147 245.491 41.7147 245.491L45.8578 237.815V232.057L49.8416 224.861L50.7977 226.54L46.6546 232.057V237.815L44.7424 243.092L61.3149 227.979L53.666 236.615H56.5343L62.4303 233.976L56.5343 238.774H52.2319C52.2319 238.774 41.7147 245.491 40.4399 250.049C40.0052 251.603 40.4399 254.366 40.4399 254.366C40.4399 254.366 37.7971 254.641 37.2529 256.525C36.9303 257.642 37.2529 259.644 37.2529 259.644L32.9504 263.482L43.1488 272.598L60.1994 264.921L45.8578 274.757L52.2319 279.554L64.0238 277.875L73.1069 267.56L78.9093 266.059C81.246 265.185 83.3053 264.921 83.3053 264.921L78.9093 266.059C77.1427 266.72 75.2174 267.73 73.9036 269.239C71.7559 271.707 69.6011 277.395 69.6011 277.395L75.9752 273.797L87.1298 277.395L108.005 286.751H113.263L119 290.109L118.363 292.268L112.467 288.67L108.005 289.629L86.4924 279.554L89.8387 285.551L94.7786 295.386L94.1412 295.866L88.0859 285.551L84.8988 279.554C84.8988 279.554 79.2178 274.882 75.4971 275.956C73.3372 276.579 70.3979 279.554 70.3979 279.554C70.3979 279.554 58.3721 284.439 50.7977 282.433C42.4648 280.226 31.5162 267.56 31.5162 267.56C31.5162 267.56 17.3154 279.998 9.04771 274.757C3.49162 271.234 -1.78817 258.205 -1.78817 258.205L-7.68416 248.849C-7.68416 248.849 -12.9427 247.65 -17.2452 245.491C-20.5386 243.838 -25.8502 248.849 -25.8502 248.849C-25.8502 248.849 -29.3915 250.189 -30.312 252.927C-31.0989 255.268 -30.312 259.644 -30.312 259.644L-37.0048 275.956H-24.5754L-29.0372 277.875L-30.312 279.554L-40.3511 282.433Z" fill="black" fill-opacity="0.2"/>
<ellipse cx="28.0107" cy="189.838" rx="1.75286" ry="3.83813" fill="#E13A4B"/>
<ellipse cx="2.63848" cy="2.55014" rx="2.63848" ry="2.55014" transform="matrix(0.0119141 0.999929 -0.999636 0.0269912 33.9058 189.838)" fill="#E13A4B"/>
<ellipse cx="1.77694" cy="3.81463" rx="1.77694" ry="3.81463" transform="matrix(-0.975611 0.219505 -0.098798 -0.995107 30.7974 200.309)" fill="#E13A4B"/>
<ellipse cx="3.38136" cy="3.61379" rx="3.38136" ry="3.61379" transform="matrix(-0.316967 -0.948437 0.79718 -0.603742 23.0249 199.854)" fill="#E13A4B"/>
<ellipse cx="5.86075" cy="215.266" rx="1.27481" ry="4.3179" fill="#E13A4B"/>
<ellipse cx="1.85098" cy="3.08652" rx="1.85098" ry="3.08652" transform="matrix(0.243242 0.969966 -0.869416 0.494081 11.5464 215.266)" fill="#E13A4B"/>
<ellipse cx="1.8783" cy="4.51365" rx="1.8783" ry="4.51365" transform="matrix(0.661937 0.74956 -0.446992 0.894538 8.98926 210.601)" fill="#E13A4B"/>
<path d="M74.7002 276.675L76.1923 278.668" stroke="#E13A4B" stroke-width="10" stroke-linecap="round"/>
<path d="M70.012 272.837L69.6012 274.276" stroke="#E13A4B" stroke-width="10" stroke-linecap="round"/>
<path d="M80.407 267.079L79.4808 269.478" stroke="#E13A4B" stroke-width="10" stroke-linecap="round"/>
<path d="M74.3816 264.681L74.1483 266.089" stroke="#E13A4B" stroke-width="10" stroke-linecap="round"/>
<ellipse cx="40.9181" cy="253.168" rx="1.91221" ry="2.8786" fill="#E13A4B"/>
<ellipse cx="45.38" cy="245.011" rx="1.91221" ry="2.8786" fill="#E13A4B"/>
<path d="M45.5393 241.174C45.5393 242.763 42.9636 244.052 41.5555 244.052C40.1474 244.052 39.0059 242.763 39.0059 241.174C39.0059 239.584 40.1474 238.295 41.5555 238.295C42.9636 238.295 45.5393 239.584 45.5393 241.174Z" fill="#E13A4B"/>
<path d="M44.8253 241.254C44.6035 239.7 46.9421 237.626 48.3188 237.181C49.6955 236.736 50.9913 237.635 51.2131 239.189C51.4348 240.744 50.4984 242.365 49.1217 242.81C47.745 243.255 45.047 242.809 44.8253 241.254Z" fill="#E13A4B"/>
<path d="M45.0525 240.684C44.0013 240.531 43.3961 236.548 43.5312 234.438C43.6662 232.328 44.6279 230.741 45.6791 230.894C46.7303 231.046 47.473 232.88 47.338 234.99C47.2029 237.1 46.1037 240.836 45.0525 240.684Z" fill="#E13A4B"/>
<ellipse cx="1.91581" cy="2.87933" rx="1.91581" ry="2.87933" transform="matrix(0.0518621 0.998654 -0.993146 0.116879 4.31885 252.208)" fill="#E13A4B"/>
<ellipse cx="1.4131" cy="4.0942" rx="1.4131" ry="4.0942" transform="matrix(-0.8166 0.577204 -0.297763 -0.95464 2.00171 262.991)" fill="#E13A4B"/>
<ellipse cx="2.14509" cy="3.92144" rx="2.14509" ry="3.92144" transform="matrix(-0.389493 0.921029 -0.721989 -0.691905 4.89233 258.789)" fill="#E13A4B"/>
<ellipse cx="23.708" cy="324.892" rx="1.59351" ry="1.67918" fill="#E13A4B"/>
<path d="M31.1975 319.615C31.1975 320.542 29.3686 321.294 28.4885 321.294C27.6085 321.294 26.895 320.542 26.895 319.615C26.895 318.687 27.6085 317.936 28.4885 317.936C29.3686 317.936 31.1975 318.687 31.1975 319.615Z" fill="#E13A4B"/>
<ellipse cx="11.2786" cy="297.306" rx="2.54962" ry="2.39883" fill="#E13A4B"/>
<ellipse cx="19.565" cy="232.538" rx="4.14313" ry="2.39883" fill="#E13A4B"/>
<ellipse cx="5.59977" cy="1.91181" rx="5.59977" ry="1.91181" transform="matrix(0.435852 -0.900019 0.673534 0.739156 49.8416 273.802)" fill="#E13A4B"/>
<ellipse cx="5.59977" cy="1.91181" rx="5.59977" ry="1.91181" transform="matrix(0.435852 -0.900019 0.673534 0.739156 18.9275 315.541)" fill="#E13A4B"/>
<ellipse cx="3.7581" cy="2.02629" rx="3.7581" ry="2.02629" transform="matrix(-0.543547 -0.839379 0.563127 -0.82637 53.927 270.022)" fill="#E13A4B"/>
<ellipse cx="3.7581" cy="2.02629" rx="3.7581" ry="2.02629" transform="matrix(-0.543547 -0.839379 0.563127 -0.82637 57.7515 274.819)" fill="#E13A4B"/>
<ellipse cx="3.00044" cy="2.37154" rx="3.00044" ry="2.37154" transform="matrix(-0.955365 -0.295428 0.135203 -0.990818 60.6738 269.715)" fill="#E13A4B"/>
<ellipse cx="5.5495" cy="1.93337" rx="5.5495" ry="1.93337" transform="matrix(0.455849 0.890057 -0.652737 0.757584 19.5393 222.942)" fill="#E13A4B"/>
<ellipse cx="1.12705" cy="0.80746" rx="1.12705" ry="0.80746" transform="matrix(-0.376412 -0.926453 0.68624 -0.727375 110.571 275.429)" fill="#E13A4B"/>
<ellipse cx="1.61007" cy="0.942037" rx="1.61007" ry="0.942037" transform="matrix(-0.376412 -0.926453 0.68624 -0.727375 110.473 295.593)" fill="#E13A4B"/>
<ellipse cx="1.61007" cy="0.942037" rx="1.61007" ry="0.942037" transform="matrix(-0.376412 -0.926453 0.68624 -0.727375 111.304 301.54)" fill="#E13A4B"/>
<ellipse cx="1.08324" cy="0.850373" rx="1.08324" ry="0.850373" transform="matrix(0.568048 -0.698192 0.471978 1.00178 105.748 268.61)" fill="#E13A4B"/>
<ellipse cx="1.70223" cy="1.70075" rx="1.70223" ry="1.70075" transform="matrix(0.568048 -0.698192 0.471978 1.00178 106.176 265.395)" fill="#E13A4B"/>
<ellipse cx="1.70223" cy="1.70075" rx="1.70223" ry="1.70075" transform="matrix(0.568048 -0.698192 0.471978 1.00178 108.259 266.869)" fill="#E13A4B"/>
<ellipse cx="2.21734" cy="1.8594" rx="2.21734" ry="1.8594" transform="matrix(0.519359 0.94434 -0.532167 0.763537 96.5691 259.177)" fill="#E13A4B"/>
<ellipse cx="2.41473" cy="1.71018" rx="2.41473" ry="1.71018" transform="matrix(-0.219934 1.10413 -0.736726 -0.382843 100.693 260.397)" fill="#E13A4B"/>
<ellipse cx="1.58628" cy="1.43116" rx="1.58628" ry="1.43116" transform="matrix(0.317567 1.1281 -0.658678 0.483729 98.7063 263.765)" fill="#E13A4B"/>
</svg>
