<svg width="296" height="868" viewBox="0 0 296 868" fill="none" xmlns="http://www.w3.org/2000/svg">
<ellipse cx="279.147" cy="713.725" rx="1.11546" ry="1.4393" transform="rotate(-156.065 279.147 713.725)" fill="#E13A4B"/>
<ellipse cx="281.967" cy="709.728" rx="1.11546" ry="1.4393" transform="rotate(-156.065 281.967 709.728)" fill="#E13A4B"/>
<ellipse cx="1.82068" cy="1.17474" rx="1.82068" ry="1.17474" transform="matrix(-0.793728 0.608273 -0.259662 -0.9657 274.303 678.683)" fill="#E13A4B"/>
<ellipse cx="2.32693" cy="1.83547" rx="2.32693" ry="1.83547" transform="matrix(-0.793728 0.608273 -0.259662 -0.9657 222.36 712.915)" fill="#E13A4B"/>
<ellipse cx="3.4916" cy="1.49928" rx="3.4916" ry="1.49928" transform="matrix(0.359117 -0.933293 0.954185 0.299218 211.843 720.358)" fill="#E13A4B"/>
<ellipse cx="2.63878" cy="1.49928" rx="2.63878" ry="1.49928" transform="matrix(0.359117 -0.933293 0.954185 0.299218 214.694 712.936)" fill="#E13A4B"/>
<ellipse cx="2.35581" cy="1.8086" rx="2.35581" ry="1.8086" transform="matrix(-0.0512547 -0.998686 0.906197 -0.422855 216.423 720.724)" fill="#E13A4B"/>
<ellipse cx="3.4916" cy="1.49928" rx="3.4916" ry="1.49928" transform="matrix(0.359117 -0.933293 0.954185 0.299218 218.542 772.056)" fill="#E13A4B"/>
<ellipse cx="2.63878" cy="1.49928" rx="2.63878" ry="1.49928" transform="matrix(0.359117 -0.933293 0.954185 0.299218 221.394 764.633)" fill="#E13A4B"/>
<ellipse cx="2.35581" cy="1.8086" rx="2.35581" ry="1.8086" transform="matrix(-0.0512547 -0.998686 0.906197 -0.422855 223.123 772.421)" fill="#E13A4B"/>
<path d="M302.771 776.373L316.185 765.006L307.718 784.081L289.934 794.296C289.934 794.296 286.755 800.521 283.952 803.452C281.127 806.405 279.112 808.419 275.982 808.837C272.481 809.306 268.895 804.379 268.895 804.379L257.229 815.736L249.93 832.18L255.236 818.263L251.641 819.292L236.573 833.6L249.893 818.516L239.45 819.654C239.45 819.654 255.043 816.34 256.501 815.413C257.642 814.687 258.156 811.685 258.156 811.685L263.939 806.904C263.939 806.904 260.176 809.491 258.547 808.447C256.794 807.324 257.29 801.853 257.29 801.853L246.263 804.307C246.263 804.307 243.322 809.359 240.963 811.927C238.541 814.563 234.207 817.327 234.207 817.327L224.484 828.234L200.974 832.495C200.974 832.495 221.802 828.562 225.458 826.041C228.005 824.285 233.529 814.927 233.529 814.927C233.529 814.927 238.044 812.574 240.479 809.875C243.011 807.068 245.731 801.184 245.731 801.184L256.76 796.368L252.644 782.468C252.644 782.468 249.562 780.131 247.109 780.012C244.595 779.89 240.308 781.98 240.308 781.98L228.798 781.595L239.825 779.14C239.825 779.14 243.743 776.566 246.19 776.192C248.966 775.767 252.648 777.746 252.648 777.746C252.648 777.746 253.156 768.893 251.056 765.229C247.15 758.414 232.017 765.702 232.017 765.702L220.454 770.542C220.454 770.542 218.997 772.944 217.828 774.101C216.037 775.873 212.775 776.844 212.775 776.844L205.873 782.18L203.538 787.442L196.977 792.403L196.784 790.481L202.81 787.119L205.145 781.856L209.034 777.809L187.755 784.898L198.25 780.108L195.628 778.944L189.169 778.964L196.504 776.971L200.437 778.717C200.437 778.717 212.775 776.844 215.789 773.196C216.817 771.952 217.541 769.249 217.541 769.249C217.541 769.249 220.068 770.07 221.329 768.569C222.077 767.679 222.595 765.719 222.595 765.719L228.084 763.956L222.461 751.487L203.762 751.585L220.861 748.414L216.981 741.443L205.522 738.194L193.036 743.937L187.123 742.955C184.633 742.806 182.644 742.211 182.644 742.211L187.123 742.955C189.006 743.068 191.175 742.926 192.989 742.079C195.953 740.695 200.23 736.37 200.23 736.37L192.944 737.073L184.209 729.259L168.924 712.239L164.118 710.105L160.237 704.708L161.696 702.994L165.625 708.674L170.092 709.608L185.667 727.544L185.042 720.705L184.517 709.711L185.294 709.531L186.644 721.416L187.124 728.19C187.124 728.19 190.421 734.765 194.257 735.293C196.484 735.6 200.378 734.073 200.378 734.073C200.378 734.073 213.351 734.488 219.46 739.394C226.181 744.792 231.05 760.811 231.05 760.811C231.05 760.811 249.075 755.204 254.506 763.348C258.155 768.822 257.694 782.873 257.694 782.873L259.288 793.816C259.288 793.816 263.608 797.046 266.664 800.765C269.004 803.611 275.892 801.186 275.892 801.186C275.892 801.186 279.672 801.398 281.624 799.269C283.293 797.449 284.349 793.13 284.349 793.13L297.084 780.936L285.724 775.893L290.581 775.949L292.427 774.932L302.771 776.373Z" fill="#310709"/>
<path d="M302.771 776.373L316.185 765.006L307.718 784.081L289.934 794.296C289.934 794.296 286.755 800.521 283.952 803.452C281.127 806.405 279.112 808.419 275.982 808.837C272.481 809.306 268.895 804.379 268.895 804.379L257.229 815.736L249.93 832.18L255.236 818.263L251.641 819.292L236.573 833.6L249.893 818.516L239.45 819.654C239.45 819.654 255.043 816.34 256.501 815.413C257.642 814.687 258.156 811.685 258.156 811.685L263.939 806.904C263.939 806.904 260.176 809.491 258.547 808.447C256.794 807.324 257.29 801.853 257.29 801.853L246.263 804.307C246.263 804.307 243.322 809.359 240.963 811.927C238.541 814.563 234.207 817.327 234.207 817.327L224.484 828.234L200.974 832.495C200.974 832.495 221.802 828.562 225.458 826.041C228.005 824.285 233.529 814.927 233.529 814.927C233.529 814.927 238.044 812.574 240.479 809.875C243.011 807.068 245.731 801.184 245.731 801.184L256.76 796.368L252.644 782.468C252.644 782.468 249.562 780.131 247.109 780.012C244.595 779.89 240.308 781.98 240.308 781.98L228.798 781.595L239.825 779.14C239.825 779.14 243.743 776.566 246.19 776.192C248.966 775.767 252.648 777.746 252.648 777.746C252.648 777.746 253.156 768.893 251.056 765.229C247.15 758.414 232.017 765.702 232.017 765.702L220.454 770.542C220.454 770.542 218.997 772.944 217.828 774.101C216.037 775.873 212.775 776.844 212.775 776.844L205.873 782.18L203.538 787.442L196.977 792.403L196.784 790.481L202.81 787.119L205.145 781.856L209.034 777.809L187.755 784.898L198.25 780.108L195.628 778.944L189.169 778.964L196.504 776.971L200.437 778.717C200.437 778.717 212.775 776.844 215.789 773.196C216.817 771.952 217.541 769.249 217.541 769.249C217.541 769.249 220.068 770.07 221.329 768.569C222.077 767.679 222.595 765.719 222.595 765.719L228.084 763.956L222.461 751.487L203.762 751.585L220.861 748.414L216.981 741.443L205.522 738.194L193.036 743.937L187.123 742.955C184.633 742.806 182.644 742.211 182.644 742.211L187.123 742.955C189.006 743.068 191.175 742.926 192.989 742.079C195.953 740.695 200.23 736.37 200.23 736.37L192.944 737.073L184.209 729.259L168.924 712.239L164.118 710.105L160.237 704.708L161.696 702.994L165.625 708.674L170.092 709.608L185.667 727.544L185.042 720.705L184.517 709.711L185.294 709.531L186.644 721.416L187.124 728.19C187.124 728.19 190.421 734.765 194.257 735.293C196.484 735.6 200.378 734.073 200.378 734.073C200.378 734.073 213.351 734.488 219.46 739.394C226.181 744.792 231.05 760.811 231.05 760.811C231.05 760.811 249.075 755.204 254.506 763.348C258.155 768.822 257.694 782.873 257.694 782.873L259.288 793.816C259.288 793.816 263.608 797.046 266.664 800.765C269.004 803.611 275.892 801.186 275.892 801.186C275.892 801.186 279.672 801.398 281.624 799.269C283.293 797.449 284.349 793.13 284.349 793.13L297.084 780.936L285.724 775.893L290.581 775.949L292.427 774.932L302.771 776.373Z" fill="black" fill-opacity="0.2"/>
<ellipse cx="202.722" cy="833.271" rx="1.75286" ry="3.83813" transform="rotate(-156.065 202.722 833.271)" fill="#E13A4B"/>
<ellipse cx="2.63848" cy="2.55014" rx="2.63848" ry="2.55014" transform="matrix(0.394784 -0.918774 0.924623 0.380884 197.333 830.88)" fill="#E13A4B"/>
<ellipse cx="1.77694" cy="3.81463" rx="1.77694" ry="3.81463" transform="matrix(0.980768 0.195179 -0.313415 0.949616 204.422 822.57)" fill="#E13A4B"/>
<ellipse cx="3.38136" cy="3.61379" rx="3.38136" ry="3.61379" transform="matrix(-0.0950734 0.99547 -0.973566 0.228405 211.342 826.139)" fill="#E13A4B"/>
<ellipse cx="233.283" cy="819.016" rx="1.27481" ry="4.3179" transform="rotate(-156.065 233.283 819.016)" fill="#E13A4B"/>
<ellipse cx="1.85098" cy="3.08652" rx="1.85098" ry="3.08652" transform="matrix(0.171193 -0.985238 0.9951 -0.0988694 228.086 816.71)" fill="#E13A4B"/>
<ellipse cx="1.8783" cy="4.51365" rx="1.8783" ry="4.51365" transform="matrix(-0.300916 -0.953651 0.771469 -0.636267 228.53 822.012)" fill="#E13A4B"/>
<path d="M291.993 771.589L291.438 769.161" stroke="#E13A4B" stroke-width="15" stroke-linecap="round"/>
<path d="M294.721 776.999L295.681 775.85" stroke="#E13A4B" stroke-width="15" stroke-linecap="round"/>
<path d="M282.884 778.044L286.567 775.958" stroke="#E13A4B" stroke-width="15" stroke-linecap="round"/>
<path d="M287.418 782.681L288.203 781.488" stroke="#E13A4B" stroke-width="15" stroke-linecap="round"/>
<path d="M258.352 809.673L257.797 807.245" stroke="#E13A4B" stroke-width="12" stroke-linecap="round"/>
<path d="M261.08 815.083L262.039 813.934" stroke="#E13A4B" stroke-width="12" stroke-linecap="round"/>
<path d="M249.243 816.128L252.925 814.042" stroke="#E13A4B" stroke-width="12" stroke-linecap="round"/>
<path d="M253.776 820.765L254.561 819.572" stroke="#E13A4B" stroke-width="12" stroke-linecap="round"/>
<path d="M195.277 734.959L194.722 732.531" stroke="#E13A4B" stroke-width="10" stroke-linecap="round"/>
<path d="M198.005 740.369L198.965 739.22" stroke="#E13A4B" stroke-width="10" stroke-linecap="round"/>
<path d="M186.168 741.414L187.988 739.597" stroke="#E13A4B" stroke-width="10" stroke-linecap="round"/>
<path d="M190.702 746.051L191.487 744.858" stroke="#E13A4B" stroke-width="10" stroke-linecap="round"/>
<ellipse cx="216.617" cy="770.151" rx="1.91221" ry="2.8786" transform="rotate(-156.065 216.617 770.151)" fill="#E13A4B"/>
<ellipse cx="209.23" cy="775.795" rx="1.91221" ry="2.8786" transform="rotate(-156.065 209.23 775.795)" fill="#E13A4B"/>
<path d="M207.527 779.239C208.172 777.786 211.049 777.653 212.336 778.224C213.623 778.795 214.144 780.436 213.499 781.889C212.854 783.343 211.288 784.057 210.001 783.486C208.714 782.915 206.882 780.692 207.527 779.239Z" fill="#E13A4B"/>
<path d="M208.213 779.454C207.785 780.965 204.806 781.912 203.367 781.76C201.928 781.608 201.109 780.261 201.537 778.75C201.965 777.239 203.478 776.138 204.917 776.289C206.356 776.441 208.641 777.944 208.213 779.454Z" fill="#E13A4B"/>
<path d="M207.774 779.883C208.673 780.449 207.61 784.335 206.63 786.209C205.651 788.082 204.128 789.143 203.229 788.577C202.33 788.011 202.396 786.033 203.375 784.16C204.354 782.286 206.875 779.317 207.774 779.883Z" fill="#E13A4B"/>
<ellipse cx="279.325" cy="818.981" rx="1.91221" ry="2.8786" transform="rotate(-156.065 279.325 818.981)" fill="#E13A4B"/>
<ellipse cx="271.938" cy="824.626" rx="1.91221" ry="2.8786" transform="rotate(-156.065 271.938 824.626)" fill="#E13A4B"/>
<path d="M270.235 828.069C270.88 826.616 273.757 826.483 275.044 827.054C276.331 827.625 276.852 829.266 276.207 830.72C275.562 832.173 273.996 832.887 272.709 832.316C271.422 831.745 269.59 829.522 270.235 828.069Z" fill="#E13A4B"/>
<path d="M270.921 828.284C270.493 829.794 267.514 830.741 266.076 830.59C264.637 830.438 263.817 829.09 264.245 827.58C264.673 826.069 266.186 824.967 267.625 825.119C269.064 825.271 271.349 826.773 270.921 828.284Z" fill="#E13A4B"/>
<path d="M270.482 828.714C271.381 829.279 270.318 833.166 269.338 835.039C268.359 836.913 266.836 837.973 265.937 837.407C265.038 836.842 265.104 834.864 266.083 832.99C267.063 831.116 269.583 828.148 270.482 828.714Z" fill="#E13A4B"/>
<ellipse cx="1.91581" cy="2.87933" rx="1.91581" ry="2.87933" transform="matrix(0.357754 -0.933816 0.955159 0.296093 249.68 785.876)" fill="#E13A4B"/>
<ellipse cx="1.4131" cy="4.0942" rx="1.4131" ry="4.0942" transform="matrix(0.98055 -0.196271 -0.115143 0.993349 256.172 776.961)" fill="#E13A4B"/>
<ellipse cx="2.14509" cy="3.92144" rx="2.14509" ry="3.92144" transform="matrix(0.729662 -0.683807 0.379194 0.925317 251.826 779.628)" fill="#E13A4B"/>
<ellipse cx="261.446" cy="711.576" rx="1.59351" ry="1.67918" transform="rotate(-156.065 261.446 711.576)" fill="#E13A4B"/>
<ellipse cx="286.391" cy="733.147" rx="1.59351" ry="1.67918" transform="rotate(-156.065 286.391 733.147)" fill="#E13A4B"/>
<ellipse cx="289.884" cy="737.847" rx="1.59351" ry="1.67918" transform="rotate(-156.065 289.884 737.847)" fill="#E13A4B"/>
<path d="M252.46 713.362C252.836 712.514 254.813 712.569 255.617 712.926C256.421 713.283 256.768 714.26 256.392 715.107C256.016 715.955 255.059 716.353 254.254 715.996C253.45 715.639 252.083 714.209 252.46 713.362Z" fill="#E13A4B"/>
<ellipse cx="261.615" cy="741.833" rx="2.54962" ry="2.39883" transform="rotate(-156.065 261.615 741.833)" fill="#E13A4B"/>
<ellipse cx="227.764" cy="797.67" rx="4.14313" ry="2.39883" transform="rotate(-156.065 227.764 797.67)" fill="#E13A4B"/>
<ellipse cx="5.59977" cy="1.91181" rx="5.59977" ry="1.91181" transform="matrix(-0.76351 0.645796 -0.315737 -0.948847 216.832 747.671)" fill="#E13A4B"/>
<ellipse cx="5.59977" cy="1.91181" rx="5.59977" ry="1.91181" transform="matrix(-0.76351 0.645796 -0.315737 -0.948847 262.022 722.062)" fill="#E13A4B"/>
<ellipse cx="3.7581" cy="2.02629" rx="3.7581" ry="2.02629" transform="matrix(0.156267 0.987715 -0.849962 0.526845 211.565 749.468)" fill="#E13A4B"/>
<ellipse cx="3.7581" cy="2.02629" rx="3.7581" ry="2.02629" transform="matrix(0.156267 0.987715 -0.849962 0.526845 210.016 743.532)" fill="#E13A4B"/>
<ellipse cx="3.00044" cy="2.37154" rx="3.00044" ry="2.37154" transform="matrix(0.753353 0.657616 -0.525553 0.850761 205.273 747.012)" fill="#E13A4B"/>
<ellipse cx="5.5495" cy="1.93337" rx="5.5495" ry="1.93337" transform="matrix(-0.0555507 -0.998456 0.903959 -0.427619 223.895 806.451)" fill="#E13A4B"/>
<ellipse cx="1.12705" cy="0.80746" rx="1.12705" ry="0.80746" transform="matrix(-0.0318214 0.999494 -0.922325 0.386415 161.985 721.546)" fill="#E13A4B"/>
<ellipse cx="1.61007" cy="0.942037" rx="1.61007" ry="0.942037" transform="matrix(-0.0318214 0.999494 -0.922325 0.386415 170.256 703.155)" fill="#E13A4B"/>
<ellipse cx="1.61007" cy="0.942037" rx="1.61007" ry="0.942037" transform="matrix(-0.0318214 0.999494 -0.922325 0.386415 171.909 697.382)" fill="#E13A4B"/>
<ellipse cx="1.08324" cy="0.850373" rx="1.08324" ry="0.850373" transform="matrix(-0.802457 0.407693 -0.0249648 -1.10712 163.628 729.734)" fill="#E13A4B"/>
<ellipse cx="1.70223" cy="1.70075" rx="1.70223" ry="1.70075" transform="matrix(-0.802457 0.407693 -0.0249648 -1.10712 161.932 732.5)" fill="#E13A4B"/>
<ellipse cx="1.70223" cy="1.70075" rx="1.70223" ry="1.70075" transform="matrix(-0.802457 0.407693 -0.0249648 -1.10712 160.626 730.307)" fill="#E13A4B"/>
<ellipse cx="2.21734" cy="1.8594" rx="2.21734" ry="1.8594" transform="matrix(-0.0915765 -1.07384 0.796172 -0.481975 168.19 742.081)" fill="#E13A4B"/>
<ellipse cx="2.41473" cy="1.71018" rx="2.41473" ry="1.71018" transform="matrix(0.648968 -0.919953 0.518052 0.648811 164.916 739.292)" fill="#E13A4B"/>
<ellipse cx="1.58628" cy="1.43116" rx="1.58628" ry="1.43116" transform="matrix(0.167415 -1.15993 0.798285 -0.174904 168.098 737.02)" fill="#E13A4B"/>
<ellipse cx="243.427" cy="111.094" rx="2.00235" ry="1.4393" transform="rotate(-156.065 243.427 111.094)" fill="#E13A4B"/>
<ellipse cx="246.942" cy="107.405" rx="2.00235" ry="1.4393" transform="rotate(-156.065 246.942 107.405)" fill="#E13A4B"/>
<ellipse cx="2.23673" cy="1.61054" rx="2.23673" ry="1.61054" transform="matrix(-0.929255 0.369439 -0.522877 -0.852408 225.034 70.0376)" fill="#E13A4B"/>
<ellipse cx="2.85866" cy="2.51639" rx="2.85866" ry="2.51639" transform="matrix(-0.929255 0.369439 -0.522877 -0.852408 148.681 93.4351)" fill="#E13A4B"/>
<ellipse cx="3.50145" cy="2.67934" rx="3.50145" ry="2.67934" transform="matrix(0.321581 -0.946882 0.937952 0.346766 133.373 98.7515)" fill="#E13A4B"/>
<ellipse cx="2.64622" cy="2.67934" rx="2.64622" ry="2.67934" transform="matrix(0.321581 -0.946882 0.937952 0.346766 135.931 91.1992)" fill="#E13A4B"/>
<ellipse cx="2.84074" cy="2.53104" rx="2.84074" ry="2.53104" transform="matrix(-0.314918 -0.949119 0.988566 -0.150787 141.103 100.516)" fill="#E13A4B"/>
<ellipse cx="3.50145" cy="2.67934" rx="3.50145" ry="2.67934" transform="matrix(0.321581 -0.946882 0.937952 0.346766 159.764 159.19)" fill="#E13A4B"/>
<ellipse cx="2.64622" cy="2.67934" rx="2.64622" ry="2.67934" transform="matrix(0.321581 -0.946882 0.937952 0.346766 162.321 151.637)" fill="#E13A4B"/>
<ellipse cx="2.84074" cy="2.53104" rx="2.84074" ry="2.53104" transform="matrix(-0.314918 -0.949119 0.988566 -0.150787 167.494 160.954)" fill="#E13A4B"/>
<path d="M301.212 188.906L320.185 180.006L311.718 199.081L285.133 205.39C285.133 205.39 281.678 211.492 277.877 213.98C274.046 216.487 271.286 218.169 266.202 217.721C260.513 217.218 253.093 210.59 253.093 210.59L237.027 219.993L229.727 236.437L234.454 222.263L228.775 222.366L207.917 234.104L225.637 220.974L208.594 219.183C208.594 219.183 233.567 220.032 235.719 219.413C237.404 218.928 237.374 215.685 237.374 215.685L245.589 211.983C245.589 211.983 240.089 213.799 237.07 212.139C233.822 210.352 233.034 204.31 233.034 204.31L215.406 203.835C215.406 203.835 212.002 208.682 208.832 210.89C205.578 213.156 199.181 215.005 199.181 215.005L186.216 224.472L148.346 222.36C148.346 222.36 181.848 224.052 187.189 222.279C190.91 221.044 197.345 212.09 197.345 212.09C197.345 212.09 204.165 210.761 207.422 208.427C210.808 205.999 213.601 200.146 213.601 200.146L230.536 197.953L219.587 181.02C219.587 181.02 213.769 177.468 209.652 176.61C205.431 175.73 198.913 176.83 198.913 176.83L179.644 173.001L197.272 173.477C197.272 173.477 203.033 171.721 206.995 172.019C211.49 172.357 218.201 175.681 218.201 175.681C218.201 175.681 216.436 165.819 211.861 161.056C203.351 152.198 180.315 155.977 180.315 155.977L162.499 158.042C162.499 158.042 160.783 160.329 159.178 161.292C156.72 162.768 151.577 162.905 151.577 162.905L141.665 166.904L139.33 172.166L129.874 175.842L128.986 173.611L138.022 171.586L140.358 166.324L145.637 162.893L112.314 164.636L128.368 162.314L123.661 160.225L112.917 158.343L124.537 158.252L131.597 161.385C131.597 161.385 151.577 162.905 155.518 159.668C156.862 158.564 157.27 155.721 157.27 155.721C157.27 155.721 161.717 157.395 163.375 156.069C164.357 155.283 164.64 153.219 164.64 153.219L173.256 152.844L160.222 137.085L129.132 131.684L156.653 133.139L148.141 124.112L128.112 117.059L109.025 119.872L98.8956 117.018C94.7071 116.115 91.2216 114.856 91.2216 114.856L98.8956 117.018C102.062 117.701 105.631 118.18 108.399 117.757C112.924 117.065 118.767 113.435 118.767 113.435L106.849 112.082L90.0074 100.67L59.5529 76.9161L50.925 73.0864L42.8752 65.839L44.7969 64.3299L53.0108 71.9127L60.7207 74.2851L91.9291 99.1606L88.8717 91.2422L84.7569 78.6552L85.9973 78.6809L91.7477 92.5188L94.5436 100.321C94.5436 100.321 101.969 108.729 108.509 110.457C112.306 111.46 118.336 110.882 118.336 110.882C118.336 110.882 140.048 115.175 151.662 122.525C164.439 130.611 177.264 150.161 177.264 150.161C177.264 150.161 205.609 149.135 217.048 159.947C224.735 167.212 228.111 182.967 228.111 182.967L233.99 195.811C233.99 195.811 242.131 200.737 248.314 205.844C253.047 209.753 263.795 209.041 263.795 209.041C263.795 209.041 270.149 210.395 272.77 208.563C275.011 206.997 275.495 202.424 275.495 202.424L293.094 192.389L272.701 183.337L280.8 184.832L283.573 184.226L301.212 188.906Z" fill="#310709"/>
<path d="M301.212 188.906L320.185 180.006L311.718 199.081L285.133 205.39C285.133 205.39 281.678 211.492 277.877 213.98C274.046 216.487 271.286 218.169 266.202 217.721C260.513 217.218 253.093 210.59 253.093 210.59L237.027 219.993L229.727 236.437L234.454 222.263L228.775 222.366L207.917 234.104L225.637 220.974L208.594 219.183C208.594 219.183 233.567 220.032 235.719 219.413C237.404 218.928 237.374 215.685 237.374 215.685L245.589 211.983C245.589 211.983 240.089 213.799 237.07 212.139C233.822 210.352 233.034 204.31 233.034 204.31L215.406 203.835C215.406 203.835 212.002 208.682 208.832 210.89C205.578 213.156 199.181 215.005 199.181 215.005L186.216 224.472L148.346 222.36C148.346 222.36 181.848 224.052 187.189 222.279C190.91 221.044 197.345 212.09 197.345 212.09C197.345 212.09 204.165 210.761 207.422 208.427C210.808 205.999 213.601 200.146 213.601 200.146L230.536 197.953L219.587 181.02C219.587 181.02 213.769 177.468 209.652 176.61C205.431 175.73 198.913 176.83 198.913 176.83L179.644 173.001L197.272 173.477C197.272 173.477 203.033 171.721 206.995 172.019C211.49 172.357 218.201 175.681 218.201 175.681C218.201 175.681 216.436 165.819 211.861 161.056C203.351 152.198 180.315 155.977 180.315 155.977L162.499 158.042C162.499 158.042 160.783 160.329 159.178 161.292C156.72 162.768 151.577 162.905 151.577 162.905L141.665 166.904L139.33 172.166L129.874 175.842L128.986 173.611L138.022 171.586L140.358 166.324L145.637 162.893L112.314 164.636L128.368 162.314L123.661 160.225L112.917 158.343L124.537 158.252L131.597 161.385C131.597 161.385 151.577 162.905 155.518 159.668C156.862 158.564 157.27 155.721 157.27 155.721C157.27 155.721 161.717 157.395 163.375 156.069C164.357 155.283 164.64 153.219 164.64 153.219L173.256 152.844L160.222 137.085L129.132 131.684L156.653 133.139L148.141 124.112L128.112 117.059L109.025 119.872L98.8956 117.018C94.7071 116.115 91.2216 114.856 91.2216 114.856L98.8956 117.018C102.062 117.701 105.631 118.18 108.399 117.757C112.924 117.065 118.767 113.435 118.767 113.435L106.849 112.082L90.0074 100.67L59.5529 76.9161L50.925 73.0864L42.8752 65.839L44.7969 64.3299L53.0108 71.9127L60.7207 74.2851L91.9291 99.1606L88.8717 91.2422L84.7569 78.6552L85.9973 78.6809L91.7477 92.5188L94.5436 100.321C94.5436 100.321 101.969 108.729 108.509 110.457C112.306 111.46 118.336 110.882 118.336 110.882C118.336 110.882 140.048 115.175 151.662 122.525C164.439 130.611 177.264 150.161 177.264 150.161C177.264 150.161 205.609 149.135 217.048 159.947C224.735 167.212 228.111 182.967 228.111 182.967L233.99 195.811C233.99 195.811 242.131 200.737 248.314 205.844C253.047 209.753 263.795 209.041 263.795 209.041C263.795 209.041 270.149 210.395 272.77 208.563C275.011 206.997 275.495 202.424 275.495 202.424L293.094 192.389L272.701 183.337L280.8 184.832L283.573 184.226L301.212 188.906Z" fill="black" fill-opacity="0.2"/>
<ellipse cx="151.484" cy="223.752" rx="3.14655" ry="3.83813" transform="rotate(-156.065 151.484 223.752)" fill="#E13A4B"/>
<ellipse cx="2.63889" cy="4.57658" rx="2.63889" ry="4.57658" transform="matrix(0.386065 -0.922472 0.920004 0.39191 141.812 219.459)" fill="#E13A4B"/>
<ellipse cx="3.13633" cy="3.85578" rx="3.13633" ry="3.85578" transform="matrix(0.957364 0.288883 -0.239038 0.97101 151.159 212.153)" fill="#E13A4B"/>
<ellipse cx="3.73985" cy="5.61279" rx="3.73985" ry="5.61279" transform="matrix(0.122306 0.992492 -0.999829 -0.018505 163.728 218.229)" fill="#E13A4B"/>
<ellipse cx="198.142" cy="216.642" rx="2.2884" ry="4.3179" transform="rotate(-156.065 198.142 216.642)" fill="#E13A4B"/>
<ellipse cx="1.96892" cy="5.05271" rx="1.96892" ry="5.05271" transform="matrix(-0.00524154 -0.999986 0.993829 0.11092 188.813 212.502)" fill="#E13A4B"/>
<ellipse cx="2.63883" cy="5.42395" rx="2.63883" ry="5.42395" transform="matrix(-0.556592 -0.830786 0.912312 -0.409495 191.116 218.629)" fill="#E13A4B"/>
<path d="M281.865 180.318L280.225 177.409" stroke="#E13A4B" stroke-width="15" stroke-linecap="round"/>
<path d="M288 187.24L289.258 186.224" stroke="#E13A4B" stroke-width="15" stroke-linecap="round"/>
<path d="M268.608 184.932L274.122 183.659" stroke="#E13A4B" stroke-width="15" stroke-linecap="round"/>
<path d="M277.521 191.513L278.476 190.396" stroke="#E13A4B" stroke-width="15" stroke-linecap="round"/>
<path d="M237.106 213.467L235.467 210.558" stroke="#E13A4B" stroke-width="12" stroke-linecap="round"/>
<path d="M243.241 220.39L244.499 219.373" stroke="#E13A4B" stroke-width="12" stroke-linecap="round"/>
<path d="M223.85 218.082L229.363 216.809" stroke="#E13A4B" stroke-width="12" stroke-linecap="round"/>
<path d="M232.763 224.662L233.717 223.545" stroke="#E13A4B" stroke-width="12" stroke-linecap="round"/>
<path d="M110.108 110.379L108.469 107.471" stroke="#E13A4B" stroke-width="10" stroke-linecap="round"/>
<path d="M116.244 117.302L117.502 116.285" stroke="#E13A4B" stroke-width="10" stroke-linecap="round"/>
<path d="M96.8521 114.994L99.3448 113.476" stroke="#E13A4B" stroke-width="10" stroke-linecap="round"/>
<path d="M105.765 121.575L106.719 120.457" stroke="#E13A4B" stroke-width="10" stroke-linecap="round"/>
<ellipse cx="155.999" cy="156.469" rx="3.4326" ry="2.8786" transform="rotate(-156.065 155.999 156.469)" fill="#E13A4B"/>
<ellipse cx="145.37" cy="160.674" rx="3.4326" ry="2.8786" transform="rotate(-156.065 145.37 160.674)" fill="#E13A4B"/>
<path d="M143.551 164.066C144.196 162.613 148.945 163.311 151.255 164.336C153.565 165.362 154.915 167.371 154.27 168.824C153.625 170.277 151.23 170.624 148.919 169.598C146.609 168.573 142.906 165.519 143.551 164.066Z" fill="#E13A4B"/>
<path d="M144.756 164.511C144.489 166.094 139.81 166.286 137.371 165.69C134.932 165.094 133.17 163.329 133.437 161.747C133.704 160.164 135.898 159.365 138.337 159.961C140.777 160.557 145.022 162.929 144.756 164.511Z" fill="#E13A4B"/>
<path d="M144.151 164.867C145.814 165.772 145.191 169.853 144.114 171.683C143.036 173.514 140.814 174.264 139.152 173.359C137.489 172.454 137.014 170.237 138.092 168.406C139.169 166.576 142.489 163.962 144.151 164.867Z" fill="#E13A4B"/>
<ellipse cx="274.756" cy="230.178" rx="3.4326" ry="2.8786" transform="rotate(-156.065 274.756 230.178)" fill="#E13A4B"/>
<ellipse cx="264.126" cy="234.383" rx="3.4326" ry="2.8786" transform="rotate(-156.065 264.126 234.383)" fill="#E13A4B"/>
<path d="M262.307 237.774C262.952 236.321 267.701 237.019 270.011 238.045C272.321 239.07 273.671 241.079 273.026 242.533C272.381 243.986 269.986 244.332 267.675 243.307C265.365 242.281 261.662 239.228 262.307 237.774Z" fill="#E13A4B"/>
<path d="M263.512 238.22C263.245 239.802 258.567 239.995 256.127 239.399C253.688 238.803 251.927 237.037 252.194 235.455C252.46 233.873 254.654 233.073 257.094 233.669C259.533 234.265 263.779 236.638 263.512 238.22Z" fill="#E13A4B"/>
<path d="M262.908 238.576C264.571 239.481 263.948 243.562 262.87 245.392C261.792 247.223 259.571 247.973 257.908 247.068C256.245 246.163 255.771 243.946 256.848 242.115C257.926 240.285 261.245 237.671 262.908 238.576Z" fill="#E13A4B"/>
<ellipse cx="1.92152" cy="5.14426" rx="1.92152" ry="5.14426" transform="matrix(0.319112 -0.947717 0.938588 0.345039 215.659 184)" fill="#E13A4B"/>
<ellipse cx="2.22622" cy="4.47944" rx="2.22622" ry="4.47944" transform="matrix(0.999092 0.0426171 0.0925394 0.995709 223.835 175.832)" fill="#E13A4B"/>
<ellipse cx="2.48048" cy="5.76123" rx="2.48048" ry="5.76123" transform="matrix(0.875786 -0.482699 0.615232 0.788346 217.388 177.567)" fill="#E13A4B"/>
<ellipse cx="213.335" cy="103.445" rx="2.8605" ry="1.67918" transform="rotate(-156.065 213.335 103.445)" fill="#E13A4B"/>
<ellipse cx="261.209" cy="135.193" rx="2.8605" ry="1.67918" transform="rotate(-156.065 261.209 135.193)" fill="#E13A4B"/>
<ellipse cx="268.408" cy="141.538" rx="2.8605" ry="1.67918" transform="rotate(-156.065 268.408 141.538)" fill="#E13A4B"/>
<path d="M198.905 102.815C199.282 101.968 202.587 102.612 204.031 103.253C205.475 103.894 206.341 105.101 205.964 105.949C205.588 106.796 204.113 106.964 202.669 106.323C201.225 105.682 198.529 103.663 198.905 102.815Z" fill="#E13A4B"/>
<ellipse cx="222.536" cy="137.712" rx="4.5768" ry="2.39883" transform="rotate(-156.065 222.536 137.712)" fill="#E13A4B"/>
<ellipse cx="182.664" cy="190.876" rx="7.4373" ry="2.39883" transform="rotate(-156.065 182.664 190.876)" fill="#E13A4B"/>
<ellipse cx="6.678" cy="2.70922" rx="6.678" ry="2.70922" transform="matrix(-0.905834 0.423633 -0.568208 -0.822885 149.729 131.11)" fill="#E13A4B"/>
<ellipse cx="6.678" cy="2.70922" rx="6.678" ry="2.70922" transform="matrix(-0.905834 0.423633 -0.568208 -0.822885 217.384 115.474)" fill="#E13A4B"/>
<ellipse cx="4.83698" cy="2.64563" rx="4.83698" ry="2.64563" transform="matrix(0.428312 0.903631 -0.964417 0.264386 141.492 131.589)" fill="#E13A4B"/>
<ellipse cx="4.83698" cy="2.64563" rx="4.83698" ry="2.64563" transform="matrix(0.428312 0.903631 -0.964417 0.264386 137.164 124.419)" fill="#E13A4B"/>
<ellipse cx="5.22145" cy="2.41924" rx="5.22145" ry="2.41924" transform="matrix(0.831865 0.554978 -0.61151 0.791236 130.298 126.957)" fill="#E13A4B"/>
<ellipse cx="6.70962" cy="2.69764" rx="6.70962" ry="2.69764" transform="matrix(-0.319941 -0.947438 0.987825 -0.155569 178.813 199.665)" fill="#E13A4B"/>
<ellipse cx="1.29236" cy="1.15514" rx="1.29236" ry="1.15514" transform="matrix(0.210803 0.977529 -0.993322 0.115376 50.748 85.3955)" fill="#E13A4B"/>
<ellipse cx="1.84623" cy="1.34766" rx="1.84623" ry="1.34766" transform="matrix(0.210803 0.977529 -0.993322 0.115376 59.0903 67.0366)" fill="#E13A4B"/>
<ellipse cx="1.84623" cy="1.34766" rx="1.84623" ry="1.34766" transform="matrix(0.210803 0.977529 -0.993322 0.115376 60.1401 60.9956)" fill="#E13A4B"/>
<ellipse cx="1.30657" cy="1.14333" rx="1.30657" ry="1.14333" transform="matrix(-1.00754 0.186091 -0.273676 -0.936671 55.8965 95.1401)" fill="#E13A4B"/>
<ellipse cx="2.05318" cy="2.28667" rx="2.05318" ry="2.28667" transform="matrix(-1.00754 0.186091 -0.273676 -0.936671 53.8896 97.7681)" fill="#E13A4B"/>
<ellipse cx="2.05318" cy="2.28667" rx="2.05318" ry="2.28667" transform="matrix(-1.00754 0.186091 -0.273676 -0.936671 51.0703 94.9028)" fill="#E13A4B"/>
<ellipse cx="2.99346" cy="2.23479" rx="2.99346" ry="2.23479" transform="matrix(-0.347406 -0.919518 0.984208 -0.258189 67.1289 110.447)" fill="#E13A4B"/>
<ellipse cx="2.93464" cy="2.27978" rx="2.93464" ry="2.27978" transform="matrix(0.665509 -0.698595 0.790239 0.664975 60.8579 106.329)" fill="#E13A4B"/>
<ellipse cx="2.09245" cy="1.75594" rx="2.09245" ry="1.75594" transform="matrix(-0.0480382 -0.956995 1.04077 0.0306173 65.4829 104.697)" fill="#E13A4B"/>
</svg>
