<svg width="330" height="218" viewBox="0 0 330 218" fill="none" xmlns="http://www.w3.org/2000/svg">
<path d="M86.1628 173.687L91.937 174.336" stroke="#E13A4B" stroke-width="15" stroke-linecap="round"/>
<path d="M70.5469 174.4L71.0283 176.479" stroke="#E13A4B" stroke-width="15" stroke-linecap="round"/>
<path d="M90.3077 156.62L87.6062 163.205" stroke="#E13A4B" stroke-width="15" stroke-linecap="round"/>
<path d="M72.8783 160.414L73.7673 162.265" stroke="#E13A4B" stroke-width="15" stroke-linecap="round"/>
<ellipse cx="3.01586" cy="2.21769" rx="3.01586" ry="2.21769" transform="matrix(0.916495 -0.400046 0.676096 0.736814 303.846 56.5469)" fill="#E13A4B"/>
<ellipse cx="4.7392" cy="4.43538" rx="4.7392" ry="4.43538" transform="matrix(0.916495 -0.400046 0.676096 0.736814 306.376 50.8652)" fill="#E13A4B"/>
<ellipse cx="4.7392" cy="4.43538" rx="4.7392" ry="4.43538" transform="matrix(0.916495 -0.400046 0.676096 0.736814 314.822 54.043)" fill="#E13A4B"/>
<ellipse cx="2.80142" cy="2.79266" rx="2.80142" ry="2.79266" transform="matrix(0.176477 -0.984305 0.996383 0.0849794 238.427 181.725)" fill="#E13A4B"/>
<ellipse cx="3.58037" cy="4.36338" rx="3.58037" ry="4.36338" transform="matrix(0.176477 -0.984305 0.996383 0.0849794 267.11 85.9492)" fill="#E13A4B"/>
<ellipse cx="5.97167" cy="5.04836" rx="5.97167" ry="5.04836" transform="matrix(0.733653 0.679524 -0.88954 0.456857 267.291 37.2617)" fill="#E13A4B"/>
<ellipse cx="5.46127" cy="5.37452" rx="5.46127" ry="5.37452" transform="matrix(-0.519993 0.85417 -0.960535 -0.278161 284.395 40.4941)" fill="#E13A4B"/>
<ellipse cx="4.19134" cy="3.94988" rx="4.19134" ry="3.94988" transform="matrix(0.733653 0.679524 -0.88954 0.456857 281.189 74.8281)" fill="#E13A4B"/>
<ellipse cx="3.76294" cy="4.25071" rx="3.76294" ry="4.25071" transform="matrix(0.456926 0.889505 -0.971418 0.237374 275.263 46.0547)" fill="#E13A4B"/>
<ellipse cx="4.7392" cy="5.91384" rx="4.7392" ry="5.91384" transform="matrix(0.916495 -0.400046 0.676096 0.736814 27.7118 3.91602)" fill="#E13A4B"/>
<ellipse cx="4.09351" cy="6.85855" rx="4.09351" ry="6.85855" transform="matrix(0.690433 0.723396 -0.910547 0.413406 50.6614 0)" fill="#E13A4B"/>
<ellipse cx="4.52771" cy="6.2546" rx="4.52771" ry="6.2546" transform="matrix(-0.859025 0.511934 -0.781548 -0.623845 53.8666 15.25)" fill="#E13A4B"/>
<ellipse cx="6.48986" cy="7.41317" rx="6.48986" ry="7.41317" transform="matrix(-0.924001 -0.382389 0.656352 -0.754455 34.1339 23.1406)" fill="#E13A4B"/>
<ellipse cx="3.44669" cy="6.65307" rx="3.44669" ry="6.65307" transform="matrix(0.916495 -0.400046 0.676096 0.736814 0 55.6787)" fill="#E13A4B"/>
<ellipse cx="3.36491" cy="6.86173" rx="3.36491" ry="6.86173" transform="matrix(0.887386 0.461027 -0.737539 0.675305 21.7456 53.0527)" fill="#E13A4B"/>
<ellipse cx="4.55457" cy="6.81243" rx="4.55457" ry="6.81243" transform="matrix(0.998449 0.0556812 -0.116437 0.993198 10.5492 50.5215)" fill="#E13A4B"/>
<ellipse cx="5.17004" cy="4.43538" rx="5.17004" ry="4.43538" transform="matrix(0.916495 -0.400046 0.676096 0.736814 121.653 91.8281)" fill="#E13A4B"/>
<ellipse cx="5.17004" cy="4.43538" rx="5.17004" ry="4.43538" transform="matrix(0.916495 -0.400046 0.676096 0.736814 124.213 77.7441)" fill="#E13A4B"/>
<path d="M128.346 74.4134C130.002 76.2183 124.963 80.4673 121.473 81.9903C117.984 83.5134 113.813 83.2849 112.157 81.48C110.501 79.6751 111.987 76.9773 115.476 75.4542C118.965 73.9312 126.69 72.6085 128.346 74.4134Z" fill="#E13A4B"/>
<path d="M126.662 75.2783C124.493 73.7535 128.127 68.8694 131.075 66.8751C134.023 64.8808 138.171 64.5003 140.339 66.0251C142.508 67.55 141.876 70.4028 138.928 72.3971C135.981 74.3914 128.83 76.8032 126.662 75.2783Z" fill="#E13A4B"/>
<path d="M126.631 74.3851C123.867 75.3489 118.218 71.4815 116.355 68.94C114.491 66.3985 115.221 63.5568 117.985 62.5929C120.749 61.629 124.5 62.908 126.363 65.4495C128.226 67.991 129.394 73.4212 126.631 74.3851Z" fill="#E13A4B"/>
</svg>
