<svg width="1920" height="696" viewBox="0 0 1920 696" fill="none" xmlns="http://www.w3.org/2000/svg">
<path d="M357.033 361.376C356.96 356.005 354.789 355.749 353.95 350.444C353.466 347.68 349.928 334.322 349.545 331.539C349.161 328.755 345.903 322.27 345.58 319.204C344.995 313.657 338.454 303.627 337.97 298.06C337.486 292.493 331.806 291.353 331.484 285.725C331.506 283.923 330.498 281.625 329.722 279.999C328.945 278.372 326.291 276.709 324.876 275.594C323.182 274.202 323.547 270.737 321.792 269.426C319.635 267.64 318.621 266.45 316.932 264.216C315.337 262.241 313.626 260.362 311.809 258.588C309.933 256.834 307.775 255.402 305.758 253.748C302.047 250.561 297.831 247.959 294.644 244.187C291.183 240.164 288.236 235.726 285.87 230.975C285.216 229.584 284.337 228.309 283.268 227.204C281.495 225.193 280.008 222.946 278.851 220.527C276.286 215.458 274.154 210.182 272.477 204.754C270.823 199.792 269.613 194.548 267.697 189.667C266.645 187.465 265.761 185.186 265.055 182.849C264.449 180.126 264.49 177.302 264.046 174.539C263.111 169.804 261.305 165.283 258.721 161.207C257.341 159.12 256.153 156.912 255.171 154.611C254.247 152.352 253.189 150.149 252.004 148.015C249.342 143.275 246.337 138.757 243.432 134.158C240.729 129.882 239.237 124.88 236.09 120.866C229.595 112.637 221.447 105.981 214.347 98.2958C211.28 94.7935 207.767 91.7081 203.898 89.1183C199.691 86.3093 195.65 83.2585 191.796 79.9812C190.163 78.6298 188.468 77.3187 186.956 75.806C185.859 74.8316 185.003 73.6165 184.454 72.256C184.251 71.1635 183.954 70.0905 183.567 69.0489C183.006 68.2062 182.565 67.2898 182.256 66.326C182.014 65.1486 181.69 63.9894 181.288 62.8567C180.725 61.2887 179.814 59.8683 178.625 58.7016C177.011 57.3807 175.21 56.3067 173.28 55.5147C170.638 54.2238 167.975 53.0136 165.333 51.7631C160.815 49.625 156.438 47.2651 152.122 44.7438C147.91 42.4534 143.995 39.6558 140.463 36.4135C136.969 32.5739 134.011 28.279 131.669 23.6458C129.255 19.2736 126.56 15.0626 123.601 11.0394C121.423 8.21559 118.619 4.72612 114.787 4.4034C112.551 4.44461 110.332 4.79072 108.191 5.4321C105.159 6.27376 101.967 6.36374 98.8924 5.69429C96.6513 4.91384 94.5925 3.68543 92.8413 2.08384C91.8665 0.970426 90.5174 0.252846 89.0493 0.0668143C84.1076 -0.35676 79.3878 1.33752 74.5873 2.22501C69.0642 3.21957 63.4571 3.67219 57.846 3.57641C52.2185 3.57641 46.6112 3.57641 40.9837 3.57641C36.9497 3.57641 33.1173 0.752589 29.0631 2.38638C25.0089 4.02016 22.649 8.07439 20.4101 11.3823C19.0169 13.4172 17.4657 15.3393 15.7709 17.1308C14.0766 18.9663 12.7051 21.1649 11.1318 23.0407C9.71686 24.6035 8.20803 26.0787 6.61366 27.458C5.14124 28.9102 4.45545 30.8869 2.98302 32.3392C1.5106 33.7914 0.360895 34.6184 -0.909828 35.8084C-1.07874 35.8176 -1.2413 35.8759 -1.37748 35.9762C-1.51367 36.0766 -1.61753 36.2146 -1.67629 36.3732L-1.97885 36.9178C-2.32174 37.301 -2.66464 37.7246 -3.00753 38.1482C-3.9757 39.0356 -5.16574 39.6206 -6.27511 40.4677C-7.01407 41.0619 -7.72102 41.6948 -8.39298 42.3638C-8.46665 42.3728 -8.54117 42.3728 -8.61485 42.3638C-8.70888 42.371 -8.8004 42.3976 -8.88369 42.4418C-8.96699 42.486 -9.04027 42.5469 -9.09895 42.6208C-9.15763 42.6946 -9.20046 42.7797 -9.22475 42.8709C-9.24904 42.962 -9.25427 43.0571 -9.24012 43.1504C-9.87906 43.817 -10.5523 44.4499 -11.2571 45.0464C-14.8071 47.7895 -14.5247 51.0975 -14.2222 55.313C-14.0407 56.584 -14.0407 57.8744 -14.2222 59.1454C-14.5266 59.9969 -14.8906 60.8259 -15.3114 61.6263C-15.9279 63.8772 -16.1329 66.2209 -15.9165 68.5447C-16.0699 70.9385 -15.8866 73.342 -15.3719 75.6849C-15.0828 78.2432 -14.9346 80.8154 -14.9281 83.39C-14.5852 86.1735 -14.0406 88.7754 -13.9398 91.5992C-13.8389 94.4231 -13.8188 97.3679 -13.9398 100.252C-13.9398 105.88 -14.1818 111.487 -14.2423 117.115C-14.3028 122.742 -14.2423 128.773 -14.2423 134.602C-14.2423 139.826 -13.1935 144.889 -13.3145 150.133C-13.5969 161.65 -11.6202 173.026 -10.9344 184.423C-10.2486 195.819 -10.7731 207.86 -10.7529 219.539C-10.7529 242.836 -11.116 266.253 -9.48217 289.509C-8.67536 301.107 -7.46515 312.745 -7.18276 324.364C-7.0214 329.89 -7.52566 335.457 -7.0214 340.964C-6.51715 346.47 -5.50863 352.198 -4.84302 357.806C-4.23641 362.872 -3.23152 367.883 -1.83766 372.792C-1.52422 374.391 -0.771051 375.87 0.337135 377.063C1.44532 378.257 2.86458 379.118 4.43528 379.549C6.59163 379.875 8.7804 379.93 10.9503 379.711C13.9556 379.711 17.0013 379.59 19.9663 379.711C25.7094 380.049 31.4121 380.886 37.0102 382.212C42.5166 383.321 48.0634 384.229 53.6506 384.955C59.2377 385.681 64.7039 386.629 70.2507 386.972C72.9333 387.093 75.6361 386.972 78.3188 387.174C81.0014 387.375 84.0673 387.718 86.9718 387.779C92.5186 387.94 98.0856 387.779 103.653 387.96C126.586 388.606 149.177 384.209 172.009 382.797C183.587 382.07 195.165 382.797 206.742 382.575C212.39 382.474 217.755 380.981 223.363 380.558C228.97 380.134 234.799 378.944 240.568 378.319C245.974 377.714 251.44 377.976 256.845 377.411C262.251 376.846 268.12 376.08 273.708 375.132C285.225 373.115 296.681 370.513 308.138 368.173C313.725 367.044 319.312 365.874 324.819 364.442C327.162 363.789 329.465 363.001 331.717 362.082C332.898 361.588 334.169 361.348 335.449 361.376C336.347 361.53 337.27 361.425 338.111 361.073C338.581 360.743 338.962 360.301 339.219 359.787C339.476 359.273 345.157 361.187 345.14 360.612C345.24 358.091 357.094 363.877 357.033 361.376Z" fill="#EEDAAE"/>
<path d="M204.078 152.695H203.154H202.583L202.202 152.375C200.626 150.947 199.023 149.462 197.392 148.209L196.74 147.685L195.381 146.578L194.403 145.704C194.047 145.333 193.666 144.992 193.261 144.685C192.633 144.232 191.933 143.906 191.196 143.723C190.242 143.384 189.33 142.924 188.478 142.354C186.86 141.29 185.191 140.318 183.477 139.441C181.707 138.61 179.892 137.89 178.042 137.286C176.268 136.649 174.571 135.789 172.987 134.722C171.465 133.761 169.889 132.916 168.313 132.043C166.666 131.131 165.155 129.963 163.829 128.576C162.504 127.457 160.947 126.698 159.29 126.362C158.355 126.119 157.445 125.778 156.572 125.343C155.9 125.014 155.162 124.873 154.425 124.935H153.637H152.197V123.479V121.935H154.914C155.456 121.93 155.996 122.009 156.518 122.168C156.988 122.324 157.443 122.529 157.877 122.779C158.202 122.95 158.538 123.096 158.882 123.216L159.562 123.42C160.9 123.751 162.202 124.23 163.448 124.848C164.441 125.407 165.356 126.113 166.166 126.945C166.682 127.458 167.236 127.926 167.823 128.343C168.702 128.902 169.609 129.408 170.541 129.858C171.275 130.237 172.009 130.615 172.715 131.052L173.993 131.868C175.209 132.679 176.481 133.39 177.797 133.994C178.613 134.344 179.455 134.635 180.271 134.926C181.086 135.218 182.363 135.655 183.369 136.121C185.158 136.928 186.909 137.833 188.614 138.83L189.538 139.412C190.07 139.772 190.624 140.093 191.196 140.373L192.12 140.694C192.699 140.851 193.263 141.065 193.805 141.335C194.682 141.843 195.495 142.47 196.224 143.199C196.957 143.898 197.745 144.539 198.533 145.18L199.077 145.646C200.821 146.997 202.482 148.466 204.051 150.044L204.73 150.86L204.404 151.763L204.078 152.695ZM210.655 235.072C210.029 234.344 209.404 233.615 208.752 232.916C208.1 232.217 207.393 231.402 206.714 230.586C206.034 229.77 205.98 229.683 205.572 229.246L204.458 228.052C203.706 227.312 203.007 226.514 202.366 225.663L201.931 225.022C201.397 224.138 200.715 223.368 199.92 222.75C199.322 222.372 198.697 222.022 198.072 221.702C197.345 221.324 196.637 220.906 195.952 220.449L194.756 219.663C192.527 218.148 190.272 216.75 188.016 215.206C187.158 214.677 186.246 214.257 185.298 213.953L183.967 213.458C182.59 212.919 181.254 212.267 179.972 211.507C179.294 211.105 178.64 210.657 178.015 210.167L177.526 209.759C177.292 209.515 177.027 209.309 176.738 209.147C176.415 209.025 176.073 208.976 175.732 209.001H174.237C173.939 209.031 173.639 209.031 173.34 209.001C172.64 208.915 171.96 208.698 171.329 208.361C170.899 208.079 170.514 207.725 170.188 207.312L169.78 206.875C169.42 206.631 169.037 206.426 168.639 206.263L168.258 206.118L167.09 205.535L165.921 204.923C165.433 204.753 164.933 204.627 164.426 204.545H164.155C163.575 204.467 163.028 204.215 162.578 203.816C161.944 203.113 161.502 202.237 161.301 201.282V200.962C161.301 200.962 161.029 200.263 159.48 199.098C158.969 198.771 158.421 198.516 157.85 198.34C157.098 198.094 156.377 197.751 155.702 197.321C155.023 196.796 154.458 196.12 154.045 195.34C153.861 195.011 153.652 194.699 153.42 194.408C152.469 193.309 151.335 192.41 150.077 191.757C149.516 191.554 149.011 191.204 148.609 190.738C147.142 189.718 145.647 188.815 144.152 187.825L143.065 187.126C140.875 185.785 138.76 184.306 136.733 182.698C135.875 182.058 134.966 181.502 134.015 181.038C132.933 180.498 131.905 179.845 130.944 179.086C130.289 178.582 129.599 178.134 128.879 177.746L127.982 177.222L125.563 175.678L124.232 174.833C123.354 174.264 122.446 173.748 121.514 173.289C120.15 172.615 118.833 171.836 117.573 170.959C116.568 170.231 115.48 169.619 114.339 168.949C113.198 168.279 112.437 167.871 111.621 167.26C110.848 166.748 110.05 166.281 109.23 165.861C107.844 165.241 106.531 164.449 105.316 163.502C104.571 162.933 103.78 162.435 102.952 162.016L102.517 161.783C101.975 161.479 101.457 161.128 100.968 160.735C100.52 160.348 100.026 160.024 99.5003 159.773C98.7695 159.484 97.9966 159.336 97.2175 159.336H96.1032C94.6893 159.122 93.2641 159.006 91.8363 158.987H85.5585C84.9924 158.976 84.427 159.034 83.8735 159.162C82.2112 159.532 80.5163 159.708 78.8186 159.686H76.4814H74.4703C72.807 159.734 71.1429 159.627 69.4969 159.366L67.0781 158.958C65.3002 158.684 63.5461 158.255 61.8329 157.676C59.5997 156.983 57.52 155.814 55.7181 154.239C55.0037 153.597 54.1958 153.085 53.3265 152.724L52.2394 152.433C51.524 152.293 50.8232 152.078 50.1468 151.792C49.0253 151.211 47.8041 150.884 46.5594 150.831H45.0375C44.1135 150.831 43.1895 150.831 42.3198 150.831C39.9044 150.539 37.5144 150.042 35.1723 149.345L34.0581 149.054C33.2403 148.846 32.433 148.593 31.6393 148.297C30.9598 148.034 30.2804 147.685 29.6282 147.364C28.976 147.044 28.541 146.811 27.9975 146.578C26.5542 146.021 25.0732 145.582 23.5676 145.267C22.5349 145.005 21.5021 144.772 20.4966 144.451L19.7901 144.218C17.868 143.807 16.0623 142.919 14.5178 141.626L13.7567 140.927L14.0828 139.966L14.4633 138.946H15.9581L16.3114 139.267C18.0458 140.484 19.9993 141.298 22.0457 141.655L23.4317 142.005L25.1983 142.471C27.061 142.88 28.8816 143.485 30.6337 144.277C35.3814 146.573 40.5354 147.746 45.7442 147.714H46.0703C47.2135 147.673 48.3566 147.8 49.4674 148.093C50.0167 148.273 50.5526 148.497 51.0708 148.763C51.5583 149.012 52.0682 149.207 52.5927 149.345L53.1362 149.491C53.967 149.617 54.7741 149.882 55.5278 150.277C56.3617 150.748 57.1453 151.315 57.865 151.967L58.5717 152.52C60.4235 153.855 62.5159 154.758 64.7137 155.171C65.9395 155.47 67.1838 155.675 68.437 155.783C69.1039 155.845 69.7665 155.952 70.4208 156.103C70.9939 156.235 71.5753 156.323 72.1602 156.365H72.7038H74.0082H75.4215H77.6228H79.5524C80.7349 156.345 81.9112 156.179 83.0582 155.87C83.7885 155.689 84.5376 155.611 85.2868 155.637H91.7277C92.7688 155.578 93.8121 155.578 94.8531 155.637H95.9673C98.1025 155.624 100.203 156.217 102.055 157.356C102.816 157.909 103.631 158.404 104.447 158.9C105.513 159.529 106.547 160.22 107.545 160.968C108.13 161.401 108.759 161.763 109.42 162.045L110.398 162.541C111.334 163.058 112.241 163.632 113.116 164.259L113.768 164.696C114.735 165.336 115.733 165.919 116.758 166.444C117.471 166.806 118.153 167.235 118.796 167.726L119.91 168.483C120.489 168.834 121.088 169.146 121.704 169.415L122.873 169.969C123.905 170.522 124.911 171.163 125.889 171.804L126.623 172.299L128.58 173.522C130.129 174.484 131.732 175.474 133.227 176.61C133.988 177.163 134.803 177.6 135.646 178.096C136.803 178.69 137.904 179.402 138.934 180.222C140.916 181.82 143.015 183.242 145.212 184.475L146.326 185.145C147.06 185.553 147.767 185.96 148.473 186.426L149.044 186.834C149.351 186.978 149.629 187.186 149.859 187.446C150.539 187.941 151.191 188.436 151.898 188.873C152.248 189.068 152.611 189.234 152.985 189.368C153.632 189.628 154.251 189.96 154.833 190.359L156.083 191.32C156.654 191.786 157.252 192.252 157.85 192.66C159.137 193.434 160.518 194.012 161.953 194.379C162.85 194.641 163.774 194.932 164.671 195.282L165.867 195.835C166.408 196.13 166.971 196.374 167.552 196.563C168.231 196.738 168.938 196.884 169.617 197L171.384 197.379C172.306 197.633 173.213 197.944 174.101 198.311L174.781 198.573C175.767 198.891 176.795 199.039 177.825 199.01H178.096H179.917H182.173C183.084 198.99 183.994 199.068 184.891 199.243C186.905 199.813 188.766 200.881 190.326 202.36L190.978 202.913C191.468 203.292 191.957 203.613 192.473 203.962C192.906 204.216 193.323 204.498 193.723 204.807C194.378 205.289 195.004 205.815 195.598 206.38L196.278 206.992C197.963 208.337 199.787 209.471 201.713 210.37L203.48 211.273C204.45 211.709 205.363 212.277 206.197 212.963C206.68 213.374 207.126 213.832 207.529 214.332C207.931 214.797 208.367 215.225 208.834 215.614C209.59 216.217 210.243 216.956 210.763 217.798C211.028 218.335 211.476 218.742 212.013 218.934C212.42 219.104 212.79 219.362 213.1 219.692C213.311 219.883 213.502 220.098 213.671 220.333C213.889 220.566 214.024 220.74 214.188 220.886L214.813 221.265L215.655 221.818C216.185 222.203 216.693 222.621 217.177 223.071C217.661 223.52 218.169 223.939 218.699 224.323C219.732 225.052 220.737 225.809 221.77 226.595C222.803 227.382 223.672 228.052 224.651 228.751C225.629 229.45 227.151 230.615 228.401 231.664C229.244 232.334 230.059 233.004 230.928 233.645C232.806 234.977 234.747 236.202 236.744 237.315L237.288 237.635C239.255 238.729 241.082 240.09 242.723 241.684C243.126 242.119 243.506 242.576 243.865 243.053C244.16 243.443 244.478 243.813 244.816 244.16C245.17 244.478 245.576 244.725 246.012 244.888C246.633 245.126 247.219 245.46 247.751 245.879C248.213 246.287 248.621 246.694 249.029 247.131C249.459 247.596 249.922 248.025 250.415 248.413C251.288 249.069 252.196 249.672 253.132 250.219L253.458 250.452C255.089 251.442 256.638 252.549 258.187 253.656L259.954 254.909L263.188 257.064C265.465 258.472 267.653 260.038 269.737 261.754L270.227 262.162L270.471 266.823L268.052 264.667C266.791 263.55 265.466 262.519 264.085 261.579L259.6 258.492C256.883 256.569 253.866 254.559 250.958 252.666C249.892 252.019 248.866 251.299 247.887 250.51C247.472 250.163 247.081 249.784 246.719 249.374C246.358 248.911 245.926 248.517 245.441 248.209L244.979 248.034C244.181 247.728 243.443 247.264 242.805 246.665C242.318 246.176 241.864 245.651 241.446 245.092C241.12 244.685 240.794 244.277 240.44 243.898C238.797 242.346 236.969 241.034 235.005 239.995C232.735 238.716 230.547 237.275 228.455 235.684L222.069 230.848L220.656 229.712L219.242 228.576L217.965 227.702C217.34 227.294 216.742 226.887 216.171 226.45C215.745 226.125 215.337 225.775 214.949 225.401C214.508 224.981 214.035 224.601 213.535 224.265L213.209 224.061C212.811 223.83 212.43 223.567 212.068 223.275C211.812 223.043 211.584 222.779 211.388 222.488C211.304 222.358 211.203 222.24 211.089 222.139C210.882 221.954 210.653 221.797 210.41 221.673C209.731 221.382 209.132 220.911 208.671 220.303C208.535 220.07 208.372 219.837 208.263 219.604L207.991 219.197C207.731 218.863 207.429 218.569 207.094 218.323L206.551 217.886C206.107 217.469 205.69 217.021 205.301 216.546C204.993 216.167 204.656 215.817 204.295 215.497C203.457 214.833 202.544 214.285 201.577 213.866L200.354 213.254C198.213 212.29 196.195 211.037 194.348 209.526C193.343 208.652 192.283 207.865 191.223 207.079C190.163 206.292 189.483 205.797 188.641 205.098C186.965 203.385 184.783 202.355 182.472 202.185H182.173H180.053H177.743C177.025 202.194 176.307 202.145 175.596 202.04C174.733 201.874 173.887 201.621 173.069 201.282C172.757 201.148 172.44 201.032 172.117 200.933C171.003 200.573 169.868 200.291 168.72 200.088H168.367C167.309 199.927 166.27 199.644 165.269 199.243L164.535 198.923C164.022 198.66 163.495 198.427 162.959 198.224C163.408 198.794 163.741 199.459 163.937 200.175C163.937 200.379 163.937 200.612 164.182 200.874C164.426 201.137 164.182 201.107 165.16 201.253C165.621 201.331 166.075 201.448 166.519 201.603C167.878 202.185 169.237 202.913 170.433 203.554C171.084 203.88 171.66 204.358 172.117 204.953C172.321 205.169 172.563 205.341 172.829 205.456C173.095 205.571 173.38 205.627 173.667 205.622H175.569C176.225 205.604 176.879 205.712 177.498 205.943C178.287 206.292 179.013 206.785 179.645 207.399C179.942 207.68 180.261 207.933 180.597 208.157C181.904 209.003 183.288 209.705 184.728 210.254L186.005 210.72C186.941 211.035 187.85 211.435 188.723 211.914C189.484 212.322 190.19 212.817 190.924 213.313C191.52 213.754 192.137 214.163 192.772 214.536C193.913 215.177 194.973 215.934 196.006 216.633L196.93 217.274C197.655 217.771 198.408 218.219 199.186 218.614C199.756 218.934 200.3 219.226 200.844 219.575C202.076 220.348 203.133 221.402 203.942 222.663C204.758 223.788 205.667 224.831 206.659 225.78L206.958 226.1C207.584 226.77 208.154 227.498 208.752 228.197C209.35 228.897 209.622 229.275 210.084 229.77L211.361 231.169C212.013 231.897 212.666 232.596 213.291 233.324C214.221 234.502 215.269 235.567 216.416 236.499C217.775 237.548 218.808 238.393 219.759 239.267C220.955 240.382 222.257 241.358 223.645 242.179C224.525 242.649 225.433 243.058 226.363 243.403C226.961 243.636 227.559 243.898 228.129 244.189C229.017 244.582 229.925 244.922 230.847 245.209L232.342 245.733C233.353 246.183 234.276 246.836 235.059 247.656L235.63 248.18C236.337 248.792 237.043 249.345 237.777 249.928C239.547 251.228 241.178 252.732 242.642 254.414C243.267 255.171 243.838 255.987 244.408 256.802C244.979 257.618 245.061 257.705 245.414 258.142C245.767 258.579 246.175 259.132 246.583 259.599C246.99 260.065 247.642 260.88 248.132 261.55C249.053 262.912 249.897 264.332 250.659 265.803C251.472 267.314 252.38 268.764 253.377 270.143C255.007 272.328 256.828 274.425 258.568 276.464L259.845 277.95C260.866 279.127 261.828 280.362 262.726 281.649C263.067 282.186 263.469 282.675 263.921 283.106C264.125 283.268 264.356 283.386 264.601 283.455C265.032 283.626 265.443 283.851 265.824 284.125C266.173 284.397 266.492 284.709 266.775 285.057L267.21 285.494C267.854 286.049 268.545 286.537 269.275 286.951L270.471 287.65C271.418 288.189 272.327 288.802 273.189 289.485C273.384 289.621 273.566 289.777 273.732 289.951L274.113 290.271L274.276 291.058L272.944 291.495L274.276 291.204L275.01 295.165L271.803 292.252C271.568 292.014 271.313 291.799 271.042 291.611C270.362 291.116 269.602 290.679 268.868 290.242L267.291 289.31C266.644 288.901 266.018 288.454 265.416 287.97C265.14 287.724 264.877 287.461 264.628 287.184C264.384 286.888 264.1 286.633 263.786 286.426L263.351 286.252C262.947 286.101 262.564 285.896 262.209 285.64C261.566 285.11 260.998 284.482 260.524 283.776C259.138 281.853 257.589 280.018 256.094 278.27L254.002 275.765C251.926 273.408 250.102 270.809 248.567 268.017C247.887 266.706 247.153 265.366 246.365 264.143C245.797 263.296 245.18 262.489 244.517 261.725L243.43 260.356L242.126 258.579C241.691 257.997 241.256 257.385 240.794 256.802C239.942 255.715 238.975 254.738 237.913 253.889L234.054 250.656L233.239 249.957C232.572 249.262 231.775 248.726 230.901 248.384C229.614 247.999 228.352 247.522 227.124 246.957C226.526 246.665 225.901 246.403 225.303 246.17C224.312 245.77 223.341 245.313 222.395 244.801C221.048 244.039 219.766 243.152 218.563 242.15L217.856 241.509C216.932 240.694 216.008 239.907 215.139 239.179C213.503 237.998 211.998 236.62 210.655 235.072ZM138.363 118.323H136.896L136.543 118.061C136.116 117.766 135.66 117.522 135.184 117.332L134.477 117.012C133.774 116.645 133.117 116.185 132.52 115.643L131.923 115.177C131.377 114.808 130.781 114.533 130.156 114.361L129.422 114.07C128.879 113.895 128.362 113.662 127.819 113.429L126.378 112.847L125.482 112.526C124.91 112.343 124.348 112.129 123.797 111.885L122.628 111.332C122.004 110.981 121.348 110.698 120.671 110.487L119.938 110.283C119.109 110.214 118.314 109.907 117.635 109.395C116.956 108.882 116.418 108.183 116.078 107.37C115.943 107.05 115.861 106.729 115.752 106.409C115.619 105.932 115.437 105.473 115.209 105.04C114.822 104.428 114.355 103.878 113.823 103.409L113.333 102.914C111.846 101.376 110.448 99.7421 109.148 98.0199C108.77 97.4934 108.31 97.0402 107.789 96.6799C107.175 96.3444 106.514 96.1181 105.833 96.01L105.18 95.8352C104.373 95.6133 103.59 95.3008 102.843 94.903L101.457 94.2914C100.669 93.9127 99.8809 93.5631 99.0927 93.1262C97.9355 92.444 96.819 91.6852 95.7498 90.8541L93.9834 89.5724C92.8202 88.8289 91.6229 88.1484 90.3961 87.5334L88.4122 86.5139C87.6464 86.1174 86.8451 85.805 86.0206 85.5818C85.3732 85.3737 84.7522 85.0801 84.1724 84.7079L83.493 84.3292C81.8352 83.4845 80.0416 82.8145 78.3294 82.1446L77.4053 81.795C76.4541 81.4454 75.5301 81.0085 74.6876 80.6007C73.8451 80.1929 72.5678 79.6394 71.4808 79.2608L69.3882 78.6199L68.7903 78.4452C68.1924 78.4452 67.6216 78.0956 67.0509 77.8917L65.7192 77.4256L64.1973 77.047L62.7841 76.6974C61.848 76.4074 60.9384 76.0272 60.0664 75.5614L59.7402 75.4157C58.8338 74.9444 57.86 74.6392 56.8595 74.5127C55.9255 74.4187 55.0375 74.0339 54.3048 73.4058C53.1355 72.6754 51.8236 72.2465 50.4729 72.1533C49.7392 72.1533 49.0054 71.8911 48.2988 71.7164L47.5922 71.5124C45.3365 70.9007 43.0809 70.289 40.8523 69.6191L40.0097 69.3569C39.14 69.0947 38.2975 68.8617 37.4822 68.5413C36.736 68.2669 36.0241 67.8951 35.3625 67.4344L34.6015 66.9683C34.2573 66.8222 33.903 66.7054 33.5417 66.6188C33.0469 66.5213 32.5637 66.365 32.1012 66.1527C31.2746 65.6624 30.5814 64.9495 30.0902 64.0845L29.601 63.2981L29.9543 62.4825L30.4163 61.6377H31.9382L32.3459 62.2203C32.9438 63.065 33.1612 63.2981 33.6776 63.4146C34.6318 63.5988 35.5504 63.9532 36.3953 64.4632C37.9298 65.3626 39.5774 66.0199 41.2871 66.4149L41.8035 66.5605C42.9449 66.9101 44.1136 67.2014 45.255 67.5218L48.2716 68.3374C49.0869 68.5704 49.9021 68.6869 50.7175 68.8326C51.9427 69.0024 53.1521 69.285 54.332 69.6773C54.8974 69.9227 55.4353 70.2354 55.9356 70.6094L56.5606 71.0464C56.9347 71.1996 57.3291 71.2881 57.7292 71.3086C58.273 71.3523 58.8107 71.4598 59.3327 71.629C60.0937 71.9203 60.8002 72.2698 61.534 72.6194L61.8873 72.7941C62.8925 73.2449 63.9404 73.577 65.0126 73.7845C66.2628 74.0758 67.4586 74.4836 68.6816 74.8623C69.4154 75.1245 70.1764 75.3575 70.9102 75.5614C72.3176 76.0121 73.6971 76.5569 75.041 77.1926L77.0792 78.0374L79.2534 78.9112C80.5035 79.3773 81.7538 79.8434 82.9768 80.3677C84.1997 80.892 84.7976 81.1833 85.6945 81.6785L86.0206 81.8824C86.2658 82.0356 86.5199 82.1718 86.7815 82.2902H87.3522C87.6568 82.3405 87.9567 82.4184 88.249 82.5232C88.8713 82.765 89.4717 83.0673 90.0427 83.4262L90.5319 83.6884L93.5213 85.2322C94.9082 86.0165 96.2431 86.9021 97.5164 87.8829L98.7666 88.786C100.36 89.8292 102.033 90.7257 103.767 91.4658L104.365 91.7571C105.239 92.1592 106.15 92.4619 107.083 92.6601C108.107 92.8668 109.085 93.2821 109.964 93.8835C110.915 94.654 111.749 95.5776 112.437 96.6216C112.763 97.0586 113.089 97.5247 113.442 97.9325C113.795 98.3403 114.475 99.0102 114.991 99.5345C115.975 100.419 116.884 101.394 117.709 102.447C118.271 103.343 118.701 104.325 118.986 105.36C119.08 105.709 119.217 106.042 119.394 106.351C119.721 106.544 120.082 106.663 120.454 106.7C121.954 107.107 123.418 107.653 124.829 108.332C125.617 108.652 126.378 109.001 127.167 109.293L129.178 110.108L130.373 110.574L131.216 110.895C132.073 111.149 132.895 111.521 133.662 112.002L134.613 112.759C134.983 113.101 135.384 113.404 135.809 113.662L136.515 114.012C137.24 114.313 137.926 114.715 138.554 115.206L139.369 115.992L139.043 116.983L138.363 118.323ZM7.01688 237.49H7.77774C9.04105 237.443 10.2972 237.713 11.4467 238.276C12.9415 239.034 14.4362 239.762 15.9581 240.403C16.5831 240.665 17.2082 240.839 17.8605 241.043C18.6252 241.261 19.3782 241.524 20.1162 241.83C21.4731 242.43 22.7977 243.111 24.084 243.869L25.3614 244.568C26.3645 245.065 27.328 245.65 28.2421 246.316C28.5009 246.551 28.7949 246.738 29.1118 246.869H29.4922C29.8521 246.949 30.2064 247.056 30.5521 247.19C31.1172 247.498 31.6388 247.89 32.1012 248.355C32.628 248.79 33.2149 249.134 33.8406 249.374C34.5402 249.684 35.2572 249.947 35.9875 250.161C37.6841 250.645 39.2921 251.432 40.7435 252.491C41.5345 253.161 42.271 253.901 42.9449 254.705L43.57 255.433C44.4285 256.454 45.3357 257.426 46.2878 258.346C47.3293 259.28 48.4804 260.063 49.7119 260.676C50.6903 261.171 51.6144 261.783 52.5656 262.366L53.5982 262.978C54.3187 263.422 55.0628 263.821 55.8268 264.172L57.4847 264.987L57.8108 265.191C58.3002 265.488 58.8201 265.722 59.3599 265.89C59.7447 265.987 60.1351 266.055 60.5285 266.094H61.2622C64.2437 266.706 67.0418 268.086 69.4153 270.114C70.7198 271.134 71.7525 271.891 72.8396 272.59C74.0491 273.317 75.2032 274.145 76.2912 275.066C77.2428 275.935 78.15 276.859 79.0089 277.833C80.0304 279.045 81.159 280.147 82.3788 281.125C82.888 281.5 83.4242 281.831 83.9823 282.115C84.553 282.436 85.1237 282.785 85.6673 283.164C86.6705 283.881 87.5838 284.732 88.385 285.698C88.6599 286.019 88.914 286.36 89.1458 286.718C89.4983 287.324 89.9603 287.849 90.5047 288.261C90.858 288.431 91.2342 288.539 91.619 288.582C92.3197 288.683 92.9995 288.909 93.6301 289.252C93.9415 289.455 94.2411 289.679 94.527 289.922L94.9346 290.242C95.3513 290.529 95.7872 290.782 96.239 291L96.5923 291.174C97.4055 291.629 98.1709 292.176 98.8753 292.806C99.3101 293.155 99.7449 293.505 100.18 293.796L101.022 294.32C101.929 294.818 102.762 295.456 103.495 296.214C103.862 296.65 104.207 297.107 104.528 297.583C104.887 298.148 105.307 298.666 105.778 299.127C106.322 299.593 106.92 299.971 107.49 300.379C108.145 300.765 108.772 301.203 109.366 301.69C110.515 302.666 111.547 303.791 112.437 305.04C113.351 306.362 114.143 307.777 114.801 309.264C115.289 310.35 115.842 311.401 116.459 312.409C116.731 312.817 117.002 313.254 117.301 313.662C117.6 314.07 118.334 315.235 118.796 316.051C119.487 317.341 120.086 318.684 120.59 320.07V320.42C121.227 321.971 121.763 323.567 122.193 325.197C122.513 326.329 122.96 327.415 123.525 328.43L123.987 329.363C124.656 330.793 125.114 332.326 125.346 333.907V334.577C125.346 335.043 125.509 335.509 125.617 335.946C125.698 336.286 125.807 336.617 125.944 336.936C126.08 337.315 126.215 337.693 126.324 338.101C126.577 339.295 126.66 340.522 126.569 341.742V342.645V344.189H125.21H123.742V341.83C123.837 340.724 123.744 339.609 123.47 338.538C123.075 337.209 122.748 335.857 122.492 334.489V334.023C122.236 332.649 121.767 331.329 121.106 330.12C120.334 328.761 119.748 327.289 119.367 325.751C119.007 324.428 118.562 323.133 118.035 321.876L117.845 321.41C117.325 319.936 116.669 318.522 115.888 317.187C115.535 316.633 115.181 316.08 114.801 315.555C114.421 315.031 113.931 314.274 113.551 313.604C113.09 312.81 112.681 311.983 112.328 311.128C112.111 310.662 111.92 310.196 111.676 309.759C110.464 307.218 108.656 305.06 106.43 303.496L105.887 303.146C104.819 302.51 103.84 301.716 102.979 300.787C102.626 300.392 102.308 299.963 102.028 299.505C101.653 298.909 101.195 298.378 100.669 297.932L99.3644 297.088C98.6592 296.666 97.9786 296.199 97.3262 295.689L96.7283 295.165L95.8315 294.437L94.8802 293.942L94.0377 293.505L92.8963 292.718C92.4512 292.317 91.9328 292.019 91.3744 291.844C90.2016 291.743 89.0843 291.266 88.1675 290.475C87.6173 289.915 87.1169 289.3 86.6728 288.64C86.401 288.261 86.1293 287.883 85.8303 287.533C85.1253 286.718 84.3099 286.021 83.4115 285.465L82.569 284.97C81.6632 284.468 80.7993 283.883 79.9872 283.222C78.9044 282.325 77.8784 281.352 76.9162 280.309L76.2367 279.581C75.6144 278.831 74.9423 278.13 74.2257 277.484C73.3565 276.776 72.449 276.125 71.508 275.532L70.7741 275.066C69.8773 274.483 69.0076 273.843 68.0564 273.173C66.6355 272.046 65.1155 271.07 63.5179 270.26C62.2958 269.752 61.0164 269.419 59.713 269.269C58.4566 269.022 57.2455 268.56 56.1258 267.9L54.4409 267.056C53.5168 266.589 52.62 266.123 51.7232 265.57C50.8263 265.017 49.2771 264.084 47.9997 263.414C45.5702 262.019 43.3897 260.175 41.5588 257.967C41.2911 257.68 41.0372 257.379 40.7979 257.064C40.2084 256.336 39.5529 255.673 38.8411 255.084C37.8934 254.399 36.8467 253.887 35.743 253.569L35.0092 253.307C34.1395 252.986 33.2427 252.695 32.2915 252.316C31.6433 252.024 31.0241 251.663 30.4435 251.239C30.2328 251.09 30.0329 250.924 29.8455 250.743C29.6062 250.488 29.3191 250.289 29.003 250.161H28.5955C28.3806 250.134 28.1701 250.075 27.9703 249.986C27.328 249.752 26.7299 249.397 26.2039 248.937C25.5047 248.437 24.7684 247.998 24.0025 247.627L22.7523 246.957C21.4766 246.187 20.1609 245.497 18.8116 244.888C18.4023 244.736 17.985 244.609 17.5616 244.51L16.8278 244.306C16.094 244.073 15.333 243.752 14.4362 243.374C13.0229 242.762 11.7185 242.121 10.2781 241.422C9.35379 240.954 8.33707 240.734 7.31577 240.781H6.93524L5.52216 240.548V237.635L7.01688 237.49ZM6.44608 225.518L7.04407 225.809C7.69653 226.065 8.30313 226.44 8.83768 226.916C9.73401 227.66 10.7336 228.25 11.8 228.664L13.2404 229.246C13.5677 229.353 13.9048 229.421 14.2459 229.45H14.9525C15.6967 229.606 16.39 229.967 16.9636 230.499C17.1588 230.687 17.3785 230.844 17.6158 230.965C17.8214 231.017 18.0355 231.017 18.241 230.965C18.5255 230.985 18.8076 231.034 19.0835 231.11C19.6789 231.253 20.2422 231.521 20.7412 231.897C21.5662 232.434 22.4191 232.92 23.2959 233.353L24.0025 233.703L27.8888 235.829L30.6065 237.373C32.6448 238.48 34.6558 239.383 36.8028 240.286L37.428 240.577C38.243 240.929 39.0179 241.378 39.738 241.917C40.5424 242.636 41.2074 243.516 41.6948 244.51L41.8579 244.83C42.0188 245.189 42.2464 245.508 42.5268 245.768C42.8073 246.029 43.1345 246.225 43.4884 246.345C44.0182 246.463 44.5535 246.55 45.0919 246.607L46.4778 246.811L47.2661 246.957C48.0542 247.102 48.8151 247.248 49.6033 247.452C50.8416 247.843 52.0287 248.401 53.1362 249.112L54.5767 249.957C56.4791 251.064 58.463 252.229 60.3654 253.569C61.5341 254.385 62.5396 255.171 63.4365 255.928L64.0343 256.511C64.4963 256.948 65.1213 257.56 65.5018 257.56H65.7737H67.1053V258.899V260.298L65.8551 260.531H65.3387C64.5101 260.484 63.7142 260.169 63.0559 259.628C62.5668 259.249 62.0775 258.812 61.6155 258.404L60.5285 257.443C58.5755 255.879 56.5026 254.496 54.332 253.307L52.6743 252.345C51.2121 251.395 49.6282 250.679 47.9727 250.219C46.9128 249.986 45.8256 249.753 44.7657 249.636H44.4125C43.4826 249.584 42.5658 249.378 41.6948 249.025C40.6814 248.535 39.8427 247.707 39.3032 246.665L39.0042 246.112C38.6405 245.338 38.1206 244.662 37.4822 244.131C36.7708 243.693 36.0252 243.323 35.2537 243.024L34.9276 242.878C33.7318 242.383 32.5632 241.83 31.3946 241.247C29.6824 240.373 27.9703 239.441 26.2853 238.509L24.3829 237.461C23.2686 236.878 22.1816 236.266 21.0674 235.713H20.7412C20.3565 235.538 19.984 235.334 19.6269 235.101L19.1107 234.751C18.8269 234.515 18.5042 234.337 18.1594 234.227C17.9876 234.211 17.8148 234.211 17.643 234.227C17.12 234.212 16.6041 234.093 16.1211 233.878C15.7091 233.663 15.3327 233.378 15.0069 233.033L14.5992 232.712C14.3357 232.582 14.0466 232.522 13.7567 232.538H13.0229C12.4138 232.409 11.821 232.203 11.2565 231.926L10.4412 231.606C9.40109 231.216 8.40686 230.698 7.47882 230.062L6.77219 229.45C6.58438 229.237 6.3638 229.059 6.11996 228.926L5.0058 228.372L4.29916 227.819L4.00009 224.382L6.44608 225.518ZM123.579 241.539C123.172 240.938 122.809 240.305 122.492 239.645L122.22 239.15C121.894 238.538 121.541 237.927 121.16 237.344L120.861 236.878C119.836 235.294 119.056 233.543 118.551 231.693C118.334 230.906 118.144 230.12 117.954 229.334C117.434 226.687 116.516 224.149 115.236 221.818C114.536 220.803 113.713 219.892 112.79 219.109L111.676 218.061L110.915 217.274C109.882 216.255 108.876 215.235 107.789 214.361C106.702 213.487 105.072 212.206 103.849 211.157L103.387 210.807C102.513 210.082 101.687 209.293 100.914 208.448C100.56 208.069 100.207 207.691 99.8264 207.341C99.1519 206.705 98.4027 206.167 97.5979 205.739C96.9062 205.341 96.2349 204.903 95.5868 204.428C94.5739 203.56 93.6033 202.636 92.6788 201.661L91.4288 200.379C90.0428 199.068 88.7111 197.699 87.3522 196.301C87.1379 196.081 86.9899 195.796 86.9269 195.485C86.864 195.174 86.889 194.849 86.9989 194.553L87.4881 193.534H88.4122H89.0644L89.472 193.971C90.8308 195.427 92.1896 196.884 93.6844 198.224L94.9074 199.447C95.7284 200.408 96.6391 201.277 97.6251 202.04C98.0599 202.36 98.5219 202.622 98.9567 202.884C100.011 203.464 100.997 204.178 101.892 205.011L102.762 205.914C103.603 206.853 104.512 207.719 105.479 208.506C106.892 209.613 108.197 210.72 109.664 211.914C111.132 213.109 111.703 213.837 112.681 214.827L113.687 215.847L114.665 216.75C115.665 217.615 116.576 218.592 117.383 219.663C118.153 220.873 118.775 222.185 119.231 223.566L119.503 224.294C120.048 225.767 120.476 227.287 120.78 228.838L120.997 229.77C121.384 231.528 122.045 233.202 122.954 234.722L123.443 235.48L124.367 236.965L124.911 238.043C125.128 238.451 125.319 238.859 125.563 239.237C126.476 240.528 127.588 241.641 128.851 242.529C129.805 243.323 130.713 244.179 131.569 245.092L132.684 246.17C133.227 246.694 133.798 247.161 134.368 247.656C135.191 248.308 135.971 249.019 136.706 249.782L138.146 251.297C138.853 252.112 139.587 252.899 140.375 253.656C141.163 254.414 141.489 254.792 142.06 255.404C142.669 256.101 143.313 256.762 143.989 257.385C145.156 258.495 146.155 259.792 146.951 261.23C147.332 261.841 147.74 262.424 148.147 263.007C148.827 264.026 149.533 265.046 150.131 266.153C150.484 266.764 150.811 267.405 151.137 268.046C151.64 269.123 152.221 270.155 152.876 271.134C153.257 271.716 153.691 272.299 154.126 272.852C154.807 273.706 155.442 274.601 156.029 275.532L157.034 277.251C157.686 278.358 158.312 279.465 159.018 280.513C159.725 281.562 159.942 281.795 160.431 282.407C161.101 283.226 161.718 284.092 162.279 284.999C162.66 285.611 163.013 286.281 163.366 286.922C163.884 287.934 164.465 288.907 165.106 289.834C166.081 291.066 167.115 292.243 168.204 293.359L168.421 293.563C169.563 294.786 170.623 296.068 171.628 297.292C172.783 298.775 174.017 300.185 175.324 301.515C176.058 302.214 176.846 302.884 177.634 303.554C179.464 304.956 181.085 306.645 182.445 308.564C182.942 309.323 183.477 310.052 184.048 310.749C184.592 311.419 185.108 312.089 185.597 312.788C186.51 314.235 187.301 315.765 187.962 317.361L188.125 317.769C188.659 318.748 189.14 319.76 189.565 320.799C189.837 321.643 190.109 322.488 190.462 323.333C190.862 324.211 191.335 325.05 191.875 325.838L192.962 327.644L193.18 328.081C194.008 329.498 194.7 331.001 195.245 332.567C195.716 334.395 195.881 336.298 195.734 338.189C195.581 339.769 195.777 341.365 196.305 342.849C196.589 343.458 196.916 344.042 197.283 344.597C197.554 345.078 197.781 345.585 197.963 346.112C197.963 346.403 198.207 346.723 198.343 346.986C198.916 347.962 199.561 348.888 200.273 349.753L201.469 351.326C202.583 352.928 203.724 354.501 204.757 356.132L205.246 356.86C206.036 357.952 206.693 359.146 207.203 360.414C207.602 361.346 208.113 362.218 208.725 363.007C209.164 363.603 209.573 364.226 209.948 364.871C210.67 366.255 211.587 367.513 212.666 368.599L213.399 369.444L213.073 370.376L212.584 371.425H211.035L210.655 371.075C209.412 369.812 208.35 368.359 207.502 366.764C207.171 366.188 206.808 365.634 206.415 365.104C205.837 364.308 205.31 363.471 204.839 362.599C204.662 362.221 204.507 361.832 204.377 361.434C204.284 361.145 204.175 360.863 204.051 360.589C203.785 360.134 203.495 359.696 203.181 359.278L202.583 358.433C201.577 356.89 200.545 355.346 199.485 353.86L198.207 352.171C197.474 351.18 196.713 350.219 196.06 349.258C195.776 348.771 195.539 348.253 195.354 347.714L195.082 347.015C194.902 346.662 194.703 346.322 194.484 345.995C194.24 345.617 194.022 345.238 193.805 344.83C192.907 342.736 192.541 340.425 192.745 338.13C192.816 336.943 192.761 335.751 192.582 334.577C192.241 333.152 191.691 331.795 190.951 330.557L190.571 329.799C190.217 329.159 189.837 328.518 189.429 327.906C188.878 327.079 188.378 326.212 187.935 325.314C187.513 324.366 187.141 323.393 186.82 322.401C186.583 321.546 186.292 320.709 185.951 319.896L185.706 319.371C185.106 317.91 184.407 316.499 183.613 315.148C183.163 314.465 182.673 313.813 182.146 313.196C181.575 312.497 181.031 311.798 180.542 311.07C179.696 309.765 178.67 308.606 177.498 307.632C174.665 305.31 172.077 302.663 169.78 299.738C168.763 298.409 167.665 297.153 166.492 295.981C165.237 294.712 164.048 293.37 162.932 291.961C162.216 290.919 161.562 289.829 160.975 288.698L160.241 287.358C159.675 286.445 159.058 285.57 158.393 284.737C157.931 284.183 157.496 283.601 157.088 283.018C156.273 281.853 155.567 280.601 154.86 279.377L154.017 277.95C153.385 276.935 152.695 275.962 151.952 275.037L150.974 273.697C150.184 272.515 149.467 271.279 148.827 269.998C148.582 269.502 148.337 269.007 148.066 268.512C147.386 267.289 146.625 266.153 145.837 264.958L145.103 263.851C144.859 263.502 144.641 263.123 144.424 262.745C144.207 262.366 143.962 261.958 143.69 261.579C143.272 261.011 142.788 260.502 142.25 260.065C141.504 259.392 140.796 258.672 140.13 257.909C139.641 257.356 139.152 256.831 138.635 256.336C138.119 255.841 137.086 254.705 136.325 253.86L134.695 252.142C134.073 251.53 133.419 250.956 132.738 250.423C132.14 249.899 131.542 249.403 130.971 248.85L130.047 247.976C129.001 246.943 127.903 245.97 126.759 245.063C125.528 244.081 124.454 242.89 123.579 241.539Z" fill="#202147"/>
<path d="M1562.16 423.965C1564.59 421.288 1567.2 418.824 1569.99 416.595C1571.91 414.953 1573.91 413.436 1576 412.051C1578.35 410.266 1580.55 408.247 1582.55 406.022C1586.84 401.722 1590.51 396.753 1593.42 391.282C1596.33 385.456 1598.85 379.135 1601.95 373.251C1604.15 368.157 1606.99 363.405 1610.38 359.124C1614.18 355.046 1618.34 351.434 1622.06 347.268C1625.96 343.008 1629.17 338.087 1631.57 332.704C1632.88 329.791 1634.29 326.878 1635.95 323.965C1637.31 321.035 1638.39 317.959 1639.16 314.789C1640.08 311.877 1641.52 309.197 1642.5 306.313C1643.29 303.523 1643.92 300.682 1644.37 297.807C1646.05 292.467 1648.47 287.429 1651.55 282.864C1654.36 277.111 1656.66 271.083 1658.4 264.862C1659.62 261.884 1660.7 258.841 1661.63 255.745C1662.14 252.523 1662.04 249.224 1661.33 246.045C1660.42 240.741 1660.26 235.322 1660.84 229.966C1661.2 227.053 1661.55 224.14 1661.96 221.227C1662.12 219.887 1662.45 218.635 1662.69 217.324C1663 215.499 1663.11 213.641 1663.02 211.789C1663.02 205.264 1663.02 198.769 1663.29 192.244C1663.6 188.961 1663.42 185.647 1662.75 182.427C1662.35 181.268 1662.08 180.067 1661.93 178.844C1661.93 177.242 1662.12 175.669 1661.93 174.067C1661.61 167.309 1658.34 160.959 1655.3 155.221C1653.88 152.924 1652.87 150.366 1652.31 147.676C1651.82 144.559 1651.22 141.443 1650.71 138.326C1650.19 135.209 1649.81 132.209 1649.24 129.208C1648.75 126.703 1647.64 124.431 1647.34 121.868C1647.12 118.835 1647.07 115.791 1647.17 112.751C1647.17 109.401 1647.17 106.051 1647.17 102.701C1647.21 99.8345 1647.49 96.9774 1648.02 94.1663C1648.29 91.5916 1648.94 89.0771 1649.92 86.7093C1650.85 84.3629 1652.09 82.167 1653.59 80.1843C1655.22 78.2576 1656.96 76.4294 1658.78 74.7081C1659.91 73.7348 1660.82 72.5018 1661.45 71.1001C1662.07 69.6985 1662.4 68.164 1662.39 66.6102C1662.41 63.5399 1662.13 60.4756 1661.58 57.4637C1660.51 51.5204 1659.93 45.4859 1659.87 39.4329C1659.87 35.2092 1660.03 29.4999 1664.16 27.3152C1665.57 26.5578 1666.71 27.3152 1668.02 28.0143C1670.74 29.4416 1674 28.9464 1676.93 29.995C1679.34 30.6646 1681.78 31.1897 1684.24 31.568C1686.96 32.1506 1689.68 32.3836 1692.4 33.0244C1695.11 33.6653 1697.83 34.9761 1700.55 35.9374C1703.27 36.8986 1705.99 37.6851 1708.7 38.7046C1711.24 39.7429 1713.72 40.9393 1716.12 42.2875C1718.84 43.6814 1721.65 44.8784 1724.52 45.8704C1727.2 46.9908 1729.99 47.8013 1732.84 48.2881C1735.4 48.5791 1737.99 48.5791 1740.55 48.2881C1745.44 47.3426 1750.44 47.1953 1755.37 47.8512C1760.8 49.0454 1765.48 53.1526 1769.99 56.3568C1772.43 58.0754 1774.85 59.9106 1777.43 61.367C1780.02 62.8235 1782.35 63.1147 1784.61 64.5421C1786.86 65.9694 1788.79 67.8628 1791.08 69.2027C1793.36 70.5427 1795.81 71.8826 1798.14 73.3973C1800.87 75.0978 1803.78 76.447 1806.81 77.4171C1809.53 78.3201 1812.06 79.427 1814.75 80.33C1816.25 80.781 1817.79 81.0737 1819.34 81.2039C1820.61 81.2141 1821.88 81.3113 1823.15 81.4951C1824.09 81.7914 1825 82.1916 1825.86 82.6894C1827.49 83.4416 1829.25 83.8282 1831.03 83.8255C1836.3 84.0585 1841 83.8255 1845.51 87.088C1846.56 87.9076 1847.72 88.5646 1848.94 89.0396C1850 89.3404 1851.05 89.73 1852.06 90.2047C1853.89 91.2877 1855.59 92.5873 1857.14 94.0789C1858.76 95.603 1860.19 97.3459 1861.38 99.2639C1862.96 101.778 1865.14 103.791 1867.69 105.09C1870.11 106.371 1872.53 107.537 1874.84 109.051C1877.15 110.566 1879.59 112.372 1882.01 113.974C1886.96 117.295 1891.93 120.645 1897.01 123.703C1899.4 125.16 1901.88 126.441 1904.19 127.985C1906.5 129.529 1908.16 132.471 1910.66 132.092C1910.9 132.092 1911.01 132.471 1910.66 132.5C1909.99 132.603 1909.32 132.53 1908.68 132.286C1908.05 132.042 1907.49 131.635 1907.04 131.102L1906.36 130.461C1907.5 131.859 1908.45 133.374 1909.68 134.83C1911.26 136.259 1912.99 137.481 1914.84 138.471C1918.59 141.064 1918.48 146.132 1918.37 150.414C1918.24 157.085 1918.37 163.755 1918.37 170.426C1918.37 177.097 1918.24 184.146 1918.65 191.02C1919.05 197.895 1919.13 204.594 1920.14 211.236C1920.6 214.149 1921.12 217.062 1921.39 220.178C1921.66 223.295 1921.53 226.82 1921.39 230.17C1921.39 237.044 1921.39 243.889 1921.39 250.764C1921.32 254.229 1921.49 257.694 1921.88 261.134C1922.31 264.28 1922.89 267.397 1923.32 270.513C1924.16 276.951 1924.03 283.388 1924.68 289.826C1925.33 296.263 1927.4 303.08 1928.43 309.779C1929.41 315.98 1929.97 322.25 1930.09 328.538C1930.09 341.763 1929.22 355.104 1930.09 368.3C1930.96 381.495 1933.65 393.933 1933.21 406.895C1932.94 415.575 1931.31 424.143 1928.37 432.238C1925.66 439.083 1921.23 444.88 1913.73 443.889C1910.84 443.366 1907.93 443.016 1905 442.841C1901.96 442.841 1898.94 442.287 1895.93 441.909C1893.16 441.292 1890.37 440.835 1887.55 440.539C1884.64 440.423 1881.73 440.54 1878.83 440.889C1875.94 441.374 1873.03 441.656 1870.11 441.734C1867.29 441.626 1864.49 441.315 1861.71 440.802C1858.67 440.277 1855.62 439.549 1852.55 439.316C1849.61 439.141 1846.66 439.141 1843.72 439.316C1831.2 439.557 1818.68 438.807 1806.27 437.073C1803.55 436.724 1800.67 437.073 1797.95 436.549C1795.23 436.024 1792.14 434.888 1789.17 434.248C1782.96 432.604 1776.52 432.131 1770.15 432.849C1764.2 433.495 1758.22 433.719 1752.24 433.519C1745.98 433.85 1739.71 433.772 1733.46 433.286C1727.27 432.244 1721.03 431.534 1714.76 431.16C1708.32 431.16 1701.83 431.713 1695.39 431.16C1692.37 430.84 1689.41 430.344 1686.39 430.199C1683.37 430.053 1680.36 430.199 1677.31 430.199C1674.27 430.199 1671.17 429.587 1668.1 429.325C1665.03 429.063 1661.88 429.004 1658.75 428.975C1652.42 428.975 1646.09 429.15 1639.73 428.975C1633.37 428.8 1627.44 427.898 1621.27 427.373C1615.11 426.849 1608.83 426.82 1602.58 426.849C1596.35 426.717 1590.11 426.951 1583.91 427.548C1578.11 428.392 1572.24 428.48 1566.43 427.81C1565.26 427.635 1564.09 427.431 1562.95 427.14C1562.41 426.994 1561.32 426.965 1561.05 426.383C1560.78 425.8 1561.67 424.489 1562.16 423.965Z" fill="#EEDAAE"/>
<path d="M1858.32 187.628H1857.39H1856.82L1856.44 187.307C1854.87 185.88 1853.26 184.394 1851.63 183.142L1850.98 182.617L1849.62 181.511L1848.64 180.637C1848.29 180.266 1847.91 179.925 1847.5 179.617C1846.87 179.164 1846.17 178.838 1845.44 178.656C1844.48 178.316 1843.57 177.857 1842.72 177.287C1841.1 176.223 1839.43 175.251 1837.72 174.374C1835.95 173.542 1834.13 172.822 1832.28 172.218C1830.51 171.582 1828.81 170.722 1827.23 169.655C1825.71 168.694 1824.13 167.849 1822.55 166.975C1820.91 166.064 1819.4 164.895 1818.07 163.509C1816.74 162.39 1815.19 161.63 1813.53 161.295C1812.6 161.052 1811.68 160.71 1810.81 160.275C1810.14 159.946 1809.4 159.806 1808.67 159.868H1807.88H1806.44V158.411V156.867H1809.15C1809.7 156.863 1810.24 156.942 1810.76 157.1C1811.23 157.256 1811.68 157.461 1812.12 157.712C1812.44 157.883 1812.78 158.029 1813.12 158.149L1813.8 158.353C1815.14 158.684 1816.44 159.162 1817.69 159.78C1818.68 160.34 1819.6 161.046 1820.41 161.878C1820.92 162.391 1821.48 162.859 1822.06 163.276C1822.94 163.835 1823.85 164.341 1824.78 164.791C1825.52 165.169 1826.25 165.548 1826.96 165.985L1828.23 166.8C1829.45 167.611 1830.72 168.322 1832.04 168.927C1832.85 169.276 1833.7 169.568 1834.51 169.859C1835.33 170.15 1836.6 170.587 1837.61 171.053C1839.4 171.861 1841.15 172.765 1842.85 173.762L1843.78 174.345C1844.31 174.705 1844.86 175.026 1845.44 175.306L1846.36 175.627C1846.94 175.783 1847.5 175.998 1848.04 176.267C1848.92 176.776 1849.73 177.402 1850.46 178.132C1851.2 178.831 1851.99 179.471 1852.77 180.112L1853.32 180.578C1855.06 181.929 1856.72 183.399 1858.29 184.977L1858.97 185.793L1858.64 186.696L1858.32 187.628ZM1864.89 270.005C1864.27 269.276 1863.64 268.548 1862.99 267.849C1862.34 267.15 1861.63 266.334 1860.95 265.519C1860.27 264.703 1860.22 264.616 1859.81 264.179L1858.7 262.984C1857.95 262.245 1857.25 261.446 1856.61 260.596L1856.17 259.955C1855.64 259.071 1854.96 258.3 1854.16 257.683C1853.56 257.304 1852.94 256.955 1852.31 256.634C1851.59 256.257 1850.88 255.839 1850.19 255.382L1849 254.595C1846.77 253.081 1844.51 251.682 1842.26 250.139C1841.4 249.61 1840.49 249.19 1839.54 248.886L1838.21 248.391C1836.83 247.852 1835.49 247.199 1834.21 246.439C1833.53 246.037 1832.88 245.59 1832.26 245.099L1831.77 244.691C1831.53 244.447 1831.27 244.241 1830.98 244.08C1830.66 243.958 1830.31 243.908 1829.97 243.934H1828.48C1828.18 243.964 1827.88 243.964 1827.58 243.934C1826.88 243.848 1826.2 243.631 1825.57 243.293C1825.14 243.011 1824.75 242.657 1824.43 242.245L1824.02 241.808C1823.66 241.563 1823.28 241.358 1822.88 241.196L1822.5 241.05L1821.33 240.468L1820.16 239.856C1819.67 239.686 1819.17 239.559 1818.67 239.477H1818.39C1817.82 239.4 1817.27 239.147 1816.82 238.749C1816.18 238.046 1815.74 237.169 1815.54 236.215V235.894C1815.54 235.894 1815.27 235.195 1813.72 234.03C1813.21 233.703 1812.66 233.449 1812.09 233.273C1811.34 233.026 1810.62 232.684 1809.94 232.253C1809.26 231.729 1808.7 231.053 1808.28 230.273C1808.1 229.944 1807.89 229.632 1807.66 229.34C1806.71 228.241 1805.58 227.342 1804.32 226.69C1803.76 226.487 1803.25 226.136 1802.85 225.67C1801.38 224.651 1799.89 223.748 1798.39 222.757L1797.31 222.058C1795.12 220.717 1793 219.239 1790.97 217.631C1790.12 216.991 1789.21 216.435 1788.26 215.97C1787.17 215.431 1786.14 214.777 1785.18 214.019C1784.53 213.515 1783.84 213.067 1783.12 212.679L1782.22 212.154L1779.8 210.61L1778.47 209.766C1777.59 209.197 1776.69 208.681 1775.75 208.222C1774.39 207.548 1773.07 206.769 1771.81 205.892C1770.81 205.163 1769.72 204.552 1768.58 203.882C1767.44 203.212 1766.68 202.804 1765.86 202.192C1765.09 201.681 1764.29 201.214 1763.47 200.794C1762.08 200.173 1760.77 199.382 1759.56 198.435C1758.81 197.865 1758.02 197.368 1757.19 196.949L1756.76 196.716C1756.22 196.411 1755.7 196.061 1755.21 195.667C1754.76 195.28 1754.27 194.957 1753.74 194.706C1753.01 194.417 1752.24 194.269 1751.46 194.269H1750.34C1748.93 194.055 1747.5 193.938 1746.08 193.92H1739.8C1739.23 193.908 1738.67 193.967 1738.11 194.094C1736.45 194.465 1734.76 194.64 1733.06 194.619H1730.72H1728.71C1727.05 194.667 1725.38 194.559 1723.74 194.298L1721.32 193.89C1719.54 193.616 1717.79 193.188 1716.07 192.609C1713.84 191.915 1711.76 190.746 1709.96 189.172C1709.24 188.53 1708.44 188.018 1707.57 187.657L1706.48 187.366C1705.76 187.226 1705.06 187.011 1704.39 186.725C1703.27 186.144 1702.04 185.817 1700.8 185.763H1699.28C1698.35 185.763 1697.43 185.763 1696.56 185.763C1694.14 185.472 1691.75 184.975 1689.41 184.278L1688.3 183.987C1687.48 183.778 1686.67 183.526 1685.88 183.229C1685.2 182.967 1684.52 182.617 1683.87 182.297C1683.22 181.977 1682.78 181.744 1682.24 181.511C1680.79 180.953 1679.31 180.515 1677.81 180.2C1676.78 179.938 1675.74 179.705 1674.74 179.384L1674.03 179.151C1672.11 178.74 1670.3 177.852 1668.76 176.559L1668 175.86L1668.32 174.898L1668.7 173.879H1670.2L1670.55 174.199C1672.29 175.417 1674.24 176.231 1676.29 176.588L1677.67 176.937L1679.44 177.403C1681.3 177.813 1683.12 178.418 1684.87 179.209C1689.62 181.506 1694.78 182.678 1699.98 182.647H1700.31C1701.45 182.605 1702.6 182.733 1703.71 183.025C1704.26 183.205 1704.79 183.429 1705.31 183.695C1705.8 183.944 1706.31 184.14 1706.83 184.278L1707.38 184.423C1708.21 184.549 1709.01 184.815 1709.77 185.21C1710.6 185.681 1711.39 186.247 1712.11 186.899L1712.81 187.453C1714.66 188.787 1716.76 189.69 1718.95 190.104C1720.18 190.403 1721.42 190.607 1722.68 190.715C1723.34 190.777 1724.01 190.884 1724.66 191.036C1725.23 191.168 1725.82 191.255 1726.4 191.298H1726.94H1728.25H1729.66H1731.86H1733.79C1734.98 191.278 1736.15 191.111 1737.3 190.803C1738.03 190.622 1738.78 190.543 1739.53 190.57H1745.97C1747.01 190.511 1748.05 190.511 1749.09 190.57H1750.21C1752.34 190.556 1754.44 191.15 1756.3 192.288C1757.06 192.842 1757.87 193.337 1758.69 193.832C1759.75 194.462 1760.79 195.152 1761.79 195.9C1762.37 196.334 1763 196.696 1763.66 196.978L1764.64 197.473C1765.57 197.991 1766.48 198.564 1767.36 199.192L1768.01 199.629C1768.98 200.268 1769.97 200.852 1771 201.377C1771.71 201.739 1772.39 202.168 1773.04 202.658L1774.15 203.416C1774.73 203.767 1775.33 204.078 1775.94 204.348L1777.11 204.901C1778.15 205.455 1779.15 206.095 1780.13 206.736L1780.86 207.231L1782.82 208.455C1784.37 209.416 1785.97 210.407 1787.47 211.543C1788.23 212.096 1789.04 212.533 1789.89 213.028C1791.04 213.622 1792.14 214.334 1793.17 215.155C1795.16 216.752 1797.26 218.175 1799.45 219.407L1800.57 220.077C1801.3 220.485 1802.01 220.893 1802.71 221.359L1803.28 221.767C1803.59 221.91 1803.87 222.118 1804.1 222.379C1804.78 222.874 1805.43 223.369 1806.14 223.806C1806.49 224.001 1806.85 224.166 1807.22 224.301C1807.87 224.56 1808.49 224.892 1809.07 225.291L1810.32 226.253C1810.89 226.719 1811.49 227.185 1812.09 227.593C1813.38 228.367 1814.76 228.945 1816.19 229.311C1817.09 229.573 1818.01 229.865 1818.91 230.214L1820.11 230.768C1820.65 231.063 1821.21 231.306 1821.79 231.496C1822.47 231.671 1823.18 231.816 1823.86 231.933L1825.62 232.312C1826.55 232.565 1827.45 232.877 1828.34 233.244L1829.02 233.506C1830.01 233.824 1831.04 233.971 1832.06 233.943H1832.34H1834.16H1836.41C1837.32 233.923 1838.23 234.001 1839.13 234.176C1841.14 234.746 1843.01 235.813 1844.57 237.293L1845.22 237.846C1845.71 238.225 1846.2 238.545 1846.71 238.895C1847.15 239.149 1847.56 239.431 1847.96 239.739C1848.62 240.222 1849.24 240.747 1849.84 241.312L1850.52 241.924C1852.2 243.27 1854.03 244.403 1855.95 245.303L1857.72 246.206C1858.69 246.642 1859.6 247.21 1860.44 247.896C1860.92 248.306 1861.37 248.765 1861.77 249.265C1862.17 249.729 1862.61 250.158 1863.07 250.546C1863.83 251.15 1864.48 251.889 1865 252.731C1865.27 253.268 1865.72 253.675 1866.25 253.867C1866.66 254.037 1867.03 254.295 1867.34 254.624C1867.55 254.816 1867.74 255.031 1867.91 255.265C1868.13 255.498 1868.26 255.673 1868.43 255.819L1869.05 256.197L1869.9 256.751C1870.43 257.136 1870.93 257.554 1871.42 258.003C1871.9 258.453 1872.41 258.871 1872.94 259.256C1873.97 259.984 1874.98 260.742 1876.01 261.528C1877.04 262.314 1877.91 262.984 1878.89 263.684C1879.87 264.383 1881.39 265.548 1882.64 266.596C1883.48 267.266 1884.3 267.936 1885.17 268.577C1887.05 269.909 1888.99 271.134 1890.98 272.247L1891.53 272.568C1893.49 273.661 1895.32 275.022 1896.96 276.617C1897.37 277.052 1897.75 277.509 1898.11 277.986C1898.4 278.376 1898.72 278.745 1899.06 279.093C1899.41 279.411 1899.82 279.658 1900.25 279.821C1900.87 280.059 1901.46 280.392 1901.99 280.811C1902.45 281.219 1902.86 281.627 1903.27 282.064C1903.7 282.529 1904.16 282.957 1904.65 283.346C1905.53 284.001 1906.44 284.604 1907.37 285.152L1907.7 285.385C1909.33 286.375 1910.88 287.482 1912.43 288.589L1914.19 289.841L1917.43 291.997C1919.71 293.404 1921.89 294.971 1923.98 296.687L1924.47 297.095L1924.71 301.755L1922.29 299.6C1921.03 298.483 1919.71 297.452 1918.32 296.512L1913.84 293.424C1911.12 291.502 1908.11 289.492 1905.2 287.598C1904.13 286.952 1903.11 286.232 1902.13 285.443C1901.71 285.096 1901.32 284.716 1900.96 284.307C1900.6 283.843 1900.17 283.449 1899.68 283.142L1899.22 282.967C1898.42 282.661 1897.68 282.196 1897.05 281.598C1896.56 281.109 1896.1 280.583 1895.69 280.025C1895.36 279.617 1895.03 279.209 1894.68 278.831C1893.04 277.279 1891.21 275.966 1889.25 274.927C1886.97 273.648 1884.79 272.208 1882.7 270.616L1876.31 265.781L1874.9 264.645L1873.48 263.509L1872.21 262.635C1871.58 262.227 1870.98 261.819 1870.41 261.382C1869.99 261.058 1869.58 260.708 1869.19 260.334C1868.75 259.914 1868.28 259.534 1867.78 259.198L1867.45 258.994C1867.05 258.762 1866.67 258.499 1866.31 258.207C1866.05 257.976 1865.82 257.712 1865.63 257.421C1865.54 257.29 1865.44 257.173 1865.33 257.071C1865.12 256.886 1864.89 256.73 1864.65 256.605C1863.97 256.315 1863.37 255.844 1862.91 255.236C1862.77 255.003 1862.61 254.77 1862.5 254.537L1862.23 254.129C1861.97 253.796 1861.67 253.502 1861.33 253.255L1860.79 252.818C1860.35 252.401 1859.93 251.954 1859.54 251.478C1859.23 251.1 1858.9 250.749 1858.54 250.43C1857.7 249.766 1856.78 249.218 1855.82 248.799L1854.59 248.187C1852.45 247.222 1850.43 245.969 1848.59 244.458C1847.58 243.584 1846.52 242.798 1845.46 242.012C1844.4 241.225 1843.72 240.73 1842.88 240.031C1841.21 238.318 1839.02 237.287 1836.71 237.118H1836.41H1834.29H1831.98C1831.27 237.127 1830.55 237.078 1829.84 236.972C1828.97 236.807 1828.13 236.553 1827.31 236.215C1827 236.081 1826.68 235.964 1826.36 235.865C1825.24 235.506 1824.11 235.224 1822.96 235.021H1822.61C1821.55 234.859 1820.51 234.576 1819.51 234.176L1818.78 233.855C1818.26 233.593 1817.74 233.359 1817.2 233.156C1817.65 233.727 1817.98 234.391 1818.18 235.108C1818.18 235.312 1818.18 235.545 1818.42 235.807C1818.67 236.069 1818.42 236.04 1819.4 236.186C1819.86 236.264 1820.32 236.381 1820.76 236.535C1822.12 237.118 1823.48 237.846 1824.67 238.487C1825.32 238.813 1825.9 239.291 1826.36 239.885C1826.56 240.102 1826.8 240.273 1827.07 240.388C1827.34 240.503 1827.62 240.56 1827.91 240.555H1829.81C1830.47 240.536 1831.12 240.645 1831.74 240.876C1832.53 241.225 1833.25 241.718 1833.89 242.332C1834.18 242.612 1834.5 242.865 1834.84 243.089C1836.14 243.935 1837.53 244.638 1838.97 245.187L1840.25 245.653C1841.18 245.968 1842.09 246.368 1842.96 246.847C1843.72 247.255 1844.43 247.75 1845.16 248.245C1845.76 248.687 1846.38 249.095 1847.01 249.469C1848.15 250.109 1849.21 250.867 1850.25 251.566L1851.17 252.207C1851.9 252.704 1852.65 253.151 1853.43 253.547C1854 253.867 1854.54 254.158 1855.08 254.508C1856.32 255.28 1857.37 256.335 1858.18 257.596C1859 258.72 1859.91 259.764 1860.9 260.712L1861.2 261.033C1861.82 261.703 1862.39 262.431 1862.99 263.13C1863.59 263.829 1863.86 264.208 1864.32 264.703L1865.6 266.101C1866.25 266.829 1866.91 267.529 1867.53 268.257C1868.46 269.435 1869.51 270.499 1870.66 271.432C1872.02 272.48 1873.05 273.325 1874 274.199C1875.19 275.314 1876.5 276.291 1877.89 277.112C1878.77 277.582 1879.67 277.991 1880.6 278.335C1881.2 278.568 1881.8 278.831 1882.37 279.122C1883.26 279.514 1884.16 279.855 1885.09 280.141L1886.58 280.666C1887.59 281.116 1888.52 281.768 1889.3 282.588L1889.87 283.113C1890.58 283.724 1891.28 284.278 1892.02 284.86C1893.79 286.161 1895.42 287.665 1896.88 289.346C1897.51 290.104 1898.08 290.919 1898.65 291.735C1899.22 292.55 1899.3 292.638 1899.65 293.075C1900.01 293.512 1900.42 294.065 1900.82 294.531C1901.23 294.997 1901.88 295.813 1902.37 296.483C1903.29 297.845 1904.14 299.265 1904.9 300.736C1905.71 302.247 1906.62 303.697 1907.62 305.076C1909.25 307.261 1911.07 309.358 1912.81 311.397L1914.09 312.882C1915.11 314.06 1916.07 315.295 1916.97 316.582C1917.31 317.118 1917.71 317.607 1918.16 318.038C1918.37 318.2 1918.6 318.319 1918.84 318.388C1919.27 318.558 1919.68 318.783 1920.06 319.058C1920.41 319.329 1920.73 319.642 1921.02 319.99L1921.45 320.427C1922.09 320.982 1922.79 321.469 1923.52 321.883L1924.71 322.582C1925.66 323.121 1926.57 323.735 1927.43 324.418C1927.62 324.554 1927.81 324.71 1927.97 324.884L1928.35 325.204L1928.52 325.991L1927.18 326.427L1928.52 326.136L1929.25 330.098L1926.04 327.185C1925.81 326.947 1925.55 326.732 1925.28 326.544C1924.6 326.049 1923.84 325.612 1923.11 325.175L1921.53 324.243C1920.88 323.833 1920.26 323.386 1919.66 322.903C1919.38 322.657 1919.12 322.394 1918.87 322.116C1918.62 321.821 1918.34 321.566 1918.03 321.359L1917.59 321.184C1917.19 321.034 1916.8 320.828 1916.45 320.573C1915.81 320.042 1915.24 319.414 1914.76 318.708C1913.38 316.786 1911.83 314.951 1910.33 313.203L1908.24 310.698C1906.17 308.341 1904.34 305.742 1902.81 302.949C1902.13 301.639 1901.39 300.299 1900.61 299.075C1900.04 298.229 1899.42 297.421 1898.76 296.658L1897.67 295.289L1896.37 293.512C1895.93 292.929 1895.5 292.317 1895.03 291.735C1894.18 290.648 1893.22 289.671 1892.15 288.822L1888.29 285.589L1887.48 284.889C1886.81 284.195 1886.02 283.659 1885.14 283.317C1883.85 282.932 1882.59 282.455 1881.36 281.889C1880.77 281.598 1880.14 281.336 1879.54 281.103C1878.55 280.702 1877.58 280.245 1876.64 279.734C1875.29 278.972 1874.01 278.085 1872.8 277.083L1872.1 276.442C1871.17 275.626 1870.25 274.84 1869.38 274.112C1867.74 272.93 1866.24 271.552 1864.89 270.005ZM1792.6 153.255H1791.14L1790.78 152.993C1790.36 152.699 1789.9 152.454 1789.42 152.265L1788.72 151.945C1788.01 151.578 1787.36 151.118 1786.76 150.576L1786.16 150.109C1785.62 149.741 1785.02 149.466 1784.4 149.294L1783.66 149.003C1783.12 148.828 1782.6 148.595 1782.06 148.362L1780.62 147.779L1779.72 147.459C1779.15 147.276 1778.59 147.062 1778.04 146.818L1776.87 146.264C1776.24 145.913 1775.59 145.63 1774.91 145.42L1774.18 145.216C1773.35 145.147 1772.55 144.84 1771.87 144.327C1771.2 143.815 1770.66 143.115 1770.32 142.303C1770.18 141.982 1770.1 141.662 1769.99 141.342C1769.86 140.865 1769.68 140.406 1769.45 139.973C1769.06 139.36 1768.6 138.811 1768.06 138.341L1767.57 137.846C1766.09 136.309 1764.69 134.675 1763.39 132.952C1763.01 132.426 1762.55 131.973 1762.03 131.613C1761.42 131.277 1760.75 131.051 1760.07 130.943L1759.42 130.768C1758.61 130.546 1757.83 130.233 1757.08 129.836L1755.7 129.224C1754.91 128.845 1754.12 128.496 1753.33 128.059C1752.18 127.377 1751.06 126.618 1749.99 125.787L1748.22 124.505C1747.06 123.762 1745.86 123.081 1744.64 122.466L1742.65 121.447C1741.89 121.05 1741.09 120.738 1740.26 120.514C1739.61 120.306 1738.99 120.013 1738.41 119.64L1737.73 119.262C1736.08 118.417 1734.28 117.747 1732.57 117.077L1731.65 116.728C1730.69 116.378 1729.77 115.941 1728.93 115.533C1728.09 115.125 1726.81 114.572 1725.72 114.193L1723.63 113.553L1723.03 113.378C1722.43 113.378 1721.86 113.028 1721.29 112.824L1719.96 112.358L1718.44 111.98L1717.02 111.63C1716.09 111.34 1715.18 110.96 1714.31 110.494L1713.98 110.348C1713.07 109.877 1712.1 109.572 1711.1 109.445C1710.17 109.351 1709.28 108.967 1708.55 108.338C1707.38 107.608 1706.06 107.179 1704.71 107.086C1703.98 107.086 1703.25 106.824 1702.54 106.649L1701.83 106.445C1699.58 105.833 1697.32 105.222 1695.09 104.552L1694.25 104.289C1693.38 104.027 1692.54 103.794 1691.72 103.474C1690.98 103.199 1690.26 102.828 1689.6 102.367L1688.84 101.901C1688.5 101.755 1688.14 101.638 1687.78 101.551C1687.29 101.454 1686.8 101.298 1686.34 101.085C1685.51 100.595 1684.82 99.8822 1684.33 99.0171L1683.84 98.2307L1684.19 97.4151L1684.66 96.5703H1686.18L1686.59 97.1529C1687.18 97.9976 1687.4 98.2307 1687.92 98.3472C1688.87 98.5314 1689.79 98.8859 1690.64 99.3958C1692.17 100.295 1693.82 100.952 1695.53 101.347L1696.04 101.493C1697.19 101.843 1698.35 102.134 1699.5 102.454L1702.51 103.27C1703.33 103.503 1704.14 103.62 1704.96 103.765C1706.18 103.935 1707.39 104.218 1708.57 104.61C1709.14 104.855 1709.68 105.168 1710.18 105.542L1710.8 105.979C1711.17 106.132 1711.57 106.221 1711.97 106.241C1712.51 106.285 1713.05 106.392 1713.57 106.562C1714.33 106.853 1715.04 107.202 1715.77 107.552L1716.13 107.727C1717.13 108.178 1718.18 108.51 1719.25 108.717C1720.5 109.008 1721.7 109.416 1722.92 109.795C1723.66 110.057 1724.42 110.29 1725.15 110.494C1726.56 110.945 1727.94 111.49 1729.28 112.125L1731.32 112.97L1733.49 113.844C1734.74 114.31 1735.99 114.776 1737.22 115.3C1738.44 115.825 1739.04 116.116 1739.93 116.611L1740.26 116.815C1740.51 116.968 1740.76 117.104 1741.02 117.223H1741.59C1741.9 117.273 1742.2 117.351 1742.49 117.456C1743.11 117.698 1743.71 118 1744.28 118.359L1744.77 118.621L1747.76 120.165C1749.15 120.949 1750.48 121.835 1751.76 122.816L1753.01 123.719C1754.6 124.762 1756.27 125.658 1758.01 126.398L1758.61 126.69C1759.48 127.092 1760.39 127.394 1761.32 127.593C1762.35 127.799 1763.33 128.215 1764.2 128.816C1765.16 129.587 1765.99 130.51 1766.68 131.554C1767 131.991 1767.33 132.457 1767.68 132.865C1768.04 133.273 1768.72 133.943 1769.23 134.467C1770.21 135.351 1771.12 136.326 1771.95 137.38C1772.51 138.276 1772.94 139.258 1773.23 140.293C1773.32 140.641 1773.46 140.975 1773.63 141.283C1773.96 141.477 1774.32 141.596 1774.69 141.633C1776.19 142.04 1777.66 142.586 1779.07 143.264C1779.86 143.585 1780.62 143.934 1781.41 144.225L1783.42 145.041L1784.61 145.507L1785.46 145.828C1786.31 146.082 1787.13 146.454 1787.9 146.934L1788.85 147.692C1789.22 148.034 1789.62 148.336 1790.05 148.595L1790.76 148.944C1791.48 149.246 1792.17 149.647 1792.79 150.139L1793.61 150.925L1793.28 151.915L1792.6 153.255ZM1661.26 272.422H1662.02C1663.28 272.376 1664.54 272.645 1665.69 273.209C1667.18 273.966 1668.68 274.694 1670.2 275.335C1670.82 275.597 1671.45 275.772 1672.1 275.976C1672.87 276.194 1673.62 276.457 1674.36 276.763C1675.71 277.363 1677.04 278.043 1678.32 278.801L1679.6 279.501C1680.6 279.998 1681.57 280.582 1682.48 281.248C1682.74 281.484 1683.04 281.671 1683.35 281.802H1683.73C1684.09 281.882 1684.45 281.989 1684.79 282.122C1685.36 282.43 1685.88 282.823 1686.34 283.287C1686.87 283.722 1687.46 284.066 1688.08 284.307C1688.78 284.617 1689.5 284.88 1690.23 285.093C1691.92 285.577 1693.53 286.365 1694.98 287.424C1695.77 288.093 1696.51 288.834 1697.19 289.637L1697.81 290.366C1698.67 291.386 1699.58 292.358 1700.53 293.279C1701.57 294.212 1702.72 294.996 1703.95 295.609C1704.93 296.104 1705.85 296.716 1706.81 297.298L1707.84 297.91C1708.56 298.354 1709.3 298.753 1710.07 299.104L1711.72 299.92L1712.05 300.124C1712.54 300.42 1713.06 300.655 1713.6 300.823C1713.98 300.919 1714.38 300.987 1714.77 301.027H1715.5C1718.48 301.639 1721.28 303.018 1723.66 305.047C1724.96 306.066 1725.99 306.824 1727.08 307.523C1728.29 308.25 1729.44 309.077 1730.53 309.999C1731.48 310.868 1732.39 311.792 1733.25 312.766C1734.27 313.977 1735.4 315.08 1736.62 316.058C1737.13 316.433 1737.66 316.764 1738.22 317.048C1738.79 317.368 1739.36 317.718 1739.91 318.097C1740.91 318.813 1741.82 319.665 1742.63 320.631C1742.9 320.952 1743.15 321.292 1743.39 321.65C1743.74 322.257 1744.2 322.782 1744.74 323.194C1745.1 323.363 1745.47 323.471 1745.86 323.515C1746.56 323.615 1747.24 323.842 1747.87 324.185C1748.18 324.388 1748.48 324.612 1748.77 324.854L1749.17 325.175C1749.59 325.462 1750.03 325.715 1750.48 325.932L1750.83 326.107C1751.65 326.562 1752.41 327.109 1753.12 327.738C1753.55 328.088 1753.99 328.437 1754.42 328.729L1755.26 329.253C1756.17 329.751 1757 330.389 1757.74 331.146C1758.1 331.582 1758.45 332.039 1758.77 332.515C1759.13 333.081 1759.55 333.599 1760.02 334.059C1760.56 334.525 1761.16 334.904 1761.73 335.312C1762.39 335.697 1763.01 336.136 1763.61 336.623C1764.76 337.598 1765.79 338.724 1766.68 339.972C1767.59 341.295 1768.38 342.709 1769.04 344.196C1769.53 345.283 1770.08 346.334 1770.7 347.342C1770.97 347.75 1771.24 348.187 1771.54 348.595C1771.84 349.002 1772.57 350.168 1773.04 350.983C1773.73 352.273 1774.33 353.617 1774.83 355.003V355.353C1775.47 356.903 1776 358.5 1776.43 360.13C1776.75 361.262 1777.2 362.347 1777.77 363.363L1778.23 364.295C1778.9 365.726 1779.35 367.259 1779.59 368.839V369.509C1779.59 369.975 1779.75 370.441 1779.86 370.878C1779.94 371.218 1780.05 371.55 1780.18 371.869C1780.32 372.247 1780.46 372.626 1780.56 373.034C1780.82 374.227 1780.9 375.455 1780.81 376.675V377.578V379.122H1779.45H1777.98V376.762C1778.08 375.657 1777.98 374.542 1777.71 373.471C1777.32 372.142 1776.99 370.79 1776.73 369.422V368.956C1776.48 367.581 1776.01 366.262 1775.35 365.053C1774.57 363.693 1773.99 362.222 1773.61 360.683C1773.25 359.36 1772.8 358.066 1772.28 356.809L1772.09 356.343C1771.57 354.869 1770.91 353.454 1770.13 352.119C1769.78 351.566 1769.42 351.012 1769.04 350.488C1768.66 349.964 1768.17 349.206 1767.79 348.536C1767.33 347.743 1766.92 346.915 1766.57 346.06C1766.35 345.594 1766.16 345.128 1765.92 344.691C1764.7 342.151 1762.9 339.993 1760.67 338.429L1760.13 338.079C1759.06 337.443 1758.08 336.648 1757.22 335.72C1756.87 335.324 1756.55 334.895 1756.27 334.438C1755.89 333.842 1755.44 333.311 1754.91 332.865L1753.6 332.02C1752.9 331.599 1752.22 331.132 1751.57 330.622L1750.97 330.098L1750.07 329.37L1749.12 328.874L1748.28 328.437L1747.14 327.651C1746.69 327.249 1746.17 326.952 1745.61 326.777C1744.44 326.675 1743.32 326.198 1742.41 325.408C1741.86 324.847 1741.36 324.233 1740.91 323.573C1740.64 323.194 1740.37 322.815 1740.07 322.466C1739.37 321.651 1738.55 320.953 1737.65 320.398L1736.81 319.903C1735.9 319.401 1735.04 318.816 1734.23 318.155C1733.14 317.258 1732.12 316.285 1731.16 315.242L1730.48 314.514C1729.85 313.764 1729.18 313.063 1728.47 312.416C1727.6 311.709 1726.69 311.057 1725.75 310.465L1725.01 309.999C1724.12 309.416 1723.25 308.775 1722.3 308.105C1720.88 306.978 1719.36 306.003 1717.76 305.192C1716.54 304.684 1715.26 304.351 1713.95 304.202C1712.7 303.954 1711.49 303.492 1710.37 302.833L1708.68 301.988C1707.76 301.522 1706.86 301.056 1705.96 300.503C1705.07 299.949 1703.52 299.017 1702.24 298.347C1699.81 296.952 1697.63 295.108 1695.8 292.9C1695.53 292.613 1695.28 292.312 1695.04 291.997C1694.45 291.269 1693.79 290.605 1693.08 290.016C1692.13 289.331 1691.09 288.82 1689.98 288.502L1689.25 288.239C1688.38 287.919 1687.48 287.628 1686.53 287.249C1685.88 286.957 1685.26 286.596 1684.68 286.171C1684.47 286.022 1684.27 285.857 1684.09 285.676C1683.85 285.42 1683.56 285.222 1683.24 285.093H1682.84C1682.62 285.066 1682.41 285.008 1682.21 284.919C1681.57 284.684 1680.97 284.329 1680.44 283.87C1679.74 283.369 1679.01 282.931 1678.24 282.559L1676.99 281.889C1675.72 281.12 1674.4 280.429 1673.05 279.821C1672.64 279.668 1672.23 279.542 1671.8 279.442L1671.07 279.238C1670.33 279.005 1669.57 278.685 1668.68 278.306C1667.26 277.695 1665.96 277.054 1664.52 276.355C1663.59 275.887 1662.58 275.667 1661.56 275.714H1661.18L1659.76 275.481V272.568L1661.26 272.422ZM1660.69 260.45L1661.28 260.742C1661.94 260.998 1662.54 261.372 1663.08 261.848C1663.97 262.593 1664.97 263.183 1666.04 263.596L1667.48 264.179C1667.81 264.286 1668.15 264.354 1668.49 264.383H1669.19C1669.94 264.538 1670.63 264.9 1671.2 265.431C1671.4 265.62 1671.62 265.777 1671.86 265.897C1672.06 265.949 1672.28 265.949 1672.48 265.897C1672.77 265.917 1673.05 265.966 1673.32 266.043C1673.92 266.186 1674.48 266.453 1674.98 266.829C1675.81 267.367 1676.66 267.853 1677.54 268.286L1678.24 268.635L1682.13 270.762L1684.85 272.306C1686.89 273.413 1688.9 274.316 1691.04 275.219L1691.67 275.51C1692.48 275.861 1693.26 276.311 1693.98 276.85C1694.78 277.568 1695.45 278.449 1695.94 279.442L1696.1 279.763C1696.26 280.121 1696.49 280.44 1696.77 280.701C1697.05 280.962 1697.37 281.158 1697.73 281.277C1698.26 281.395 1698.79 281.483 1699.33 281.54L1700.72 281.744L1701.51 281.889C1702.29 282.035 1703.06 282.18 1703.84 282.384C1705.08 282.776 1706.27 283.334 1707.38 284.045L1708.82 284.889C1710.72 285.996 1712.7 287.162 1714.61 288.502C1715.77 289.317 1716.78 290.104 1717.68 290.861L1718.27 291.443C1718.74 291.88 1719.36 292.492 1719.74 292.492H1720.01H1721.35V293.832V295.23L1720.1 295.463H1719.58C1718.75 295.417 1717.95 295.102 1717.3 294.56C1716.81 294.182 1716.32 293.745 1715.86 293.337L1714.77 292.376C1712.82 290.812 1710.74 289.428 1708.57 288.239L1706.91 287.278C1705.45 286.328 1703.87 285.611 1702.21 285.152C1701.15 284.919 1700.07 284.686 1699.01 284.569H1698.65C1697.72 284.517 1696.81 284.31 1695.94 283.957C1694.92 283.467 1694.08 282.64 1693.54 281.598L1693.24 281.044C1692.88 280.271 1692.36 279.594 1691.72 279.064C1691.01 278.626 1690.27 278.256 1689.49 277.957L1689.17 277.811C1687.97 277.316 1686.8 276.762 1685.63 276.18C1683.92 275.306 1682.21 274.374 1680.53 273.442L1678.62 272.393C1677.51 271.811 1676.42 271.199 1675.31 270.645H1674.98C1674.6 270.471 1674.22 270.266 1673.87 270.034L1673.35 269.684C1673.07 269.447 1672.74 269.269 1672.4 269.16C1672.23 269.144 1672.06 269.144 1671.88 269.16C1671.36 269.144 1670.84 269.026 1670.36 268.81C1669.95 268.596 1669.57 268.311 1669.25 267.965L1668.84 267.645C1668.58 267.515 1668.29 267.455 1668 267.47H1667.26C1666.65 267.341 1666.06 267.136 1665.5 266.859L1664.68 266.538C1663.64 266.149 1662.65 265.631 1661.72 264.994L1661.01 264.383C1660.82 264.169 1660.6 263.992 1660.36 263.858L1659.25 263.305L1658.54 262.751L1658.24 259.314L1660.69 260.45ZM1777.82 276.471C1777.41 275.871 1777.05 275.238 1776.73 274.578L1776.46 274.083C1776.13 273.471 1775.78 272.859 1775.4 272.277L1775.1 271.811C1774.08 270.227 1773.3 268.476 1772.79 266.626C1772.57 265.839 1772.38 265.053 1772.19 264.266C1771.67 261.62 1770.76 259.082 1769.48 256.751C1768.78 255.736 1767.95 254.825 1767.03 254.042L1765.92 252.993L1765.15 252.207C1764.12 251.187 1763.12 250.168 1762.03 249.294C1760.94 248.42 1759.31 247.138 1758.09 246.09L1757.63 245.74C1756.75 245.014 1755.93 244.226 1755.15 243.381C1754.8 243.002 1754.45 242.623 1754.07 242.274C1753.39 241.638 1752.64 241.099 1751.84 240.672C1751.15 240.273 1750.48 239.836 1749.83 239.361C1748.81 238.492 1747.84 237.569 1746.92 236.594L1745.67 235.312C1744.28 234.001 1742.95 232.632 1741.59 231.234C1741.38 231.013 1741.23 230.729 1741.17 230.418C1741.1 230.106 1741.13 229.782 1741.24 229.486L1741.73 228.467H1742.65H1743.3L1743.71 228.903C1745.07 230.36 1746.43 231.816 1747.92 233.156L1749.15 234.38C1749.97 235.341 1750.88 236.21 1751.87 236.972C1752.3 237.293 1752.76 237.555 1753.2 237.817C1754.25 238.396 1755.24 239.11 1756.13 239.943L1757 240.846C1757.84 241.785 1758.75 242.652 1759.72 243.439C1761.13 244.546 1762.44 245.653 1763.9 246.847C1765.37 248.041 1765.94 248.769 1766.92 249.76L1767.93 250.779L1768.91 251.682C1769.9 252.548 1770.82 253.524 1771.62 254.595C1772.39 255.805 1773.01 257.117 1773.47 258.499L1773.74 259.227C1774.29 260.7 1774.72 262.22 1775.02 263.771L1775.24 264.703C1775.62 266.46 1776.29 268.135 1777.19 269.655L1777.68 270.412L1778.61 271.898L1779.15 272.976C1779.37 273.383 1779.56 273.791 1779.8 274.17C1780.72 275.46 1781.83 276.574 1783.09 277.462C1784.05 278.256 1784.95 279.112 1785.81 280.025L1786.92 281.103C1787.47 281.627 1788.04 282.093 1788.61 282.588C1789.43 283.241 1790.21 283.951 1790.95 284.715L1792.39 286.229C1793.09 287.045 1793.83 287.832 1794.61 288.589C1795.4 289.346 1795.73 289.725 1796.3 290.337C1796.91 291.034 1797.55 291.695 1798.23 292.317C1799.4 293.427 1800.4 294.724 1801.19 296.162C1801.57 296.774 1801.98 297.357 1802.39 297.939C1803.07 298.959 1803.77 299.978 1804.37 301.085C1804.72 301.697 1805.05 302.338 1805.38 302.979C1805.88 304.055 1806.46 305.088 1807.12 306.066C1807.5 306.649 1807.93 307.231 1808.37 307.785C1809.05 308.639 1809.68 309.533 1810.27 310.465L1811.27 312.183C1811.93 313.29 1812.55 314.397 1813.26 315.446C1813.96 316.495 1814.18 316.728 1814.67 317.339C1815.34 318.158 1815.96 319.024 1816.52 319.932C1816.9 320.543 1817.25 321.213 1817.61 321.854C1818.12 322.866 1818.71 323.84 1819.35 324.767C1820.32 325.999 1821.35 327.175 1822.44 328.292L1822.66 328.496C1823.8 329.719 1824.86 331.001 1825.87 332.224C1827.02 333.707 1828.26 335.117 1829.56 336.448C1830.3 337.147 1831.09 337.817 1831.87 338.487C1833.7 339.888 1835.33 341.577 1836.68 343.497C1837.18 344.256 1837.72 344.985 1838.29 345.682C1838.83 346.352 1839.35 347.022 1839.84 347.721C1840.75 349.167 1841.54 350.698 1842.2 352.294L1842.36 352.702C1842.9 353.681 1843.38 354.693 1843.81 355.731C1844.08 356.576 1844.35 357.421 1844.7 358.265C1845.1 359.144 1845.58 359.982 1846.12 360.771L1847.2 362.577L1847.42 363.014C1848.25 364.43 1848.94 365.933 1849.49 367.499C1849.96 369.328 1850.12 371.231 1849.97 373.121C1849.82 374.701 1850.02 376.298 1850.55 377.782C1850.83 378.391 1851.16 378.975 1851.52 379.53C1851.79 380.011 1852.02 380.518 1852.2 381.044C1852.2 381.336 1852.45 381.656 1852.58 381.918C1853.16 382.895 1853.8 383.821 1854.51 384.686L1855.71 386.259C1856.82 387.861 1857.96 389.434 1859 391.065L1859.49 391.793C1860.28 392.884 1860.93 394.078 1861.44 395.347C1861.84 396.279 1862.35 397.151 1862.97 397.939C1863.4 398.536 1863.81 399.158 1864.19 399.803C1864.91 401.188 1865.83 402.446 1866.91 403.532L1867.64 404.377L1867.31 405.309L1866.82 406.358H1865.28L1864.89 406.008C1863.65 404.744 1862.59 403.292 1861.74 401.697C1861.41 401.121 1861.05 400.566 1860.66 400.036C1860.08 399.241 1859.55 398.404 1859.08 397.531C1858.9 397.154 1858.75 396.765 1858.62 396.366C1858.52 396.078 1858.42 395.796 1858.29 395.522C1858.03 395.066 1857.74 394.629 1857.42 394.211L1856.82 393.366C1855.82 391.822 1854.78 390.278 1853.73 388.793L1852.45 387.103C1851.71 386.113 1850.95 385.152 1850.3 384.19C1850.02 383.703 1849.78 383.186 1849.59 382.646L1849.32 381.947C1849.14 381.595 1848.94 381.254 1848.72 380.928C1848.48 380.549 1848.26 380.171 1848.04 379.763C1847.15 377.669 1846.78 375.357 1846.99 373.063C1847.06 371.876 1847 370.683 1846.82 369.509C1846.48 368.085 1845.93 366.728 1845.19 365.49L1844.81 364.732C1844.46 364.091 1844.08 363.45 1843.67 362.839C1843.12 362.011 1842.62 361.145 1842.17 360.246C1841.75 359.298 1841.38 358.326 1841.06 357.333C1840.82 356.478 1840.53 355.642 1840.19 354.828L1839.95 354.304C1839.35 352.843 1838.65 351.431 1837.85 350.08C1837.4 349.397 1836.91 348.746 1836.39 348.129C1835.82 347.43 1835.27 346.73 1834.78 346.002C1833.94 344.697 1832.91 343.538 1831.74 342.565C1828.91 340.243 1826.32 337.596 1824.02 334.671C1823 333.341 1821.91 332.086 1820.73 330.913C1819.48 329.645 1818.29 328.303 1817.17 326.894C1816.46 325.851 1815.8 324.762 1815.22 323.631L1814.48 322.291C1813.92 321.378 1813.3 320.502 1812.63 319.67C1812.17 319.116 1811.74 318.533 1811.33 317.951C1810.51 316.786 1809.81 315.533 1809.1 314.31L1808.26 312.882C1807.62 311.868 1806.93 310.895 1806.19 309.97L1805.21 308.63C1804.42 307.448 1803.71 306.212 1803.07 304.93C1802.82 304.435 1802.58 303.94 1802.31 303.445C1801.63 302.221 1800.87 301.085 1800.08 299.891L1799.34 298.784C1799.1 298.434 1798.88 298.056 1798.66 297.677C1798.45 297.298 1798.2 296.891 1797.93 296.512C1797.51 295.943 1797.03 295.434 1796.49 294.997C1795.74 294.324 1795.04 293.604 1794.37 292.842C1793.88 292.288 1793.39 291.764 1792.88 291.269C1792.36 290.774 1791.33 289.637 1790.57 288.793L1788.93 287.074C1788.31 286.463 1787.66 285.889 1786.98 285.356C1786.38 284.831 1785.78 284.336 1785.21 283.783L1784.29 282.909C1783.24 281.875 1782.14 280.903 1781 279.996C1779.77 279.013 1778.69 277.823 1777.82 276.471Z" fill="#202147"/>
<path d="M1996.85 575.09C1996.85 571.117 1995.28 567.143 1994.07 563.124C1993.67 559.401 1992.65 555.692 1991.04 552.015C1987.41 546.054 1976.63 541.087 1972.99 535.081C1968.95 526.985 1967.57 518.736 1968.87 510.516C1969.54 506.877 1969.54 503.226 1968.87 499.587C1967.66 495.839 1964.51 492.227 1963.78 488.434C1962.33 480.35 1960.03 472.312 1958.94 464.274C1957.85 456.236 1957.85 448.695 1955.06 440.973C1952.28 433.251 1946.7 426.343 1942.95 418.937C1941.13 415.279 1940.53 411.531 1938.71 407.828C1937.34 405.671 1936.33 403.484 1935.68 401.28C1935.68 399.248 1936.65 397.216 1935.68 395.229C1933.86 390.307 1920.9 388.139 1910.48 385.972C1903.64 384.509 1896.52 383.241 1889.16 382.179C1877.78 380.688 1867.72 378.521 1856.7 376.895C1840.61 375.254 1823.81 374.824 1807.27 375.631C1786.8 375.631 1766.33 376.624 1745.86 376.308C1735.11 376.348 1724.48 375.5 1714.72 373.825C1706.85 372.334 1699.7 370.347 1691.71 369.038C1673.91 366.792 1655.51 365.278 1636.83 364.522C1627.8 363.631 1618.91 362.561 1610.18 361.316C1600.48 360.459 1591.11 359.139 1582.32 357.387C1576.68 355.837 1570.68 354.477 1564.39 353.323C1555.93 352.428 1547.24 351.867 1538.47 351.652C1519.16 350.877 1499.72 350.665 1480.32 351.02C1470.27 351.184 1460.22 350.679 1450.64 349.53C1440.59 348.22 1431.14 346.279 1421.21 344.743C1402.19 341.808 1382.68 339.55 1363.91 336.434C1345.13 333.318 1324.78 330.609 1306.12 326.906C1290.01 323.117 1273.07 319.839 1255.49 317.107C1247.25 316.068 1239.98 314.488 1232.11 313.404C1222.72 312.525 1213.16 311.936 1203.52 311.643C1193.83 310.921 1184.5 309.566 1174.81 308.843C1165.12 308.121 1153.25 307.398 1142.34 306.676C1121.89 305.116 1111.97 296.619 1091 295.206C1071.25 293.876 1058.08 299.437 1040.46 298.909C1030.41 298.503 1027.3 301.257 1017.36 300.76C1007.77 300.489 988.698 298.637 979.101 298.909C964.585 298.982 953.067 299.259 942.284 302.883C926.172 307.398 895.586 302.521 875.84 302.883C856.324 302.992 836.832 302.326 817.694 300.896C799.336 300.031 783.88 294.762 765.415 295.206C756.814 295.206 744.768 300.263 736.289 300.76C726.096 301.659 715.725 302.248 705.277 302.521C697.183 302.281 689.039 302.432 681.05 302.973C672.306 303.876 663.825 305.101 655.732 306.631C646.404 308.166 636.955 309.069 627.385 310.333C619.619 311.564 611.485 312.443 603.158 312.953C594.194 313.224 585.714 314.533 576.871 314.714C567.156 314.805 557.51 315.352 548.161 316.339C529.466 318.614 511.178 321.329 493.406 324.468C483.836 326.048 474.266 327.222 464.454 328.442C454.642 329.661 443.618 330.067 434.17 331.602C426.659 332.867 420.239 334.809 412.849 336.118C403.313 337.496 393.336 338.407 383.17 338.828C341.014 341.492 298.374 337.789 255.733 339.821C247.027 340.405 238.445 341.22 230.052 342.26C221.49 342.835 213.093 343.712 204.976 344.879C195.043 346.504 186.199 348.808 176.145 350.343C166.553 351.821 156.721 353.073 146.708 354.091C127.69 356.033 110.972 359.69 92.3169 362.084C73.6616 364.477 55.9755 365.064 37.9259 367.548C27.6846 369.037 16.9802 370.038 6.06645 370.528C-1.08205 370.72 -8.19835 371.052 -15.2537 371.522C-25.3472 372.527 -34.8136 374.26 -43.1157 376.624C-43.1157 376.082 -44.8118 375.631 -45.902 376.128C-50.8687 378.385 -58.0157 379.966 -62.3767 382.45C-66.0584 385.641 -66.4467 389.228 -63.4669 392.52C-59.3455 397.275 -56.5845 402.179 -55.2296 407.151C-54.6239 412.931 -55.2296 418.711 -55.2296 424.491C-56.4409 447.657 -54.2605 470.822 -55.2296 493.988C-55.2296 504.961 -60.075 515.799 -60.075 526.817V612.255C-60.075 617.538 -58.8636 622.867 -60.075 628.105C-60.6807 631.492 -63.3458 634.698 -64.6783 638.085C-65.6474 640.523 -65.5264 642.962 -65.8898 645.445C-66.4922 652.277 -68.6806 659.076 -72.431 665.766C-76.6708 672.946 -91.2076 681.616 -82.001 688.977C-81.8381 689.067 -81.6228 689.142 -81.3711 689.197C-81.1194 689.252 -80.8379 689.285 -80.5474 689.293C-73.4369 689.131 -66.5 688.408 -60.1963 687.171C-51.1109 685.952 -40.8142 685.455 -31.4865 684.506C-11.6068 682.87 8.87388 682.504 29.0827 683.423C51.0437 684.334 73.128 684.771 95.2245 684.732C117.08 684.363 138.978 684.559 160.76 685.319C202.553 687.171 243.013 692.138 285.291 691.912C306.101 691.37 326.987 691.37 347.798 691.912C369.482 692.861 390.681 694.576 412.486 695.118C455.975 696.202 499.221 693.402 542.831 693.764C586.441 694.125 631.383 696.022 676.083 695.66C697.282 695.66 718.482 695.66 739.56 695.028C760.638 694.396 783.412 693.673 805.459 693.402C847.916 692.936 890.245 691.428 932.17 688.887C954.749 687.061 977.606 685.749 1000.61 684.958C1022.66 684.597 1044.83 684.958 1066.88 684.958C1111.58 684.687 1155.79 682.474 1200.13 680.442C1244.46 678.41 1289.16 676.92 1333.38 676.333C1356.03 676.062 1378.08 675.294 1400.61 674.572C1421.21 673.94 1441.92 674.572 1462.51 673.669C1483.11 672.766 1506.37 671.411 1528.78 671.05C1551.19 670.688 1570.81 671.05 1591.89 670.779C1636.4 670.477 1680.91 671.261 1725.14 673.127C1769.33 675.228 1813.85 676.179 1858.39 675.972C1880.33 675.842 1902.27 676.28 1924.05 677.281C1934.37 677.808 1944.77 678.11 1955.18 678.184C1962.19 678.496 1969.29 678.057 1975.66 676.92C1983.89 674.843 1981.83 670.733 1981.83 667.527C1982.37 664.632 1983.38 661.751 1984.86 658.902C1986.11 655.036 1986.76 651.146 1986.8 647.252C1986.8 631.266 1996.25 615.642 1996.25 599.611C1996.85 591.482 1997.22 583.354 1996.85 575.09Z" fill="#F0C485"/>
<g filter="url(#filter0_d_533_1322)">
<ellipse cx="973.436" cy="117.966" rx="86.4362" ry="87.9656" fill="#CDE6F4"/>
</g>
<path fill-rule="evenodd" clip-rule="evenodd" d="M919.917 150.052C919.917 168.656 935.542 167.167 935.542 167.167V188C935.542 188 918.875 224.458 904.292 208.255C904.292 224.453 918.875 224.453 918.875 224.453H925.125V245.287C925.125 245.287 912.625 281.745 893.875 265.547C893.875 274.245 899.286 278.276 904.292 280.141V323.417H1039.71V280.141C1044.72 278.276 1050.12 274.25 1050.12 265.547C1035.81 277.917 1023.77 259.583 1018.88 250.224V224.458H1025.13C1025.13 224.458 1039.71 224.458 1039.71 208.255C1027.88 221.401 1013.47 199.88 1008.46 191.292V167.167C1008.46 167.167 1024.08 168.656 1024.08 150.052C1003.25 172.375 972 115.083 972 115.083C972 115.083 940.75 172.375 919.917 150.052ZM914.708 313V281.75H925.125V313H914.708ZM935.542 313H945.958V302.583C945.958 299.821 947.056 297.171 949.009 295.218C950.963 293.264 953.612 292.167 956.375 292.167H987.625C990.388 292.167 993.037 293.264 994.991 295.218C996.944 297.171 998.042 299.821 998.042 302.583V313H1008.46V281.75H935.542V313ZM1018.88 281.75V313H1029.29V281.75H1018.88ZM998.042 167.167V188H987.625V182.792C987.625 181.41 987.076 180.086 986.1 179.109C985.123 178.132 983.798 177.583 982.417 177.583C981.035 177.583 979.711 178.132 978.734 179.109C977.757 180.086 977.208 181.41 977.208 182.792V188H966.792V182.792C966.792 181.41 966.243 180.086 965.266 179.109C964.289 178.132 962.965 177.583 961.583 177.583C960.202 177.583 958.877 178.132 957.9 179.109C956.924 180.086 956.375 181.41 956.375 182.792V188H945.958V167.167H998.042ZM935.542 245.292V224.458H1008.46V245.292H998.042V240.083C998.042 238.702 997.493 237.377 996.516 236.401C995.539 235.424 994.215 234.875 992.833 234.875C991.452 234.875 990.127 235.424 989.15 236.401C988.174 237.377 987.625 238.702 987.625 240.083V245.292H977.208V240.083C977.208 238.702 976.66 237.377 975.683 236.401C974.706 235.424 973.381 234.875 972 234.875C970.619 234.875 969.294 235.424 968.317 236.401C967.34 237.377 966.792 238.702 966.792 240.083V245.292H956.375V240.083C956.375 238.702 955.826 237.377 954.85 236.401C953.873 235.424 952.548 234.875 951.167 234.875C949.785 234.875 948.461 235.424 947.484 236.401C946.507 237.377 945.958 238.702 945.958 240.083V245.292H935.542Z" fill="#BB2A2A"/>
<defs>
<filter id="filter0_d_533_1322" x="883" y="30" width="180.873" height="183.931" filterUnits="userSpaceOnUse" color-interpolation-filters="sRGB">
<feFlood flood-opacity="0" result="BackgroundImageFix"/>
<feColorMatrix in="SourceAlpha" type="matrix" values="0 0 0 0 0 0 0 0 0 0 0 0 0 0 0 0 0 0 127 0" result="hardAlpha"/>
<feOffset dy="4"/>
<feGaussianBlur stdDeviation="2"/>
<feComposite in2="hardAlpha" operator="out"/>
<feColorMatrix type="matrix" values="0 0 0 0 1 0 0 0 0 1 0 0 0 0 1 0 0 0 0.25 0"/>
<feBlend mode="normal" in2="BackgroundImageFix" result="effect1_dropShadow_533_1322"/>
<feBlend mode="normal" in="SourceGraphic" in2="effect1_dropShadow_533_1322" result="shape"/>
</filter>
</defs>
</svg>
