<svg width="1920" height="470" viewBox="0 0 1920 470" fill="none" xmlns="http://www.w3.org/2000/svg">
<path d="M1017.13 73.3036C1017.13 73.3036 778.084 26 745.458 73.3036C712.831 120.607 -320 398.852 -320 398.852V470H2304V385.2L2043.1 349.626L1462.94 164.834L1143.7 26H1104.2L1017.13 73.3036Z" fill="#154363"/>
<path d="M1515.33 175.5L1160.88 28.9442L1131.73 24.4145L1045.86 29.9203L997.444 22.3964L993.65 46.81L987.23 88.1253L952.871 139.909L1080.5 154L1099.5 234.5L1198 216L1368.5 223.315L1467 270.026L1498 279.5L1498 197.5L1402.5 216L1322 139.909L1297 154L1297 114L1241.5 103L1167.37 55.5334L1289.1 92.7215L1408.5 197.5L1515.33 183.651L1515.33 244L1601.5 234.5L1637 279.5L1601.5 206.5L1515.33 175.5Z" fill="#B6C8D9"/>
<path d="M566 131.5L845.368 8.30425C845.368 8.30425 908.489 3.11969 948.197 8.30425C985.392 13.1607 1040.5 32.1363 1040.5 32.1363L1005.68 58.0712L948.197 121.156L984.5 199.311L905 161L777.76 240.316V103.5L602.466 290.434L713.5 121.156L640.5 147L547.003 262L506 161L566 131.5Z" fill="#B6C8D9"/>
<path d="M877.985 104.527L1008 57L889.291 112.565L855.374 170.925L687 382L855.374 147.511L877.985 104.527Z" fill="#154363"/>
</svg>
